{
.appVersion = "1271";
classes = (
{
code = "zero one two three four five six seven eight nine";
name = Figures;
},
{
code = "A B C D E F G H I J K L M N O P Q R S T U V W X Y Z AE OE Aring Aogonek Eogonek Iogonek Uogonek Dcroat Eth Hbar Lslash Oslash Eng Thorn Tbar Aringacute Aacute Agrave Acircumflex Atilde Adieresis Amacron Abreve Alphatonos AEacute Cacute Ccaron Cdotaccent Ccedilla Dcaron Egrave Eacute Ecircumflex Ecaron Edieresis Emacron Ebreve Edotaccent Gbreve Gdotaccent Gcommaaccent Igrave Iacute Icircumflex Itilde Idieresis Imacron Ibreve Idotaccent Kcommaaccent Lacute Ldot Lcaron Lcommaaccent Nacute Ncaron Ntilde Ncommaaccent Ograve Oacute Ocircumflex Otilde Odieresis Omacron Obreve Ohungarumlaut Oslashacute Racute Rcaron Rcommaaccent Sacute Scaron Scedilla Scommaaccent Tcaron Tcommaaccent Ugrave Uacute Ucircumflex Utilde Udieresis Umacron Ubreve Uring Uhungarumlaut Wgrave Wacute Wcircumflex Wdieresis Ygrave Yacute Ycircumflex Ydieresis Zacute Zcaron Zdotaccent T_T R_R E_A L_A T_E D_E J.alt_1 K.alt_1 dagger.alt_1 daggerdbl.alt_1";
name = Capitals;
},
{

glyphs = (
{
color = (67,219,95,255);
glyphname = .notdef;
layers = (
{
layerId = master01;
paths = (
{
closed = 1;
nodes = (
"118 514 OFFCURVE",
"118 524 OFFCURVE",
"116 533 CURVE SMOOTH",
"108 564 LINE SMOOTH",
"108 566 OFFCURVE",
"110 567 OFFCURVE",
"111 565 CURVE SMOOTH",
"121 550 LINE SMOOTH",
"134 531 OFFCURVE",
"133 507 OFFCURVE",
"122 488 CURVE SMOOTH",
"111 472 LINE SMOOTH",
"110 470 OFFCURVE",
"108 471 OFFCURVE",
"108 473 CURVE SMOOTH",
"116 505 LINE SMOOTH"
);
},
{
closed = 1;
nodes = (
"304 411 LINE SMOOTH",
"292 415 OFFCURVE",
"279 415 OFFCURVE",
"267 411 CURVE SMOOTH",
"191 389 LINE SMOOTH",
"188 388 OFFCURVE",
"190 384 OFFCURVE",
"192 384 CURVE SMOOTH",
"278 394 LINE SMOOTH",
"283 395 OFFCURVE",
"288 395 OFFCURVE",
"293 394 CURVE SMOOTH",
"381 384 LINE SMOOTH",
"383 384 OFFCURVE",
"385 388 OFFCURVE",
"382 389 CURVE SMOOTH"
);
},
{
closed = 1;
nodes = (
"451 549 LINE SMOOTH",
"439 530 OFFCURVE",
"440 506 OFFCURVE",
"451 487 CURVE SMOOTH",
"461 472 LINE SMOOTH",
"462 470 OFFCURVE",
"465 471 OFFCURVE",
"465 473 CURVE SMOOTH",
"457 505 LINE SMOOTH",
"455 513 OFFCURVE",
"455 523 OFFCURVE",
"457 532 CURVE SMOOTH",
"465 564 LINE SMOOTH",
"465 566 OFFCURVE",
"462 567 OFFCURVE",
"461 565 CURVE SMOOTH"
);
},
{
closed = 1;
nodes = (
"478 664 LINE",
"478 374 LINE",
"94 374 LINE",
"94 664 LINE",
"263 664 LINE",
"263 667 LINE",
"258 681 LINE",
"258 681 LINE",
"257 685 LINE SMOOTH",
"257 686 OFFCURVE",
"258 689 OFFCURVE",
"260 689 CURVE SMOOTH",
"263 690 OFFCURVE",
"266 691 OFFCURVE",
"268 691 CURVE",
"271 684 LINE",
"274 684 OFFCURVE",
"277 684 OFFCURVE",
"280 684 CURVE",
"280 693 LINE",
"284 693 OFFCURVE",
"288 693 OFFCURVE",
"292 693 CURVE",
"292 684 LINE",
"295 684 OFFCURVE",
"298 684 OFFCURVE",
"301 684 CURVE",
"304 691 LINE",
"306 691 OFFCURVE",
"309 690 OFFCURVE",
"312 689 CURVE SMOOTH",
"314 689 OFFCURVE",
"315 686 OFFCURVE",
"315 685 CURVE SMOOTH",
"314 681 LINE",
"309 667 LINE",
"309 664 LINE"
);
},
{
closed = 1;
nodes = (
"309 653 LINE SMOOTH",
"309 650 OFFCURVE",
"308 647 OFFCURVE",
"307 644 CURVE",
"381 652 LINE SMOOTH",
"383 653 OFFCURVE",
"385 649 OFFCURVE",
"382 648 CURVE SMOOTH",
"305 626 LINE SMOOTH",
"293 622 OFFCURVE",
"280 622 OFFCURVE",
"268 626 CURVE SMOOTH",
"191 648 LINE SMOOTH",
"188 649 OFFCURVE",
"190 653 OFFCURVE",
"192 652 CURVE SMOOTH",
"265 644 LINE",
"264 647 OFFCURVE",
"263 650 OFFCURVE",
"263 653 CURVE SMOOTH",
"263 660 LINE",
"193 660 LINE",
"191 660 LINE",
"103 660 LINE SMOOTH",
"103 660 OFFCURVE",
"103 660 OFFCURVE",
"103 660 CURVE SMOOTH",
"102 659 OFFCURVE",
"102 659 OFFCURVE",
"101 659 CURVE SMOOTH",
"101 659 OFFCURVE",
"101 659 OFFCURVE",
"101 659 CURVE SMOOTH",
"100 659 OFFCURVE",
"100 658 OFFCURVE",
"99 658 CURVE SMOOTH",
"99 658 OFFCURVE",
"99 658 OFFCURVE",
"99 658 CURVE SMOOTH",
"99 658 OFFCURVE",
"99 657 OFFCURVE",
"99 657 CURVE SMOOTH",
"99 657 OFFCURVE",
"98 655 OFFCURVE",
"98 655 CURVE SMOOTH",
"98 583 LINE",
"98 567 LINE",
"98 565 LINE",
"98 473 LINE",
"98 470 LINE",
"98 383 LINE",
"98 383 LINE SMOOTH",
"98 383 OFFCURVE",
"98 383 OFFCURVE",
"98 382 CURVE SMOOTH",
"98 382 OFFCURVE",
"99 382 OFFCURVE",
"99 381 CURVE SMOOTH",
"99 381 OFFCURVE",
"99 381 OFFCURVE",
"99 381 CURVE SMOOTH",
"99 380 OFFCURVE",
"99 380 OFFCURVE",
"100 379 CURVE SMOOTH",
"100 379 OFFCURVE",
"100 379 OFFCURVE",
"100 379 CURVE SMOOTH",
"100 379 OFFCURVE",
"100 379 OFFCURVE",
"100 379 CURVE SMOOTH",
"100 379 OFFCURVE",
"100 379 OFFCURVE",
"101 379 CURVE SMOOTH",
"101 379 OFFCURVE",
"101 379 OFFCURVE",
"101 379 CURVE SMOOTH",
"101 378 OFFCURVE",
"103 378 OFFCURVE",
"103 378 CURVE SMOOTH",
"382 378 LINE",
"397 378 LINE",
"469 378 LINE SMOOTH",
"469 378 OFFCURVE",
"471 378 OFFCURVE",
"471 379 CURVE SMOOTH",
"471 379 OFFCURVE",
"472 379 OFFCURVE",
"472 379 CURVE SMOOTH",
"472 379 OFFCURVE",
"473 380 OFFCURVE",
"473 381 CURVE SMOOTH",
"473 381 OFFCURVE",
"473 382 OFFCURVE",
"474 382 CURVE SMOOTH",
"474 383 OFFCURVE",
"474 383 OFFCURVE",
"474 383 CURVE SMOOTH",
"474 383 LINE",
"474 470 LINE",
"474 473 LINE",
"474 565 LINE",
"474 567 LINE",
"474 579 LINE",
"474 655 LINE SMOOTH",
"474 658 OFFCURVE",
"472 660 OFFCURVE",
"469 660 CURVE SMOOTH",
"420 660 LINE",
"382 660 LINE",
"380 660 LINE",
"309 660 LINE"
);
},
{
closed = 1;
nodes = (
"451 473 OFFCURVE",
"447 473 OFFCURVE",
"447 470 CURVE SMOOTH",
"447 436 LINE SMOOTH",
"447 417 OFFCURVE",
"433 402 OFFCURVE",
"414 402 CURVE SMOOTH",
"376 402 LINE SMOOTH",
"374 402 OFFCURVE",
"373 398 OFFCURVE",
"376 398 CURVE SMOOTH",
"425 388 LINE SMOOTH",
"450 383 OFFCURVE",
"470 406 OFFCURVE",
"463 430 CURVE SMOOTH",
"451 471 LINE SMOOTH"
);
},
{
closed = 1;
nodes = (
"121 565 OFFCURVE",
"125 565 OFFCURVE",
"125 568 CURVE SMOOTH",
"125 602 LINE SMOOTH",
"125 621 OFFCURVE",
"140 636 OFFCURVE",
"159 636 CURVE SMOOTH",
"197 636 LINE SMOOTH",
"199 636 OFFCURVE",
"200 640 OFFCURVE",
"197 641 CURVE SMOOTH",
"148 650 LINE SMOOTH",
"122 654 OFFCURVE",
"102 632 OFFCURVE",
"109 608 CURVE SMOOTH",
"121 567 LINE SMOOTH"
);
},
{
closed = 1;
nodes = (
"365 619 LINE SMOOTH",
"377 611 OFFCURVE",
"392 611 OFFCURVE",
"404 619 CURVE SMOOTH",
"414 625 LINE SMOOTH",
"415 626 OFFCURVE",
"414 628 OFFCURVE",
"413 627 CURVE SMOOTH",
"393 623 LINE SMOOTH",
"387 621 OFFCURVE",
"382 621 OFFCURVE",
"376 622 CURVE SMOOTH",
"356 627 LINE SMOOTH",
"354 628 OFFCURVE",
"354 626 OFFCURVE",
"355 625 CURVE SMOOTH"
);
},
{
closed = 1;
nodes = (
"438 616 OFFCURVE",
"434 617 OFFCURVE",
"433 615 CURVE SMOOTH",
"410 538 LINE SMOOTH",
"407 525 OFFCURVE",
"407 512 OFFCURVE",
"410 500 CURVE SMOOTH",
"433 425 LINE SMOOTH",
"434 422 OFFCURVE",
"438 422 OFFCURVE",
"437 425 CURVE SMOOTH",
"428 511 LINE SMOOTH",
"427 516 OFFCURVE",
"427 521 OFFCURVE",
"428 526 CURVE SMOOTH",
"437 613 LINE SMOOTH"
);
},
{
closed = 1;
nodes = (
"160 628 LINE SMOOTH",
"159 628 OFFCURVE",
"158 626 OFFCURVE",
"159 626 CURVE SMOOTH",
"170 619 LINE SMOOTH",
"181 611 OFFCURVE",
"197 611 OFFCURVE",
"208 620 CURVE SMOOTH",
"218 626 LINE SMOOTH",
"219 626 OFFCURVE",
"219 628 OFFCURVE",
"217 628 CURVE SMOOTH",
"198 623 LINE SMOOTH",
"192 621 OFFCURVE",
"186 621 OFFCURVE",
"180 623 CURVE SMOOTH"
);
},
{
closed = 1;
nodes = (
"414 636 LINE SMOOTH",
"433 636 OFFCURVE",
"447 621 OFFCURVE",
"447 602 CURVE SMOOTH",
"447 568 LINE SMOOTH",
"447 565 OFFCURVE",
"451 565 OFFCURVE",
"451 567 CURVE SMOOTH",
"463 608 LINE SMOOTH",
"470 632 OFFCURVE",
"450 654 OFFCURVE",
"425 650 CURVE SMOOTH",
"376 641 LINE SMOOTH",
"373 640 OFFCURVE",
"374 636 OFFCURVE",
"376 636 CURVE SMOOTH"
);
},
{
closed = 1;
nodes = (
"270 554 OFFCURVE",
"277 561 OFFCURVE",
"277 569 CURVE SMOOTH",
"277 576 OFFCURVE",
"272 582 OFFCURVE",
"264 584 CURVE",
"268 590 OFFCURVE",
"274 594 OFFCURVE",
"282 594 CURVE SMOOTH",
"296 594 OFFCURVE",
"306 582 OFFCURVE",
"306 566 CURVE",
"306 532 OFFCURVE",
"277 545 OFFCURVE",
"277 491 CURVE",
"288 491 LINE",
"288 533 OFFCURVE",
"328 528 OFFCURVE",
"328 566 CURVE SMOOTH",
"328 588 OFFCURVE",
"310 604 OFFCURVE",
"284 604 CURVE SMOOTH",
"262 604 OFFCURVE",
"246 590 OFFCURVE",
"246 572 CURVE SMOOTH",
"246 562 OFFCURVE",
"252 555 OFFCURVE",
"262 555 CURVE SMOOTH"
);
},
{
closed = 1;
nodes = (
"392 427 OFFCURVE",
"376 427 OFFCURVE",
"365 419 CURVE SMOOTH",
"355 413 LINE SMOOTH",
"354 411 OFFCURVE",
"354 410 OFFCURVE",
"356 410 CURVE SMOOTH",
"375 415 LINE SMOOTH",
"381 416 OFFCURVE",
"387 416 OFFCURVE",
"393 415 CURVE SMOOTH",
"413 410 LINE SMOOTH",
"414 410 OFFCURVE",
"415 411 OFFCURVE",
"414 413 CURVE SMOOTH",
"403 419 LINE SMOOTH"
);
},
{
closed = 1;
nodes = (
"180 415 LINE SMOOTH",
"186 417 OFFCURVE",
"191 417 OFFCURVE",
"197 415 CURVE SMOOTH",
"217 410 LINE SMOOTH",
"219 410 OFFCURVE",
"219 412 OFFCURVE",
"218 413 CURVE SMOOTH",
"208 419 LINE SMOOTH",
"196 427 OFFCURVE",
"181 427 OFFCURVE",
"169 419 CURVE SMOOTH",
"159 413 LINE SMOOTH",
"158 412 OFFCURVE",
"159 410 OFFCURVE",
"160 410 CURVE SMOOTH"
);
},
{
closed = 1;
nodes = (
"272 455 OFFCURVE",
"276 450 OFFCURVE",
"283 450 CURVE SMOOTH",
"290 450 OFFCURVE",
"293 455 OFFCURVE",
"293 462 CURVE SMOOTH",
"293 470 OFFCURVE",
"290 475 OFFCURVE",
"283 475 CURVE SMOOTH",
"276 475 OFFCURVE",
"272 470 OFFCURVE",
"272 462 CURVE SMOOTH"
);
},
{
closed = 1;
nodes = (
"135 422 OFFCURVE",
"138 422 OFFCURVE",
"140 425 CURVE SMOOTH",
"163 501 LINE SMOOTH",
"166 513 OFFCURVE",
"166 526 OFFCURVE",
"163 538 CURVE SMOOTH",
"140 615 LINE SMOOTH",
"138 617 OFFCURVE",
"135 616 OFFCURVE",
"135 613 CURVE SMOOTH",
"145 527 LINE SMOOTH",
"146 522 OFFCURVE",
"146 517 OFFCURVE",
"145 512 CURVE SMOOTH",
"135 425 LINE SMOOTH"
);
},
{
closed = 1;
nodes = (
"159 402 LINE SMOOTH",
"140 402 OFFCURVE",
"125 417 OFFCURVE",
"125 436 CURVE SMOOTH",
"125 470 LINE SMOOTH",
"125 473 OFFCURVE",
"121 473 OFFCURVE",
"121 471 CURVE SMOOTH",
"109 430 LINE SMOOTH",
"102 406 OFFCURVE",
"122 383 OFFCURVE",
"148 388 CURVE SMOOTH",
"197 398 LINE SMOOTH",
"200 398 OFFCURVE",
"199 402 OFFCURVE",
"197 402 CURVE SMOOTH"
);
},
{
closed = 1;
nodes = (
"524 40 LINE",
"48 40 LINE",
"48 710 LINE",
"524 710 LINE"
);
},
{
closed = 1;
nodes = (
"57 330 LINE",
"57 48 LINE",
"515 48 LINE",
"515 330 LINE"
);
},
{
closed = 1;
nodes = (
"515 701 LINE",
"57 701 LINE",
"57 339 LINE",
"515 339 LINE"
);
}
);
width = 572;
},
{
associatedMasterId = master01;
layerId = "C543A7F5-A7B8-4778-AACF-D69BB33DCC68";
name = foreground;
paths = (
{
closed = 1;
nodes = (
"118 514 OFFCURVE",
"118 524 OFFCURVE",
"116 533 CURVE SMOOTH",
"108 564 LINE SMOOTH",
"108 566 OFFCURVE",
"110 567 OFFCURVE",
"111 565 CURVE SMOOTH",
"121 550 LINE SMOOTH",
"134 531 OFFCURVE",
"133 507 OFFCURVE",
"122 488 CURVE SMOOTH",
"111 472 LINE SMOOTH",
"110 470 OFFCURVE",
"108 471 OFFCURVE",
"108 473 CURVE SMOOTH",
"116 505 LINE SMOOTH"
);
},
{
closed = 1;
nodes = (
"304 411 LINE SMOOTH",
"292 415 OFFCURVE",
"279 415 OFFCURVE",
"267 411 CURVE SMOOTH",
"191 389 LINE SMOOTH",
"188 388 OFFCURVE",
"190 384 OFFCURVE",
"192 384 CURVE SMOOTH",
"278 394 LINE SMOOTH",
"283 395 OFFCURVE",
"288 395 OFFCURVE",
"293 394 CURVE SMOOTH",
"381 384 LINE SMOOTH",
"383 384 OFFCURVE",
"385 388 OFFCURVE",
"382 389 CURVE SMOOTH"
);
},
{
closed = 1;
nodes = (
"451 549 LINE SMOOTH",
"439 530 OFFCURVE",
"440 506 OFFCURVE",
"451 487 CURVE SMOOTH",
"461 472 LINE SMOOTH",
"462 470 OFFCURVE",
"465 471 OFFCURVE",
"465 473 CURVE SMOOTH",
"457 505 LINE SMOOTH",
"455 513 OFFCURVE",
"455 523 OFFCURVE",
"457 532 CURVE SMOOTH",
"465 564 LINE SMOOTH",
"465 566 OFFCURVE",
"462 567 OFFCURVE",
"461 565 CURVE SMOOTH"
);
},
{
closed = 1;
nodes = (
"478 664 LINE",
"478 374 LINE",
"94 374 LINE",
"94 664 LINE",
"263 664 LINE",
"263 667 LINE",
"258 681 LINE",
"258 681 LINE",
"257 685 LINE SMOOTH",
"257 686 OFFCURVE",
"258 689 OFFCURVE",
"260 689 CURVE SMOOTH",
"263 690 OFFCURVE",
"266 691 OFFCURVE",
"268 691 CURVE",
"271 684 LINE",
"274 684 OFFCURVE",
"277 684 OFFCURVE",
"280 684 CURVE",
"280 693 LINE",
"284 693 OFFCURVE",
"288 693 OFFCURVE",
"292 693 CURVE",
"292 684 LINE",
"295 684 OFFCURVE",
"298 684 OFFCURVE",
"301 684 CURVE",
"304 691 LINE",
"306 691 OFFCURVE",
"309 690 OFFCURVE",
"312 689 CURVE SMOOTH",
"314 689 OFFCURVE",
"315 686 OFFCURVE",
"315 685 CURVE SMOOTH",
"314 681 LINE",
"309 667 LINE",
"309 664 LINE"
);
},
{
closed = 1;
nodes = (
"309 653 LINE SMOOTH",
"309 650 OFFCURVE",
"308 647 OFFCURVE",
"307 644 CURVE",
"381 652 LINE SMOOTH",
"383 653 OFFCURVE",
"385 649 OFFCURVE",
"382 648 CURVE SMOOTH",
"305 626 LINE SMOOTH",
"293 622 OFFCURVE",
"280 622 OFFCURVE",
"268 626 CURVE SMOOTH",
"191 648 LINE SMOOTH",
"188 649 OFFCURVE",
"190 653 OFFCURVE",
"192 652 CURVE SMOOTH",
"265 644 LINE",
"264 647 OFFCURVE",
"263 650 OFFCURVE",
"263 653 CURVE SMOOTH",
"263 660 LINE",
"193 660 LINE",
"191 660 LINE",
"103 660 LINE SMOOTH",
"103 660 OFFCURVE",
"103 660 OFFCURVE",
"103 660 CURVE SMOOTH",
"102 659 OFFCURVE",
"102 659 OFFCURVE",
"101 659 CURVE SMOOTH",
"101 659 OFFCURVE",
"101 659 OFFCURVE",
"101 659 CURVE SMOOTH",
"100 659 OFFCURVE",
"100 658 OFFCURVE",
"99 658 CURVE SMOOTH",
"99 658 OFFCURVE",
"99 658 OFFCURVE",
"99 658 CURVE SMOOTH",
"99 658 OFFCURVE",
"99 657 OFFCURVE",
"99 657 CURVE SMOOTH",
"99 657 OFFCURVE",
"98 655 OFFCURVE",
"98 655 CURVE SMOOTH",
"98 583 LINE",
"98 567 LINE",
"98 565 LINE",
"98 473 LINE",
"98 470 LINE",
"98 383 LINE",
"98 383 LINE SMOOTH",
"98 383 OFFCURVE",
"98 383 OFFCURVE",
"98 382 CURVE SMOOTH",
"98 382 OFFCURVE",
"99 382 OFFCURVE",
"99 381 CURVE SMOOTH",
"99 381 OFFCURVE",
"99 381 OFFCURVE",
"99 381 CURVE SMOOTH",
"99 380 OFFCURVE",
"99 380 OFFCURVE",
"100 379 CURVE SMOOTH",
"100 379 OFFCURVE",
"100 379 OFFCURVE",
"100 379 CURVE SMOOTH",
"100 379 OFFCURVE",
"100 379 OFFCURVE",
"100 379 CURVE SMOOTH",
"100 379 OFFCURVE",
"100 379 OFFCURVE",
"101 379 CURVE SMOOTH",
"101 379 OFFCURVE",
"101 379 OFFCURVE",
"101 379 CURVE SMOOTH",
"101 378 OFFCURVE",
"103 378 OFFCURVE",
"103 378 CURVE SMOOTH",
"382 378 LINE",
"397 378 LINE",
"469 378 LINE SMOOTH",
"469 378 OFFCURVE",
"471 378 OFFCURVE",
"471 379 CURVE SMOOTH",
"471 379 OFFCURVE",
"472 379 OFFCURVE",
"472 379 CURVE SMOOTH",
"472 379 OFFCURVE",
"473 380 OFFCURVE",
"473 381 CURVE SMOOTH",
"473 381 OFFCURVE",
"473 382 OFFCURVE",
"474 382 CURVE SMOOTH",
"474 383 OFFCURVE",
"474 383 OFFCURVE",
"474 383 CURVE SMOOTH",
"474 383 LINE",
"474 470 LINE",
"474 473 LINE",
"474 565 LINE",
"474 567 LINE",
"474 579 LINE",
"474 655 LINE SMOOTH",
"474 658 OFFCURVE",
"472 660 OFFCURVE",
"469 660 CURVE SMOOTH",
"420 660 LINE",
"382 660 LINE",
"380 660 LINE",
"309 660 LINE"
);
},
{
closed = 1;
nodes = (
"451 473 OFFCURVE",
"447 473 OFFCURVE",
"447 470 CURVE SMOOTH",
"447 436 LINE SMOOTH",
"447 417 OFFCURVE",
"433 402 OFFCURVE",
"414 402 CURVE SMOOTH",
"376 402 LINE SMOOTH",
"374 402 OFFCURVE",
"373 398 OFFCURVE",
"376 398 CURVE SMOOTH",
"425 388 LINE SMOOTH",
"450 383 OFFCURVE",
"470 406 OFFCURVE",
"463 430 CURVE SMOOTH",
"451 471 LINE SMOOTH"
);
},
{
closed = 1;
nodes = (
"121 565 OFFCURVE",
"125 565 OFFCURVE",
"125 568 CURVE SMOOTH",
"125 602 LINE SMOOTH",
"125 621 OFFCURVE",
"140 636 OFFCURVE",
"159 636 CURVE SMOOTH",
"197 636 LINE SMOOTH",
"199 636 OFFCURVE",
"200 640 OFFCURVE",
"197 641 CURVE SMOOTH",
"148 650 LINE SMOOTH",
"122 654 OFFCURVE",
"102 632 OFFCURVE",
"109 608 CURVE SMOOTH",
"121 567 LINE SMOOTH"
);
},
{
closed = 1;
nodes = (
"365 619 LINE SMOOTH",
"377 611 OFFCURVE",
"392 611 OFFCURVE",
"404 619 CURVE SMOOTH",
"414 625 LINE SMOOTH",
"415 626 OFFCURVE",
"414 628 OFFCURVE",
"413 627 CURVE SMOOTH",
"393 623 LINE SMOOTH",
"387 621 OFFCURVE",
"382 621 OFFCURVE",
"376 622 CURVE SMOOTH",
"356 627 LINE SMOOTH",
"354 628 OFFCURVE",
"354 626 OFFCURVE",
"355 625 CURVE SMOOTH"
);
},
{
closed = 1;
nodes = (
"438 616 OFFCURVE",
"434 617 OFFCURVE",
"433 615 CURVE SMOOTH",
"410 538 LINE SMOOTH",
"407 525 OFFCURVE",
"407 512 OFFCURVE",
"410 500 CURVE SMOOTH",
"433 425 LINE SMOOTH",
"434 422 OFFCURVE",
"438 422 OFFCURVE",
"437 425 CURVE SMOOTH",
"428 511 LINE SMOOTH",
"427 516 OFFCURVE",
"427 521 OFFCURVE",
"428 526 CURVE SMOOTH",
"437 613 LINE SMOOTH"
);
},
{
closed = 1;
nodes = (
"160 628 LINE SMOOTH",
"159 628 OFFCURVE",
"158 626 OFFCURVE",
"159 626 CURVE SMOOTH",
"170 619 LINE SMOOTH",
"181 611 OFFCURVE",
"197 611 OFFCURVE",
"208 620 CURVE SMOOTH",
"218 626 LINE SMOOTH",
"219 626 OFFCURVE",
"219 628 OFFCURVE",
"217 628 CURVE SMOOTH",
"198 623 LINE SMOOTH",
"192 621 OFFCURVE",
"186 621 OFFCURVE",
"180 623 CURVE SMOOTH"
);
},
{
closed = 1;
nodes = (
"414 636 LINE SMOOTH",
"433 636 OFFCURVE",
"447 621 OFFCURVE",
"447 602 CURVE SMOOTH",
"447 568 LINE SMOOTH",
"447 565 OFFCURVE",
"451 565 OFFCURVE",
"451 567 CURVE SMOOTH",
"463 608 LINE SMOOTH",
"470 632 OFFCURVE",
"450 654 OFFCURVE",
"425 650 CURVE SMOOTH",
"376 641 LINE SMOOTH",
"373 640 OFFCURVE",
"374 636 OFFCURVE",
"376 636 CURVE SMOOTH"
);
},
{
closed = 1;
nodes = (
"270 554 OFFCURVE",
"277 561 OFFCURVE",
"277 569 CURVE SMOOTH",
"277 576 OFFCURVE",
"272 582 OFFCURVE",
"264 584 CURVE",
"268 590 OFFCURVE",
"274 594 OFFCURVE",
"282 594 CURVE SMOOTH",
"296 594 OFFCURVE",
"306 582 OFFCURVE",
"306 566 CURVE",
"306 532 OFFCURVE",
"277 545 OFFCURVE",
"277 491 CURVE",
"288 491 LINE",
"288 533 OFFCURVE",
"328 528 OFFCURVE",
"328 566 CURVE SMOOTH",
"328 588 OFFCURVE",
"310 604 OFFCURVE",
"284 604 CURVE SMOOTH",
"262 604 OFFCURVE",
"246 590 OFFCURVE",
"246 572 CURVE SMOOTH",
"246 562 OFFCURVE",
"252 555 OFFCURVE",
"262 555 CURVE SMOOTH"
);
},
{
closed = 1;
nodes = (
"392 427 OFFCURVE",
"376 427 OFFCURVE",
"365 419 CURVE SMOOTH",
"355 413 LINE SMOOTH",
"354 411 OFFCURVE",
"354 410 OFFCURVE",
"356 410 CURVE SMOOTH",
"375 415 LINE SMOOTH",
"381 416 OFFCURVE",
"387 416 OFFCURVE",
"393 415 CURVE SMOOTH",
"413 410 LINE SMOOTH",
"414 410 OFFCURVE",
"415 411 OFFCURVE",
"414 413 CURVE SMOOTH",
"403 419 LINE SMOOTH"
);
},
{
closed = 1;
nodes = (
"180 415 LINE SMOOTH",
"186 417 OFFCURVE",
"191 417 OFFCURVE",
"197 415 CURVE SMOOTH",
"217 410 LINE SMOOTH",
"219 410 OFFCURVE",
"219 412 OFFCURVE",
"218 413 CURVE SMOOTH",
"208 419 LINE SMOOTH",
"196 427 OFFCURVE",
"181 427 OFFCURVE",
"169 419 CURVE SMOOTH",
"159 413 LINE SMOOTH",
"158 412 OFFCURVE",
"159 410 OFFCURVE",
"160 410 CURVE SMOOTH"
);
},
{
closed = 1;
nodes = (
"272 455 OFFCURVE",
"276 450 OFFCURVE",
"283 450 CURVE SMOOTH",
"290 450 OFFCURVE",
"293 455 OFFCURVE",
"293 462 CURVE SMOOTH",
"293 470 OFFCURVE",
"290 475 OFFCURVE",
"283 475 CURVE SMOOTH",
"276 475 OFFCURVE",
"272 470 OFFCURVE",
"272 462 CURVE SMOOTH"
);
},
{
closed = 1;
nodes = (
"135 422 OFFCURVE",
"138 422 OFFCURVE",
"140 425 CURVE SMOOTH",
"163 501 LINE SMOOTH",
"166 513 OFFCURVE",
"166 526 OFFCURVE",
"163 538 CURVE SMOOTH",
"140 615 LINE SMOOTH",
"138 617 OFFCURVE",
"135 616 OFFCURVE",
"135 613 CURVE SMOOTH",
"145 527 LINE SMOOTH",
"146 522 OFFCURVE",
"146 517 OFFCURVE",
"145 512 CURVE SMOOTH",
"135 425 LINE SMOOTH"
);
},
{
closed = 1;
nodes = (
"159 402 LINE SMOOTH",
"140 402 OFFCURVE",
"125 417 OFFCURVE",
"125 436 CURVE SMOOTH",
"125 470 LINE SMOOTH",
"125 473 OFFCURVE",
"121 473 OFFCURVE",
"121 471 CURVE SMOOTH",
"109 430 LINE SMOOTH",
"102 406 OFFCURVE",
"122 383 OFFCURVE",
"148 388 CURVE SMOOTH",
"197 398 LINE SMOOTH",
"200 398 OFFCURVE",
"199 402 OFFCURVE",
"197 402 CURVE SMOOTH"
);
},
{
closed = 1;
nodes = (
"524 40 LINE",
"48 40 LINE",
"48 710 LINE",
"524 710 LINE"
);
},
{
closed = 1;
nodes = (
"57 330 LINE",
"57 48 LINE",
"515 48 LINE",
"515 330 LINE"
);
},
{
closed = 1;
nodes = (
"515 701 LINE",
"57 701 LINE",
"57 339 LINE",
"515 339 LINE"
);
}
);
width = 572;
}
);
},
{
color = (67,219,95,255);
glyphname = A;
layers = (
{
layerId = master01;
paths = (
{
closed = 1;
nodes = (
"354 179 LINE",
"354 219 LINE",
"111 219 LINE",
"111 179 LINE"
);
},
{
closed = 1;
nodes = (
"224 617 LINE",
"190 617 LINE",
"303 78 LINE SMOOTH",
"309 49 OFFCURVE",
"291 37 OFFCURVE",
"243 37 CURVE",
"243 0 LINE",
"475 0 LINE",
"475 37 LINE",
"435 37 OFFCURVE",
"422 46 OFFCURVE",
"415 79 CURVE SMOOTH",
"260 764 LINE",
"212 764 LINE",
"62 81 LINE SMOOTH",
"55 49 OFFCURVE",
"38 37 OFFCURVE",
"0 37 CURVE",
"0 0 LINE",
"167 0 LINE",
"167 37 LINE",
"123 37 OFFCURVE",
"101 53 OFFCURVE",
"107 81 CURVE"
);
}
);
width = 478;
},
{
associatedMasterId = master01;
layerId = "ECFDC823-27FE-4178-959A-9A4D92BBADAB";
name = foreground;
paths = (
{
closed = 1;
nodes = (
"354 179 LINE",
"354 219 LINE",
"111 219 LINE",
"111 179 LINE"
);
},
{
closed = 1;
nodes = (
"224 617 LINE",
"190 617 LINE",
"303 78 LINE SMOOTH",
"309 49 OFFCURVE",
"291 37 OFFCURVE",
"243 37 CURVE",
"243 0 LINE",
"475 0 LINE",
"475 37 LINE",
"435 37 OFFCURVE",
"422 46 OFFCURVE",
"415 79 CURVE SMOOTH",
"260 764 LINE",
"212 764 LINE",
"62 81 LINE SMOOTH",
"55 49 OFFCURVE",
"38 37 OFFCURVE",
"0 37 CURVE",
"0 0 LINE",
"167 0 LINE",
"167 37 LINE",
"123 37 OFFCURVE",
"101 53 OFFCURVE",
"107 81 CURVE"
);
}
);
width = 478;
}
);
leftKerningGroup = "UnderLeft-Capitals";
rightKerningGroup = "UnderRight-Capitals";
unicode = 0041;
},
{
color = (67,219,95,255);
glyphname = B;
layers = (
{
components = (
{
name = smallcomponent_top_half_serif;
transform = "{1, 0, 0, 1, -10, 210}";
},
{
name = smallcomponents_btm_half_serif;
transform = "{1, 0, 0, 1, -10, 0}";
}
);
layerId = master01;
paths = (
{
closed = 1;
nodes = (
"198 11 LINE",
"198 739 LINE",
"86 739 LINE",
"86 11 LINE"
);
},
{
closed = 1;
nodes = (
"282 0 LINE SMOOTH",
"410 0 OFFCURVE",
"470 68 OFFCURVE",
"470 213 CURVE",
"470 316 OFFCURVE",
"432 374 OFFCURVE",
"342 412 CURVE",
"343 388 LINE",
"421 425 OFFCURVE",
"447 469 OFFCURVE",
"447 563 CURVE",
"447 684 OFFCURVE",
"382 750 OFFCURVE",
"262 750 CURVE SMOOTH",
"86 750 LINE",
"86 670 LINE",
"198 670 LINE",
"198 710 LINE",
"262 710 LINE SMOOTH",
"307 710 OFFCURVE",
"335 673 OFFCURVE",
"335 614 CURVE SMOOTH",
"335 513 LINE SMOOTH",
"335 454 OFFCURVE",
"306 415 OFFCURVE",
"262 415 CURVE SMOOTH",
"239 415 LINE",
"239 375 LINE",
"282 375 LINE SMOOTH",
"326 375 OFFCURVE",
"355 336 OFFCURVE",
"355 277 CURVE SMOOTH",
"355 136 LINE SMOOTH",
"355 78 OFFCURVE",
"326 40 OFFCURVE",
"282 40 CURVE SMOOTH",
"198 40 LINE",
"198 79 LINE",
"86 79 LINE",
"86 0 LINE"
);
}
);
width = 494;
},
{
associatedMasterId = master01;
components = (
{
name = smallcomponent_top_half_serif;
transform = "{1, 0, 0, 1, -10, 210}";
},
{
name = smallcomponents_btm_half_serif;
transform = "{1, 0, 0, 1, -10, 0}";
}
);
layerId = "0DD084D3-1037-475F-A977-821899D976DE";
name = foreground;
paths = (
{
closed = 1;
nodes = (
"198 11 LINE",
"198 739 LINE",
"86 739 LINE",
"86 11 LINE"
);
},
{
closed = 1;
nodes = (
"282 0 LINE SMOOTH",
"410 0 OFFCURVE",
"470 68 OFFCURVE",
"470 213 CURVE",
"470 316 OFFCURVE",
"432 374 OFFCURVE",
"342 412 CURVE",
"343 388 LINE",
"421 425 OFFCURVE",
"447 469 OFFCURVE",
"447 563 CURVE",
"447 684 OFFCURVE",
"382 750 OFFCURVE",
"262 750 CURVE SMOOTH",
"86 750 LINE",
"86 670 LINE",
"198 670 LINE",
"198 710 LINE",
"262 710 LINE SMOOTH",
"307 710 OFFCURVE",
"335 673 OFFCURVE",
"335 614 CURVE SMOOTH",
"335 513 LINE SMOOTH",
"335 454 OFFCURVE",
"306 415 OFFCURVE",
"262 415 CURVE SMOOTH",
"239 415 LINE",
"239 375 LINE",
"282 375 LINE SMOOTH",
"326 375 OFFCURVE",
"355 336 OFFCURVE",
"355 277 CURVE SMOOTH",
"355 136 LINE SMOOTH",
"355 78 OFFCURVE",
"326 40 OFFCURVE",
"282 40 CURVE SMOOTH",
"198 40 LINE",
"198 79 LINE",
"86 79 LINE",
"86 0 LINE"
);
}
);
width = 494;
}
);
unicode = 0042;
},
{
color = (67,219,95,255);
glyphname = C;
layers = (
{
guideLines = (
{
angle = 90;
position = "{402, 178}";
}
);
layerId = master01;
paths = (
{
closed = 1;
nodes = (
"111 760 OFFCURVE",
"43 686 OFFCURVE",
"43 546 CURVE SMOOTH",
"43 204 LINE SMOOTH",
"43 71 OFFCURVE",
"111.883 -10 OFFCURVE",
"228 -10 CURVE",
"340 -10 OFFCURVE",
"393 59 OFFCURVE",
"393 204 CURVE SMOOTH",
"393 205 LINE",
"350 205 LINE",
"350 189 LINE SMOOTH",
"350 97 OFFCURVE",
"308 37 OFFCURVE",
"245 37 CURVE",
"192.841 37 OFFCURVE",
"155 78 OFFCURVE",
"155 136 CURVE SMOOTH",
"155 614 LINE SMOOTH",
"155 674 OFFCURVE",
"196 720 OFFCURVE",
"250 720 CURVE",
"303 720 OFFCURVE",
"324 697 OFFCURVE",
"363 598 CURVE",
"397 607 LINE",
"353 788 LINE",
"319 788 LINE",
"308 766 OFFCURVE",
"291 760 OFFCURVE",
"241 760 CURVE"
);
}
);
width = 426;
},
{
associatedMasterId = master01;
guideLines = (
{
angle = 90;
position = "{402, 178}";
}
);
layerId = "10AC79B1-4E34-4D44-9915-E8A14353438F";
name = foreground;
paths = (
{
closed = 1;
nodes = (
"111 760 OFFCURVE",
"43 686 OFFCURVE",
"43 546 CURVE SMOOTH",
"43 204 LINE SMOOTH",
"43 71 OFFCURVE",
"111.883 -10 OFFCURVE",
"228 -10 CURVE",
"340 -10 OFFCURVE",
"393 59 OFFCURVE",
"393 204 CURVE SMOOTH",
"393 205 LINE",
"350 205 LINE",
"350 189 LINE SMOOTH",
"350 97 OFFCURVE",
"308 37 OFFCURVE",
"245 37 CURVE",
"192.841 37 OFFCURVE",
"155 78 OFFCURVE",
"155 136 CURVE SMOOTH",
"155 614 LINE SMOOTH",
"155 674 OFFCURVE",
"196 720 OFFCURVE",
"250 720 CURVE",
"303 720 OFFCURVE",
"324 697 OFFCURVE",
"363 598 CURVE",
"397 607 LINE",
"353 788 LINE",
"319 788 LINE",
"308 766 OFFCURVE",
"291 760 OFFCURVE",
"241 760 CURVE"
);
}
);
width = 426;
}
);
unicode = 0043;
},
{
color = (67,219,95,255);
glyphname = D;
layers = (
{
components = (
{
name = smallcomponent_top_half_serif;
transform = "{1, 0, 0, 1, -12, 210}";
},
{
name = smallcomponents_btm_half_serif;
transform = "{1, 0, 0, 1, -12, 0}";
}
);
layerId = master01;
paths = (
{
closed = 1;
nodes = (
"196 11 LINE",
"196 739 LINE",
"84 739 LINE",
"84 11 LINE"
);
},
{
closed = 1;
nodes = (
"262 0 LINE SMOOTH",
"386 0 OFFCURVE",
"447 71 OFFCURVE",
"447 214 CURVE SMOOTH",
"447 536 LINE SMOOTH",
"447 679 OFFCURVE",
"386 750 OFFCURVE",
"262 750 CURVE SMOOTH",
"84 750 LINE",
"84 670 LINE",
"196 670 LINE",
"196 710 LINE",
"262 710 LINE SMOOTH",
"307 710 OFFCURVE",
"337 672 OFFCURVE",
"337 614 CURVE SMOOTH",
"337 136 LINE SMOOTH",
"337 78 OFFCURVE",
"307 40 OFFCURVE",
"262 40 CURVE SMOOTH",
"196 40 LINE",
"196 80 LINE",
"84 80 LINE",
"84 0 LINE"
);
}
);
width = 494;
},
{
associatedMasterId = master01;
components = (
{
name = smallcomponent_top_half_serif;
transform = "{1, 0, 0, 1, -12, 210}";
},
{
name = smallcomponents_btm_half_serif;
transform = "{1, 0, 0, 1, -12, 0}";
}
);
layerId = "0FE83A56-449F-4F76-AE2B-54A6821E49BE";
name = foreground;
paths = (
{
closed = 1;
nodes = (
"196 11 LINE",
"196 739 LINE",
"84 739 LINE",
"84 11 LINE"
);
},
{
closed = 1;
nodes = (
"262 0 LINE SMOOTH",
"386 0 OFFCURVE",
"447 71 OFFCURVE",
"447 214 CURVE SMOOTH",
"447 536 LINE SMOOTH",
"447 679 OFFCURVE",
"386 750 OFFCURVE",
"262 750 CURVE SMOOTH",
"84 750 LINE",
"84 670 LINE",
"196 670 LINE",
"196 710 LINE",
"262 710 LINE SMOOTH",
"307 710 OFFCURVE",
"337 672 OFFCURVE",
"337 614 CURVE SMOOTH",
"337 136 LINE SMOOTH",
"337 78 OFFCURVE",
"307 40 OFFCURVE",
"262 40 CURVE SMOOTH",
"196 40 LINE",
"196 80 LINE",
"84 80 LINE",
"84 0 LINE"
);
}
);
width = 494;
}
);
unicode = 0044;
},
{
color = (67,219,95,255);
glyphname = E;
layers = (
{
components = (
{
name = smallcomponent_top_half_serif;
transform = "{1, 0, 0, 1, -6, 210}";
},
{
name = smallcomponents_btm_half_serif;
transform = "{1, 0, 0, 1, -6, 0}";
}
);
layerId = master01;
paths = (
{
closed = 1;
nodes = (
"202 11 LINE",
"202 739 LINE",
"90 739 LINE",
"90 11 LINE"
);
},
{
closed = 1;
nodes = (
"228 375 LINE SMOOTH",
"276 375 OFFCURVE",
"297 353 OFFCURVE",
"297 303 CURVE",
"334 303 LINE",
"334 487 LINE",
"297 487 LINE",
"297 439 OFFCURVE",
"274 415 OFFCURVE",
"228 415 CURVE SMOOTH",
"131 415 LINE",
"131 375 LINE"
);
},
{
closed = 1;
nodes = (
"363 0 LINE SMOOTH",
"408 0 OFFCURVE",
"426 -8 OFFCURVE",
"432 -31 CURVE",
"469 -31 LINE",
"469 171 LINE",
"434 171 LINE",
"421 62 OFFCURVE",
"400 40 OFFCURVE",
"310 40 CURVE SMOOTH",
"202 40 LINE",
"202 80 LINE",
"90 80 LINE",
"90 0 LINE"
);
},
{
closed = 1;
nodes = (
"202 670 LINE",
"202 710 LINE",
"269 710 LINE SMOOTH",
"359 710 OFFCURVE",
"381 693 OFFCURVE",
"415 598 CURVE",
"449 607 LINE",
"405 788 LINE",
"371 788 LINE",
"367 760 OFFCURVE",
"355 750 OFFCURVE",
"325 750 CURVE SMOOTH",
"90 750 LINE",
"90 670 LINE"
);
}
);
width = 483;
},
{
associatedMasterId = master01;
components = (
{
name = smallcomponent_top_half_serif;
transform = "{1, 0, 0, 1, -6, 210}";
},
{
name = smallcomponents_btm_half_serif;
transform = "{1, 0, 0, 1, -6, 0}";
}
);
layerId = "5617C6E3-FD08-44B9-91DB-D3D4251A09EE";
name = foreground;
paths = (
{
closed = 1;
nodes = (
"202 11 LINE",
"202 739 LINE",
"90 739 LINE",
"90 11 LINE"
);
},
{
closed = 1;
nodes = (
"228 375 LINE SMOOTH",
"276 375 OFFCURVE",
"297 353 OFFCURVE",
"297 303 CURVE",
"334 303 LINE",
"334 487 LINE",
"297 487 LINE",
"297 439 OFFCURVE",
"274 415 OFFCURVE",
"228 415 CURVE SMOOTH",
"131 415 LINE",
"131 375 LINE"
);
},
{
closed = 1;
nodes = (
"363 0 LINE SMOOTH",
"408 0 OFFCURVE",
"426 -8 OFFCURVE",
"432 -31 CURVE",
"469 -31 LINE",
"469 171 LINE",
"434 171 LINE",
"421 62 OFFCURVE",
"400 40 OFFCURVE",
"310 40 CURVE SMOOTH",
"202 40 LINE",
"202 80 LINE",
"90 80 LINE",
"90 0 LINE"
);
},
{
closed = 1;
nodes = (
"202 670 LINE",
"202 710 LINE",
"269 710 LINE SMOOTH",
"359 710 OFFCURVE",
"381 693 OFFCURVE",
"415 598 CURVE",
"449 607 LINE",
"405 788 LINE",
"371 788 LINE",
"367 760 OFFCURVE",
"355 750 OFFCURVE",
"325 750 CURVE SMOOTH",
"90 750 LINE",
"90 670 LINE"
);
}
);
width = 483;
}
);
unicode = 0045;
},
{
color = (67,219,95,255);
glyphname = F;
layers = (
{
components = (
{
name = component_bottom_serif;
transform = "{1, 0, 0, 1, -6, 0}";
}
);
layerId = master01;
paths = (
{
closed = 1;
nodes = (
"202 11 LINE",
"202 739 LINE",
"90 739 LINE",
"90 11 LINE"
);
},
{
closed = 1;
nodes = (
"228 355 LINE SMOOTH",
"276 355 OFFCURVE",
"297 333 OFFCURVE",
"297 283 CURVE",
"334 283 LINE",
"334 467 LINE",
"297 467 LINE",
"297 419 OFFCURVE",
"274 395 OFFCURVE",
"228 395 CURVE SMOOTH",
"131 395 LINE",
"131 355 LINE"
);
},
{
closed = 1;
nodes = (
"359 710 OFFCURVE",
"381 693 OFFCURVE",
"415 598 CURVE",
"449 607 LINE",
"405 788 LINE",
"371 788 LINE",
"367 760 OFFCURVE",
"355 750 OFFCURVE",
"325 750 CURVE SMOOTH",
"30 750 LINE",
"30 713 LINE",
"77 713 OFFCURVE",
"90 704 OFFCURVE",
"90 670 CURVE",
"202 670 LINE",
"202 710 LINE",
"269 710 LINE SMOOTH"
);
}
);
width = 475;
},
{
associatedMasterId = master01;
components = (
{
name = component_bottom_serif;
transform = "{1, 0, 0, 1, -6, 0}";
}
);
layerId = "33413167-5910-43BA-82F2-ACF41AF5F8A6";
name = foreground;
paths = (
{
closed = 1;
nodes = (
"202 11 LINE",
"202 739 LINE",
"90 739 LINE",
"90 11 LINE"
);
},
{
closed = 1;
nodes = (
"228 355 LINE SMOOTH",
"276 355 OFFCURVE",
"297 333 OFFCURVE",
"297 283 CURVE",
"334 283 LINE",
"334 467 LINE",
"297 467 LINE",
"297 419 OFFCURVE",
"274 395 OFFCURVE",
"228 395 CURVE SMOOTH",
"131 395 LINE",
"131 355 LINE"
);
},
{
closed = 1;
nodes = (
"359 710 OFFCURVE",
"381 693 OFFCURVE",
"415 598 CURVE",
"449 607 LINE",
"405 788 LINE",
"371 788 LINE",
"367 760 OFFCURVE",
"355 750 OFFCURVE",
"325 750 CURVE SMOOTH",
"30 750 LINE",
"30 713 LINE",
"77 713 OFFCURVE",
"90 704 OFFCURVE",
"90 670 CURVE",
"202 670 LINE",
"202 710 LINE",
"269 710 LINE SMOOTH"
);
}
);
width = 475;
}
);
rightKerningGroup = "OverRight-Capitals";
unicode = 0046;
},
{
color = (67,219,95,255);
glyphname = G;
layers = (
{
layerId = master01;
paths = (
{
closed = 1;
nodes = (
"306 720 OFFCURVE",
"327 697 OFFCURVE",
"366 598 CURVE",
"400 607 LINE",
"356 788 LINE",
"322 788 LINE",
"311 766 OFFCURVE",
"294 760 OFFCURVE",
"244 760 CURVE",
"115 760 OFFCURVE",
"45 684 OFFCURVE",
"45 546 CURVE SMOOTH",
"45 204 LINE SMOOTH",
"45 63 OFFCURVE",
"107 -10 OFFCURVE",
"229 -10 CURVE",
"287 -10 OFFCURVE",
"332 6 OFFCURVE",
"362 37 CURVE",
"390 0 LINE",
"413 0 LINE",
"413 341 LINE SMOOTH",
"413 363 OFFCURVE",
"424 376 OFFCURVE",
"443 376 CURVE",
"443 413 LINE",
"235 413 LINE",
"235 376 LINE",
"281 376 OFFCURVE",
"306 357 OFFCURVE",
"306 323 CURVE SMOOTH",
"306 126 LINE SMOOTH",
"306 68 OFFCURVE",
"276 30 OFFCURVE",
"230 30 CURVE",
"185 30 OFFCURVE",
"157 67 OFFCURVE",
"157 126 CURVE SMOOTH",
"157 614 LINE SMOOTH",
"157 672 OFFCURVE",
"201 720 OFFCURVE",
"253 720 CURVE"
);
}
);
width = 459;
},
{
associatedMasterId = master01;
layerId = "3B706348-0B62-4F89-91F7-C3DFE239FF44";
name = foreground;
paths = (
{
closed = 1;
nodes = (
"306 720 OFFCURVE",
"327 697 OFFCURVE",
"366 598 CURVE",
"400 607 LINE",
"356 788 LINE",
"322 788 LINE",
"311 766 OFFCURVE",
"294 760 OFFCURVE",
"244 760 CURVE",
"115 760 OFFCURVE",
"45 684 OFFCURVE",
"45 546 CURVE SMOOTH",
"45 204 LINE SMOOTH",
"45 63 OFFCURVE",
"107 -10 OFFCURVE",
"229 -10 CURVE",
"287 -10 OFFCURVE",
"332 6 OFFCURVE",
"362 37 CURVE",
"390 0 LINE",
"413 0 LINE",
"413 341 LINE SMOOTH",
"413 363 OFFCURVE",
"424 376 OFFCURVE",
"443 376 CURVE",
"443 413 LINE",
"235 413 LINE",
"235 376 LINE",
"281 376 OFFCURVE",
"306 357 OFFCURVE",
"306 323 CURVE SMOOTH",
"306 126 LINE SMOOTH",
"306 68 OFFCURVE",
"276 30 OFFCURVE",
"230 30 CURVE",
"185 30 OFFCURVE",
"157 67 OFFCURVE",
"157 126 CURVE SMOOTH",
"157 614 LINE SMOOTH",
"157 672 OFFCURVE",
"201 720 OFFCURVE",
"253 720 CURVE"
);
}
);
width = 459;
}
);
unicode = 0047;
},
{
color = (67,219,95,255);
glyphname = H;
layers = (
{
components = (
{
name = smallcomponent_top_serif;
transform = "{1, 0, 0, 1, 265, 210}";
},
{
name = smallcomponent_bottom_serif;
transform = "{1, 0, 0, 1, 265, 0}";
},
{
name = component_top_serif;
transform = "{1, 0, 0, 1, -10, 0}";
}
);
layerId = master01;
paths = (
{
closed = 1;
nodes = (
"198 11 LINE",
"198 739 LINE",
"86 739 LINE",
"86 11 LINE"
);
},
{
closed = 1;
nodes = (
"471 11 LINE",
"471 739 LINE",
"361 739 LINE",
"361 11 LINE"
);
},
{
closed = 1;
nodes = (
"425 372 LINE",
"425 415 LINE",
"129 415 LINE",
"129 372 LINE"
);
},
{
closed = 1;
nodes = (
"86 48 OFFCURVE",
"71 37 OFFCURVE",
"26 37 CURVE",
"26 0 LINE",
"258 0 LINE",
"258 37 LINE",
"213 37 OFFCURVE",
"198 48 OFFCURVE",
"198 80 CURVE",
"86 80 LINE"
);
}
);
width = 548;
},
{
associatedMasterId = master01;
components = (
{
name = smallcomponent_top_serif;
transform = "{1, 0, 0, 1, 265, 210}";
},
{
name = smallcomponent_bottom_serif;
transform = "{1, 0, 0, 1, 265, 0}";
},
{
name = component_top_serif;
transform = "{1, 0, 0, 1, -10, 0}";
}
);
layerId = "2906D4C8-815B-49BB-B631-97C40FC4177F";
name = foreground;
paths = (
{
closed = 1;
nodes = (
"198 11 LINE",
"198 739 LINE",
"86 739 LINE",
"86 11 LINE"
);
},
{
closed = 1;
nodes = (
"471 11 LINE",
"471 739 LINE",
"361 739 LINE",
"361 11 LINE"
);
},
{
closed = 1;
nodes = (
"425 372 LINE",
"425 415 LINE",
"129 415 LINE",
"129 372 LINE"
);
},
{
closed = 1;
nodes = (
"86 48 OFFCURVE",
"71 37 OFFCURVE",
"26 37 CURVE",
"26 0 LINE",
"258 0 LINE",
"258 37 LINE",
"213 37 OFFCURVE",
"198 48 OFFCURVE",
"198 80 CURVE",
"86 80 LINE"
);
}
);
width = 548;
}
);
unicode = 0048;
},
{
color = (67,219,95,255);
glyphname = I;
layers = (
{
components = (
{
name = component_top_serif;
transform = "{1, 0, 0, 1, -6, 0}";
},
{
name = component_bottom_serif;
transform = "{1, 0, 0, 1, -6, 0}";
}
);
layerId = master01;
paths = (
{
closed = 1;
nodes = (
"202 11 LINE",
"202 739 LINE",
"90 739 LINE",
"90 11 LINE"
);
}
);
width = 292;
},
{
associatedMasterId = master01;
components = (
{
name = component_top_serif;
transform = "{1, 0, 0, 1, -6, 0}";
},
{
name = component_bottom_serif;
transform = "{1, 0, 0, 1, -6, 0}";
}
);
layerId = "E0CE986B-951F-4E13-81E8-F96FE16E2376";
name = foreground;
paths = (
{
closed = 1;
nodes = (
"202 11 LINE",
"202 739 LINE",
"90 739 LINE",
"90 11 LINE"
);
}
);
width = 292;
}
);
unicode = 0049;
},
{
color = (67,219,95,255);
glyphname = J;
layers = (
{
components = (
{
name = component_top_serif;
transform = "{1, 0, 0, 1, 170, 0}";
}
);
layerId = master01;
paths = (
{
closed = 1;
nodes = (
"266 176 LINE SMOOTH",
"266 85 OFFCURVE",
"229 30 OFFCURVE",
"168 30 CURVE",
"108 30 OFFCURVE",
"93 73 OFFCURVE",
"93 73 CURVE",
"93 73 OFFCURVE",
"170 77 OFFCURVE",
"170 146 CURVE SMOOTH",
"170 190 OFFCURVE",
"135 226 OFFCURVE",
"92 225 CURVE SMOOTH",
"47 224 OFFCURVE",
"12 185 OFFCURVE",
"12 136 CURVE",
"12 54 OFFCURVE",
"85 -10 OFFCURVE",
"180 -10 CURVE",
"309 -10 OFFCURVE",
"378 71 OFFCURVE",
"378 224 CURVE SMOOTH",
"378 742 LINE",
"266 742 LINE"
);
}
);
width = 454;
},
{
associatedMasterId = master01;
components = (
{
name = component_top_serif;
transform = "{1, 0, 0, 1, 170, 0}";
}
);
layerId = "DE3F547C-C981-4AB5-8833-DFB03F849285";
name = foreground;
paths = (
{
closed = 1;
nodes = (
"266 176 LINE SMOOTH",
"266 85 OFFCURVE",
"229 30 OFFCURVE",
"168 30 CURVE",
"108 30 OFFCURVE",
"93 73 OFFCURVE",
"93 73 CURVE",
"93 73 OFFCURVE",
"170 77 OFFCURVE",
"170 146 CURVE SMOOTH",
"170 190 OFFCURVE",
"135 226 OFFCURVE",
"92 225 CURVE SMOOTH",
"47 224 OFFCURVE",
"12 185 OFFCURVE",
"12 136 CURVE",
"12 54 OFFCURVE",
"85 -10 OFFCURVE",
"180 -10 CURVE",
"309 -10 OFFCURVE",
"378 71 OFFCURVE",
"378 224 CURVE SMOOTH",
"378 742 LINE",
"266 742 LINE"
);
}
);
width = 454;
}
);
unicode = 004A;
},
{
color = (255,188,0,255);
glyphname = J.alt_1;
layers = (
{
components = (
{
name = component_top_serif;
transform = "{1, 0, 0, 1, -6, 0}";
}
);
layerId = master01;
paths = (
{
closed = 1;
nodes = (
"133 -120 OFFCURVE",
"202 -39 OFFCURVE",
"202 114 CURVE SMOOTH",
"202 742 LINE",
"90 742 LINE",
"90 66 LINE SMOOTH",
"90 -27 OFFCURVE",
"54 -80 OFFCURVE",
"-8 -80 CURVE SMOOTH",
"-33 -80 LINE",
"-33 -120 LINE",
"4 -120 LINE SMOOTH"
);
}
);
width = 292;
},
{
associatedMasterId = master01;
components = (
{
name = component_top_serif;
transform = "{1, 0, 0, 1, -6, 0}";
}
);
layerId = "82E65163-1297-42AA-B77C-9321A5E864C9";
name = foreground;
paths = (
{
closed = 1;
nodes = (
"133 -120 OFFCURVE",
"202 -39 OFFCURVE",
"202 114 CURVE SMOOTH",
"202 742 LINE",
"90 742 LINE",
"90 66 LINE SMOOTH",
"90 -27 OFFCURVE",
"54 -80 OFFCURVE",
"-8 -80 CURVE SMOOTH",
"-33 -80 LINE",
"-33 -120 LINE",
"4 -120 LINE SMOOTH"
);
}
);
width = 292;
}
);
},
{
color = (67,219,95,255);
glyphname = K;
layers = (
{
components = (
{
name = component_top_serif;
transform = "{1, 0, 0, 1, -6, 0}";
},
{
name = component_bottom_serif;
transform = "{1, 0, 0, 1, -6, 0}";
}
);
guideLines = (
{
position = "{271, 716}";
}
);
layerId = master01;
paths = (
{
closed = 1;
nodes = (
"202 11 LINE",
"202 739 LINE",
"90 739 LINE",
"90 11 LINE"
);
},
{
closed = 1;
nodes = (
"418 669 LINE SMOOTH",
"433 702 OFFCURVE",
"451 713 OFFCURVE",
"491 713 CURVE",
"491 750 LINE",
"324 750 LINE",
"324 713 LINE",
"358 713 OFFCURVE",
"380 696 OFFCURVE",
"371 677 CURVE SMOOTH",
"242 395 LINE",
"242 355 LINE",
"269 355 LINE SMOOTH",
"315 355 OFFCURVE",
"350 312 OFFCURVE",
"350 255 CURVE SMOOTH",
"350 195 LINE SMOOTH",
"350 60 OFFCURVE",
"408 0 OFFCURVE",
"538 0 CURVE SMOOTH",
"549 0 LINE",
"549 37 LINE",
"538 37 LINE SMOOTH",
"494 37 OFFCURVE",
"465 75 OFFCURVE",
"465 133 CURVE SMOOTH",
"465 179 LINE SMOOTH",
"465 300 OFFCURVE",
"390 395 OFFCURVE",
"294 395 CURVE"
);
}
);
width = 528;
},
{
associatedMasterId = master01;
components = (
{
name = component_top_serif;
transform = "{1, 0, 0, 1, -6, 0}";
},
{
name = component_bottom_serif;
transform = "{1, 0, 0, 1, -6, 0}";
}
);
guideLines = (
{
position = "{271, 716}";
}
);
layerId = "6319E1A4-9648-4282-A646-112DD0651C6B";
name = foreground;
paths = (
{
closed = 1;
nodes = (
"202 11 LINE",
"202 739 LINE",
"90 739 LINE",
"90 11 LINE"
);
},
{
closed = 1;
nodes = (
"418 669 LINE SMOOTH",
"433 702 OFFCURVE",
"451 713 OFFCURVE",
"491 713 CURVE",
"491 750 LINE",
"324 750 LINE",
"324 713 LINE",
"358 713 OFFCURVE",
"380 696 OFFCURVE",
"371 677 CURVE SMOOTH",
"242 395 LINE",
"242 355 LINE",
"269 355 LINE SMOOTH",
"315 355 OFFCURVE",
"350 312 OFFCURVE",
"350 255 CURVE SMOOTH",
"350 195 LINE SMOOTH",
"350 60 OFFCURVE",
"408 0 OFFCURVE",
"538 0 CURVE SMOOTH",
"549 0 LINE",
"549 37 LINE",
"538 37 LINE SMOOTH",
"494 37 OFFCURVE",
"465 75 OFFCURVE",
"465 133 CURVE SMOOTH",
"465 179 LINE SMOOTH",
"465 300 OFFCURVE",
"390 395 OFFCURVE",
"294 395 CURVE"
);
}
);
width = 528;
}
);
unicode = 004B;
},
{
color = (255,188,0,255);
glyphname = K.alt_1;
layers = (
{
components = (
{
name = component_bottom_serif;
transform = "{1, 0, 0, 1, -6, 1}";
},
{
name = component_top_serif;
transform = "{1, 0, 0, 1, -6, 0}";
}
);
layerId = master01;
paths = (
{
closed = 1;
nodes = (
"202 11 LINE",
"202 739 LINE",
"90 739 LINE",
"90 11 LINE"
);
},
{
closed = 1;
nodes = (
"356 395 LINE",
"294 395 LINE",
"418 669 LINE SMOOTH",
"432 701 OFFCURVE",
"452 713 OFFCURVE",
"491 713 CURVE",
"491 750 LINE",
"324 750 LINE",
"324 713 LINE",
"359 713 OFFCURVE",
"380 697 OFFCURVE",
"371 677 CURVE SMOOTH",
"242 395 LINE",
"380 81 LINE SMOOTH",
"392 53 OFFCURVE",
"373 38 OFFCURVE",
"326 38 CURVE",
"326 1 LINE",
"556 1 LINE",
"556 38 LINE",
"525 38 OFFCURVE",
"504 52 OFFCURVE",
"492 81 CURVE SMOOTH"
);
}
);
width = 542;
},
{
associatedMasterId = master01;
components = (
{
name = component_bottom_serif;
transform = "{1, 0, 0, 1, -6, 1}";
},
{
name = component_top_serif;
transform = "{1, 0, 0, 1, -6, 0}";
}
);
layerId = "A4D929AB-EF1A-4808-8D01-59098DDE5CA1";
name = foreground;
paths = (
{
closed = 1;
nodes = (
"202 11 LINE",
"202 739 LINE",
"90 739 LINE",
"90 11 LINE"
);
},
{
closed = 1;
nodes = (
"356 395 LINE",
"294 395 LINE",
"418 669 LINE SMOOTH",
"432 701 OFFCURVE",
"452 713 OFFCURVE",
"491 713 CURVE",
"491 750 LINE",
"324 750 LINE",
"324 713 LINE",
"359 713 OFFCURVE",
"380 697 OFFCURVE",
"371 677 CURVE SMOOTH",
"242 395 LINE",
"380 81 LINE SMOOTH",
"392 53 OFFCURVE",
"373 38 OFFCURVE",
"326 38 CURVE",
"326 1 LINE",
"556 1 LINE",
"556 38 LINE",
"525 38 OFFCURVE",
"504 52 OFFCURVE",
"492 81 CURVE SMOOTH"
);
}
);
width = 542;
}
);
},
{
color = (67,219,95,255);
glyphname = L;
layers = (
{
components = (
{
name = component_top_serif;
transform = "{1, 0, 0, 1, -6, 0}";
},
{
name = smallcomponents_btm_half_serif;
transform = "{1, 0, 0, 1, -6, 0}";
}
);
layerId = master01;
paths = (
{
closed = 1;
nodes = (
"202 11 LINE",
"202 739 LINE",
"90 739 LINE",
"90 11 LINE"
);
},
{
closed = 1;
nodes = (
"331 0 LINE SMOOTH",
"376 0 OFFCURVE",
"394 -8 OFFCURVE",
"400 -31 CURVE",
"437 -31 LINE",
"437 171 LINE",
"402 171 LINE",
"389 62 OFFCURVE",
"368 40 OFFCURVE",
"278 40 CURVE SMOOTH",
"202 40 LINE",
"202 80 LINE",
"90 80 LINE",
"90 0 LINE"
);
}
);
width = 449;
},
{
associatedMasterId = master01;
components = (
{
name = component_top_serif;
transform = "{1, 0, 0, 1, -6, 0}";
},
{
name = smallcomponents_btm_half_serif;
transform = "{1, 0, 0, 1, -6, 0}";
}
);
layerId = "A934BE8B-467F-45B2-B475-C65DC457A50F";
name = foreground;
paths = (
{
closed = 1;
nodes = (
"202 11 LINE",
"202 739 LINE",
"90 739 LINE",
"90 11 LINE"
);
},
{
closed = 1;
nodes = (
"331 0 LINE SMOOTH",
"376 0 OFFCURVE",
"394 -8 OFFCURVE",
"400 -31 CURVE",
"437 -31 LINE",
"437 171 LINE",
"402 171 LINE",
"389 62 OFFCURVE",
"368 40 OFFCURVE",
"278 40 CURVE SMOOTH",
"202 40 LINE",
"202 80 LINE",
"90 80 LINE",
"90 0 LINE"
);
}
);
width = 449;
}
);
unicode = 004C;
},
{
color = (67,219,95,255);
glyphname = M;
layers = (
{
components = (
{
name = smallcomponent_bottom_serif;
transform = "{1, 0, 0, 1, 440, 0}";
},
{
name = smallcomponent_top_half_serif;
transform = "{1, 0, 0, 1, -6, 210}";
}
);
guideLines = (
{
angle = 90;
position = "{720, 546}";
}
);
layerId = master01;
paths = (
{
closed = 1;
nodes = (
"351 107 LINE",
"380 178 LINE",
"227 750 LINE",
"90 750 LINE",
"90 11 LINE",
"137 11 LINE",
"137 710 LINE",
"117 710 LINE",
"322 0 LINE",
"368 0 LINE",
"547 697 LINE",
"536 697 LINE",
"536 11 LINE",
"646 11 LINE",
"646 750 LINE",
"514 750 LINE"
);
},
{
closed = 1;
nodes = (
"646 702 OFFCURVE",
"661 713 OFFCURVE",
"706 713 CURVE",
"706 750 LINE",
"589 750 LINE",
"589 670 LINE",
"646 670 LINE"
);
},
{
closed = 1;
nodes = (
"30 0 LINE",
"197 0 LINE",
"197 37 LINE",
"154 37 OFFCURVE",
"137 49 OFFCURVE",
"137 80 CURVE",
"90 80 LINE",
"90 49 OFFCURVE",
"73 37 OFFCURVE",
"30 37 CURVE"
);
}
);
width = 736;
},
{
associatedMasterId = master01;
components = (
{
name = smallcomponent_bottom_serif;
transform = "{1, 0, 0, 1, 440, 0}";
},
{
name = smallcomponent_top_half_serif;
transform = "{1, 0, 0, 1, -6, 210}";
}
);
guideLines = (
{
angle = 90;
position = "{720, 546}";
}
);
layerId = "D06C7B84-0CAA-4428-BE4A-DEF249A91A47";
name = foreground;
paths = (
{
closed = 1;
nodes = (
"351 107 LINE",
"380 178 LINE",
"227 750 LINE",
"90 750 LINE",
"90 11 LINE",
"137 11 LINE",
"137 710 LINE",
"117 710 LINE",
"322 0 LINE",
"368 0 LINE",
"547 697 LINE",
"536 697 LINE",
"536 11 LINE",
"646 11 LINE",
"646 750 LINE",
"514 750 LINE"
);
},
{
closed = 1;
nodes = (
"646 702 OFFCURVE",
"661 713 OFFCURVE",
"706 713 CURVE",
"706 750 LINE",
"589 750 LINE",
"589 670 LINE",
"646 670 LINE"
);
},
{
closed = 1;
nodes = (
"30 0 LINE",
"197 0 LINE",
"197 37 LINE",
"154 37 OFFCURVE",
"137 49 OFFCURVE",
"137 80 CURVE",
"90 80 LINE",
"90 49 OFFCURVE",
"73 37 OFFCURVE",
"30 37 CURVE"
);
}
);
width = 736;
}
);
unicode = 004D;
},
{
color = (67,219,95,255);
glyphname = N;
layers = (
{
components = (
{
name = smallcomponent_top_half_serif;
transform = "{1, 0, 0, 1, -27, 210}";
}
);
layerId = master01;
paths = (
{
closed = 1;
nodes = (
"116 11 LINE",
"116 689 LINE",
"90 689 LINE",
"394 0 LINE",
"443 0 LINE",
"443 739 LINE",
"396 739 LINE",
"396 209 LINE",
"426 209 LINE",
"185 750 LINE",
"69 750 LINE",
"69 11 LINE"
);
},
{
closed = 1;
nodes = (
"9 0 LINE",
"176 0 LINE",
"176 37 LINE",
"133 37 OFFCURVE",
"116 49 OFFCURVE",
"116 80 CURVE",
"69 80 LINE",
"69 49 OFFCURVE",
"52 37 OFFCURVE",
"9 37 CURVE"
);
},
{
closed = 1;
nodes = (
"379 713 OFFCURVE",
"396 701 OFFCURVE",
"396 670 CURVE",
"443 670 LINE",
"443 701 OFFCURVE",
"460 713 OFFCURVE",
"503 713 CURVE",
"503 750 LINE",
"336 750 LINE",
"336 713 LINE"
);
}
);
width = 512;
},
{
associatedMasterId = master01;
components = (
{
name = smallcomponent_top_half_serif;
transform = "{1, 0, 0, 1, -27, 210}";
}
);
layerId = "AE0A0874-9565-4185-9EF9-48C4868CD1B2";
name = foreground;
paths = (
{
closed = 1;
nodes = (
"116 11 LINE",
"116 689 LINE",
"90 689 LINE",
"394 0 LINE",
"443 0 LINE",
"443 739 LINE",
"396 739 LINE",
"396 209 LINE",
"426 209 LINE",
"185 750 LINE",
"69 750 LINE",
"69 11 LINE"
);
},
{
closed = 1;
nodes = (
"9 0 LINE",
"176 0 LINE",
"176 37 LINE",
"133 37 OFFCURVE",
"116 49 OFFCURVE",
"116 80 CURVE",
"69 80 LINE",
"69 49 OFFCURVE",
"52 37 OFFCURVE",
"9 37 CURVE"
);
},
{
closed = 1;
nodes = (
"379 713 OFFCURVE",
"396 701 OFFCURVE",
"396 670 CURVE",
"443 670 LINE",
"443 701 OFFCURVE",
"460 713 OFFCURVE",
"503 713 CURVE",
"503 750 LINE",
"336 750 LINE",
"336 713 LINE"
);
}
);
width = 512;
}
);
unicode = 004E;
},
{
color = (67,219,95,255);
glyphname = O;
layers = (
{
layerId = master01;
paths = (
{
closed = 1;
nodes = (
"112.646 760 OFFCURVE",
"43 685 OFFCURVE",
"43 546 CURVE SMOOTH",
"43 204 LINE SMOOTH",
"43 66 OFFCURVE",
"113.641 -10 OFFCURVE",
"240 -10 CURVE",
"365.742 -10 OFFCURVE",
"433 64 OFFCURVE",
"433 204 CURVE SMOOTH",
"433 546 LINE SMOOTH",
"433 681 OFFCURVE",
"360.869 760 OFFCURVE",
"240 760 CURVE"
);
},
{
closed = 1;
nodes = (
"190.815 30 OFFCURVE",
"157 69 OFFCURVE",
"157 126 CURVE SMOOTH",
"157 624 LINE SMOOTH",
"157 679 OFFCURVE",
"192.864 720 OFFCURVE",
"240 720 CURVE",
"288 720 OFFCURVE",
"323 680 OFFCURVE",
"323 624 CURVE SMOOTH",
"323 126 LINE SMOOTH",
"323 70 OFFCURVE",
"288 30 OFFCURVE",
"240 30 CURVE"
);
}
);
width = 480;
},
{
associatedMasterId = master01;
layerId = "3B28343C-8B29-4C4F-A4FB-9FA678875E6A";
name = foreground;
paths = (
{
closed = 1;
nodes = (
"112.646 760 OFFCURVE",
"43 685 OFFCURVE",
"43 546 CURVE SMOOTH",
"43 204 LINE SMOOTH",
"43 66 OFFCURVE",
"113.641 -10 OFFCURVE",
"240 -10 CURVE",
"365.742 -10 OFFCURVE",
"433 64 OFFCURVE",
"433 204 CURVE SMOOTH",
"433 546 LINE SMOOTH",
"433 681 OFFCURVE",
"360.869 760 OFFCURVE",
"240 760 CURVE"
);
},
{
closed = 1;
nodes = (
"190.815 30 OFFCURVE",
"157 69 OFFCURVE",
"157 126 CURVE SMOOTH",
"157 624 LINE SMOOTH",
"157 679 OFFCURVE",
"192.864 720 OFFCURVE",
"240 720 CURVE",
"288 720 OFFCURVE",
"323 680 OFFCURVE",
"323 624 CURVE SMOOTH",
"323 126 LINE SMOOTH",
"323 70 OFFCURVE",
"288 30 OFFCURVE",
"240 30 CURVE"
);
}
);
width = 480;
}
);
unicode = 004F;
},
{
color = (67,219,95,255);
glyphname = P;
layers = (
{
components = (
{
name = component_bottom_serif;
transform = "{1, 0, 0, 1, -6, 0}";
},
{
name = smallcomponent_top_half_serif;
transform = "{1, 0, 0, 1, -6, 210}";
}
);
layerId = master01;
paths = (
{
closed = 1;
nodes = (
"202 11 LINE",
"202 739 LINE",
"90 739 LINE",
"90 11 LINE"
);
},
{
closed = 1;
nodes = (
"202 670 LINE",
"202 710 LINE",
"286 710 LINE SMOOTH",
"329 710 OFFCURVE",
"359 671 OFFCURVE",
"359 614 CURVE SMOOTH",
"359 400 LINE SMOOTH",
"359 341 OFFCURVE",
"330 302 OFFCURVE",
"286 302 CURVE SMOOTH",
"242 302 LINE",
"242 262 LINE",
"286 262 LINE SMOOTH",
"412 262 OFFCURVE",
"474 333 OFFCURVE",
"474 474 CURVE SMOOTH",
"474 537 LINE SMOOTH",
"474 679 OFFCURVE",
"412 750 OFFCURVE",
"286 750 CURVE SMOOTH",
"90 750 LINE",
"90 670 LINE"
);
}
);
width = 498;
},
{
associatedMasterId = master01;
components = (
{
name = component_bottom_serif;
transform = "{1, 0, 0, 1, -6, 0}";
},
{
name = smallcomponent_top_half_serif;
transform = "{1, 0, 0, 1, -6, 210}";
}
);
layerId = "F04F27EE-C347-424C-AF81-EA29B6343218";
name = foreground;
paths = (
{
closed = 1;
nodes = (
"202 11 LINE",
"202 739 LINE",
"90 739 LINE",
"90 11 LINE"
);
},
{
closed = 1;
nodes = (
"202 670 LINE",
"202 710 LINE",
"286 710 LINE SMOOTH",
"329 710 OFFCURVE",
"359 671 OFFCURVE",
"359 614 CURVE SMOOTH",
"359 400 LINE SMOOTH",
"359 341 OFFCURVE",
"330 302 OFFCURVE",
"286 302 CURVE SMOOTH",
"242 302 LINE",
"242 262 LINE",
"286 262 LINE SMOOTH",
"412 262 OFFCURVE",
"474 333 OFFCURVE",
"474 474 CURVE SMOOTH",
"474 537 LINE SMOOTH",
"474 679 OFFCURVE",
"412 750 OFFCURVE",
"286 750 CURVE SMOOTH",
"90 750 LINE",
"90 670 LINE"
);
}
);
width = 498;
}
);
rightKerningGroup = "OverRight-Capitals";
unicode = 0050;
},
{
color = (67,219,95,255);
glyphname = Q;
layers = (
{
layerId = master01;
paths = (
{
closed = 1;
nodes = (
"324 272 OFFCURVE",
"259 345 OFFCURVE",
"137 345 CURVE SMOOTH",
"137 345 LINE",
"137 306 LINE",
"156 306 LINE SMOOTH",
"200 306 OFFCURVE",
"229 268 OFFCURVE",
"229 209 CURVE SMOOTH",
"229 195 LINE SMOOTH",
"229 54 OFFCURVE",
"283 0 OFFCURVE",
"417 0 CURVE SMOOTH",
"418 0 LINE",
"418 39 LINE",
"397 39 LINE SMOOTH",
"354 39 OFFCURVE",
"324 75 OFFCURVE",
"324 131 CURVE"
);
},
{
closed = 1;
nodes = (
"113 760 OFFCURVE",
"43 685 OFFCURVE",
"43 546 CURVE SMOOTH",
"43 264 LINE SMOOTH",
"43 126 OFFCURVE",
"114 50 OFFCURVE",
"240 50 CURVE",
"366 50 OFFCURVE",
"433 124 OFFCURVE",
"433 264 CURVE SMOOTH",
"433 546 LINE SMOOTH",
"433 681 OFFCURVE",
"361 760 OFFCURVE",
"240 760 CURVE"
);
},
{
closed = 1;
nodes = (
"191 90 OFFCURVE",
"157 129 OFFCURVE",
"157 186 CURVE SMOOTH",
"157 624 LINE SMOOTH",
"157 679 OFFCURVE",
"193 720 OFFCURVE",
"240 720 CURVE",
"288 720 OFFCURVE",
"323 680 OFFCURVE",
"323 624 CURVE SMOOTH",
"323 186 LINE SMOOTH",
"323 130 OFFCURVE",
"288 90 OFFCURVE",
"240 90 CURVE"
);
}
);
width = 480;
},
{
associatedMasterId = master01;
layerId = "E3B6C915-F669-485D-9C63-AFE0792F86C9";
name = foreground;
paths = (
{
closed = 1;
nodes = (
"324 272 OFFCURVE",
"259 345 OFFCURVE",
"137 345 CURVE SMOOTH",
"137 345 LINE",
"137 306 LINE",
"156 306 LINE SMOOTH",
"200 306 OFFCURVE",
"229 268 OFFCURVE",
"229 209 CURVE SMOOTH",
"229 195 LINE SMOOTH",
"229 54 OFFCURVE",
"283 0 OFFCURVE",
"417 0 CURVE SMOOTH",
"418 0 LINE",
"418 39 LINE",
"397 39 LINE SMOOTH",
"354 39 OFFCURVE",
"324 75 OFFCURVE",
"324 131 CURVE"
);
},
{
closed = 1;
nodes = (
"113 760 OFFCURVE",
"43 685 OFFCURVE",
"43 546 CURVE SMOOTH",
"43 264 LINE SMOOTH",
"43 126 OFFCURVE",
"114 50 OFFCURVE",
"240 50 CURVE",
"366 50 OFFCURVE",
"433 124 OFFCURVE",
"433 264 CURVE SMOOTH",
"433 546 LINE SMOOTH",
"433 681 OFFCURVE",
"361 760 OFFCURVE",
"240 760 CURVE"
);
},
{
closed = 1;
nodes = (
"191 90 OFFCURVE",
"157 129 OFFCURVE",
"157 186 CURVE SMOOTH",
"157 624 LINE SMOOTH",
"157 679 OFFCURVE",
"193 720 OFFCURVE",
"240 720 CURVE",
"288 720 OFFCURVE",
"323 680 OFFCURVE",
"323 624 CURVE SMOOTH",
"323 186 LINE SMOOTH",
"323 130 OFFCURVE",
"288 90 OFFCURVE",
"240 90 CURVE"
);
}
);
width = 480;
}
);
unicode = 0051;
},
{
color = (255,188,0,255);
glyphname = Q.alt_1;
layers = (
{
layerId = master01;
paths = (
{
closed = 1;
nodes = (
"191 53 OFFCURVE",
"157 92 OFFCURVE",
"157 149 CURVE SMOOTH",
"157 624 LINE SMOOTH",
"157 679 OFFCURVE",
"193 720 OFFCURVE",
"240 720 CURVE",
"288 720 OFFCURVE",
"323 680 OFFCURVE",
"323 624 CURVE SMOOTH",
"323 149 LINE SMOOTH",
"323 93 OFFCURVE",
"288 53 OFFCURVE",
"240 53 CURVE"
);
},
{
closed = 1;
nodes = (
"300 13 OFFCURVE",
"332 -22 OFFCURVE",
"332 -84 CURVE SMOOTH",
"332 -98 LINE SMOOTH",
"332 -239 OFFCURVE",
"386 -293 OFFCURVE",
"520 -293 CURVE SMOOTH",
"521 -293 LINE",
"521 -254 LINE",
"500 -254 LINE SMOOTH",
"457 -254 OFFCURVE",
"427 -218 OFFCURVE",
"427 -162 CURVE",
"427 -64 OFFCURVE",
"391 -3 OFFCURVE",
"296 46 CURVE",
"296 19 LINE",
"395 63 OFFCURVE",
"433 128 OFFCURVE",
"433 227 CURVE SMOOTH",
"433 546 LINE SMOOTH",
"433 681 OFFCURVE",
"361 760 OFFCURVE",
"240 760 CURVE",
"113 760 OFFCURVE",
"43 685 OFFCURVE",
"43 546 CURVE SMOOTH",
"43 227 LINE SMOOTH",
"43 89 OFFCURVE",
"117 13 OFFCURVE",
"249 13 CURVE"
);
}
);
width = 480;
},
{
associatedMasterId = master01;
layerId = "8D171078-24E8-46BF-A9ED-FE443820C09E";
name = foreground;
paths = (
{
closed = 1;
nodes = (
"191 53 OFFCURVE",
"157 92 OFFCURVE",
"157 149 CURVE SMOOTH",
"157 624 LINE SMOOTH",
"157 679 OFFCURVE",
"193 720 OFFCURVE",
"240 720 CURVE",
"288 720 OFFCURVE",
"323 680 OFFCURVE",
"323 624 CURVE SMOOTH",
"323 149 LINE SMOOTH",
"323 93 OFFCURVE",
"288 53 OFFCURVE",
"240 53 CURVE"
);
},
{
closed = 1;
nodes = (
"300 13 OFFCURVE",
"332 -22 OFFCURVE",
"332 -84 CURVE SMOOTH",
"332 -98 LINE SMOOTH",
"332 -239 OFFCURVE",
"386 -293 OFFCURVE",
"520 -293 CURVE SMOOTH",
"521 -293 LINE",
"521 -254 LINE",
"500 -254 LINE SMOOTH",
"457 -254 OFFCURVE",
"427 -218 OFFCURVE",
"427 -162 CURVE",
"427 -64 OFFCURVE",
"391 -3 OFFCURVE",
"296 46 CURVE",
"296 19 LINE",
"395 63 OFFCURVE",
"433 128 OFFCURVE",
"433 227 CURVE SMOOTH",
"433 546 LINE SMOOTH",
"433 681 OFFCURVE",
"361 760 OFFCURVE",
"240 760 CURVE",
"113 760 OFFCURVE",
"43 685 OFFCURVE",
"43 546 CURVE SMOOTH",
"43 227 LINE SMOOTH",
"43 89 OFFCURVE",
"117 13 OFFCURVE",
"249 13 CURVE"
);
}
);
width = 480;
}
);
},
{
color = (67,219,95,255);
glyphname = R;
layers = (
{
components = (
{
name = component_bottom_serif;
transform = "{1, 0, 0, 1, -10, 0}";
},
{
name = smallcomponent_top_half_serif;
transform = "{1, 0, 0, 1, -10, 210}";
}
);
layerId = master01;
paths = (
{
closed = 1;
nodes = (
"198 11 LINE",
"198 739 LINE",
"86 739 LINE",
"86 11 LINE"
);
},
{
closed = 1;
nodes = (
"313 323 OFFCURVE",
"343 282 OFFCURVE",
"343 223 CURVE SMOOTH",
"343 195 LINE SMOOTH",
"343 61 OFFCURVE",
"402 0 OFFCURVE",
"531 0 CURVE",
"542 0 LINE",
"542 37 LINE",
"531 37 LINE SMOOTH",
"487 37 OFFCURVE",
"458 77 OFFCURVE",
"458 136 CURVE SMOOTH",
"458 149 LINE SMOOTH",
"458 253 OFFCURVE",
"426 312 OFFCURVE",
"345 355 CURVE",
"344 328 LINE",
"432 371 OFFCURVE",
"464 427 OFFCURVE",
"464 535 CURVE",
"464 678 OFFCURVE",
"402 750 OFFCURVE",
"276 750 CURVE SMOOTH",
"86 750 LINE",
"86 670 LINE",
"198 670 LINE",
"198 710 LINE",
"276 710 LINE SMOOTH",
"322 710 OFFCURVE",
"351 673 OFFCURVE",
"351 614 CURVE SMOOTH",
"351 461 LINE SMOOTH",
"351 402 OFFCURVE",
"321 363 OFFCURVE",
"276 363 CURVE SMOOTH",
"246 363 LINE",
"246 323 LINE",
"270 323 LINE SMOOTH"
);
}
);
width = 534;
},
{
associatedMasterId = master01;
components = (
{
name = component_bottom_serif;
transform = "{1, 0, 0, 1, -10, 0}";
},
{
name = smallcomponent_top_half_serif;
transform = "{1, 0, 0, 1, -10, 210}";
}
);
layerId = "99D29E72-F943-4F04-9A31-57FAB000CB9E";
name = foreground;
paths = (
{
closed = 1;
nodes = (
"198 11 LINE",
"198 739 LINE",
"86 739 LINE",
"86 11 LINE"
);
},
{
closed = 1;
nodes = (
"313 323 OFFCURVE",
"343 282 OFFCURVE",
"343 223 CURVE SMOOTH",
"343 195 LINE SMOOTH",
"343 61 OFFCURVE",
"402 0 OFFCURVE",
"531 0 CURVE",
"542 0 LINE",
"542 37 LINE",
"531 37 LINE SMOOTH",
"487 37 OFFCURVE",
"458 77 OFFCURVE",
"458 136 CURVE SMOOTH",
"458 149 LINE SMOOTH",
"458 253 OFFCURVE",
"426 312 OFFCURVE",
"345 355 CURVE",
"344 328 LINE",
"432 371 OFFCURVE",
"464 427 OFFCURVE",
"464 535 CURVE",
"464 678 OFFCURVE",
"402 750 OFFCURVE",
"276 750 CURVE SMOOTH",
"86 750 LINE",
"86 670 LINE",
"198 670 LINE",
"198 710 LINE",
"276 710 LINE SMOOTH",
"322 710 OFFCURVE",
"351 673 OFFCURVE",
"351 614 CURVE SMOOTH",
"351 461 LINE SMOOTH",
"351 402 OFFCURVE",
"321 363 OFFCURVE",
"276 363 CURVE SMOOTH",
"246 363 LINE",
"246 323 LINE",
"270 323 LINE SMOOTH"
);
}
);
width = 534;
}
);
unicode = 0052;
},
{
color = (67,219,95,255);
glyphname = S;
layers = (
{
layerId = master01;
paths = (
{
closed = 1;
nodes = (
"263 720 OFFCURVE",
"284 697 OFFCURVE",
"323 598 CURVE",
"357 607 LINE",
"313 788 LINE",
"279 788 LINE",
"268 766 OFFCURVE",
"251 760 OFFCURVE",
"201 760 CURVE",
"109 760 OFFCURVE",
"24 685 OFFCURVE",
"24 602 CURVE",
"24 538 OFFCURVE",
"48 489 OFFCURVE",
"118 408 CURVE SMOOTH",
"202 311 LINE SMOOTH",
"258 247 OFFCURVE",
"282 197 OFFCURVE",
"282 145 CURVE",
"282 81 OFFCURVE",
"247 41 OFFCURVE",
"191 41 CURVE SMOOTH",
"127 41 OFFCURVE",
"76 105 OFFCURVE",
"57 212 CURVE",
"23 212 LINE",
"23 0 LINE",
"58 0 LINE",
"60 9 OFFCURVE",
"75 18 OFFCURVE",
"88 18 CURVE",
"107 18 OFFCURVE",
"134 -10 OFFCURVE",
"208 -10 CURVE SMOOTH",
"309 -10 OFFCURVE",
"393 69 OFFCURVE",
"393 167 CURVE",
"393 248 OFFCURVE",
"369 298 OFFCURVE",
"284 398 CURVE SMOOTH",
"183 516 LINE SMOOTH",
"142 563 OFFCURVE",
"125 597 OFFCURVE",
"125 634 CURVE",
"125 680 OFFCURVE",
"165 720 OFFCURVE",
"210 720 CURVE"
);
}
);
width = 417;
},
{
associatedMasterId = master01;
layerId = "BCFADDE7-E865-4DB9-A16B-569EABF6E0C9";
name = foreground;
paths = (
{
closed = 1;
nodes = (
"263 720 OFFCURVE",
"284 697 OFFCURVE",
"323 598 CURVE",
"357 607 LINE",
"313 788 LINE",
"279 788 LINE",
"268 766 OFFCURVE",
"251 760 OFFCURVE",
"201 760 CURVE",
"109 760 OFFCURVE",
"24 685 OFFCURVE",
"24 602 CURVE",
"24 538 OFFCURVE",
"48 489 OFFCURVE",
"118 408 CURVE SMOOTH",
"202 311 LINE SMOOTH",
"258 247 OFFCURVE",
"282 197 OFFCURVE",
"282 145 CURVE",
"282 81 OFFCURVE",
"247 41 OFFCURVE",
"191 41 CURVE SMOOTH",
"127 41 OFFCURVE",
"76 105 OFFCURVE",
"57 212 CURVE",
"23 212 LINE",
"23 0 LINE",
"58 0 LINE",
"60 9 OFFCURVE",
"75 18 OFFCURVE",
"88 18 CURVE",
"107 18 OFFCURVE",
"134 -10 OFFCURVE",
"208 -10 CURVE SMOOTH",
"309 -10 OFFCURVE",
"393 69 OFFCURVE",
"393 167 CURVE",
"393 248 OFFCURVE",
"369 298 OFFCURVE",
"284 398 CURVE SMOOTH",
"183 516 LINE SMOOTH",
"142 563 OFFCURVE",
"125 597 OFFCURVE",
"125 634 CURVE",
"125 680 OFFCURVE",
"165 720 OFFCURVE",
"210 720 CURVE"
);
}
);
width = 417;
}
);
unicode = 0053;
},
{
color = (67,219,95,255);
glyphname = T;
layers = (
{
components = (
{
name = component_bottom_serif;
transform = "{1, 0, 0, 1, 105, 0}";
}
);
layerId = master01;
paths = (
{
closed = 1;
nodes = (
"313 11 LINE",
"313 731 LINE",
"201 731 LINE",
"201 11 LINE"
);
},
{
closed = 1;
nodes = (
"413 713 OFFCURVE",
"441 684 OFFCURVE",
"475 567 CURVE",
"512 576 LINE",
"468 787 LINE",
"434 787 LINE",
"430 759 OFFCURVE",
"419 750 OFFCURVE",
"388 750 CURVE SMOOTH",
"132 750 LINE SMOOTH",
"101 750 OFFCURVE",
"91 758 OFFCURVE",
"86 787 CURVE",
"52 787 LINE",
"8 576 LINE",
"45 567 LINE",
"79 684 OFFCURVE",
"107 713 OFFCURVE",
"188 713 CURVE SMOOTH",
"332 713 LINE SMOOTH"
);
}
);
width = 520;
},
{
associatedMasterId = master01;
components = (
{
name = component_bottom_serif;
transform = "{1, 0, 0, 1, 105, 0}";
}
);
layerId = "F901C972-F339-4327-A46D-0B3E2D55AF71";
name = foreground;
paths = (
{
closed = 1;
nodes = (
"313 11 LINE",
"313 731 LINE",
"201 731 LINE",
"201 11 LINE"
);
},
{
closed = 1;
nodes = (
"413 713 OFFCURVE",
"441 684 OFFCURVE",
"475 567 CURVE",
"512 576 LINE",
"468 787 LINE",
"434 787 LINE",
"430 759 OFFCURVE",
"419 750 OFFCURVE",
"388 750 CURVE SMOOTH",
"132 750 LINE SMOOTH",
"101 750 OFFCURVE",
"91 758 OFFCURVE",
"86 787 CURVE",
"52 787 LINE",
"8 576 LINE",
"45 567 LINE",
"79 684 OFFCURVE",
"107 713 OFFCURVE",
"188 713 CURVE SMOOTH",
"332 713 LINE SMOOTH"
);
}
);
width = 520;
}
);
leftKerningGroup = "OverLeft-Capitals";
rightKerningGroup = "OverRight-Capitals";
unicode = 0054;
},
{
color = (67,219,95,255);
glyphname = U;
layers = (
{
components = (
{
name = component_top_serif;
transform = "{1, 0, 0, 1, -26, 0}";
}
);
layerId = master01;
paths = (
{
closed = 1;
nodes = (
"390 189 LINE SMOOTH",
"390 97 OFFCURVE",
"348 37 OFFCURVE",
"285 37 CURVE",
"222 37 OFFCURVE",
"182 83 OFFCURVE",
"182 156 CURVE SMOOTH",
"182 736 LINE",
"70 736 LINE",
"70 204 LINE SMOOTH",
"70 66 OFFCURVE",
"141 -10 OFFCURVE",
"268 -10 CURVE",
"380 -10 OFFCURVE",
"437 61 OFFCURVE",
"437 204 CURVE SMOOTH",
"437 736 LINE",
"390 736 LINE"
);
},
{
closed = 1;
nodes = (
"373 713 OFFCURVE",
"390 701 OFFCURVE",
"390 670 CURVE",
"437 670 LINE",
"437 701 OFFCURVE",
"454 713 OFFCURVE",
"497 713 CURVE",
"497 750 LINE",
"330 750 LINE",
"330 713 LINE"
);
}
);
width = 507;
},
{
associatedMasterId = master01;
components = (
{
name = component_top_serif;
transform = "{1, 0, 0, 1, -26, 0}";
}
);
layerId = "6D0FD51F-75E6-42D3-BBB7-333094C91CB1";
name = foreground;
paths = (
{
closed = 1;
nodes = (
"390 189 LINE SMOOTH",
"390 97 OFFCURVE",
"348 37 OFFCURVE",
"285 37 CURVE",
"222 37 OFFCURVE",
"182 83 OFFCURVE",
"182 156 CURVE SMOOTH",
"182 736 LINE",
"70 736 LINE",
"70 204 LINE SMOOTH",
"70 66 OFFCURVE",
"141 -10 OFFCURVE",
"268 -10 CURVE",
"380 -10 OFFCURVE",
"437 61 OFFCURVE",
"437 204 CURVE SMOOTH",
"437 736 LINE",
"390 736 LINE"
);
},
{
closed = 1;
nodes = (
"373 713 OFFCURVE",
"390 701 OFFCURVE",
"390 670 CURVE",
"437 670 LINE",
"437 701 OFFCURVE",
"454 713 OFFCURVE",
"497 713 CURVE",
"497 750 LINE",
"330 750 LINE",
"330 713 LINE"
);
}
);
width = 507;
}
);
unicode = 0055;
},
{
color = (67,219,95,255);
glyphname = V;
layers = (
{
layerId = master01;
paths = (
{
closed = 1;
nodes = (
"247 113 LINE",
"266 113 LINE",
"173 672 LINE SMOOTH",
"169 698 OFFCURVE",
"191 713 OFFCURVE",
"233 713 CURVE",
"233 750 LINE",
"-2 750 LINE",
"-2 713 LINE",
"34 713 OFFCURVE",
"51 701 OFFCURVE",
"58 671 CURVE SMOOTH",
"216 -14 LINE",
"264 -14 LINE",
"414 669 LINE SMOOTH",
"421 701 OFFCURVE",
"438 713 OFFCURVE",
"476 713 CURVE",
"476 750 LINE",
"309 750 LINE",
"309 713 LINE",
"353 713 OFFCURVE",
"375 697 OFFCURVE",
"369 669 CURVE SMOOTH"
);
}
);
width = 474;
},
{
associatedMasterId = master01;
layerId = "320CA3B9-284C-484D-9A9C-B0986757A55C";
name = foreground;
paths = (
{
closed = 1;
nodes = (
"247 113 LINE",
"266 113 LINE",
"173 672 LINE SMOOTH",
"169 698 OFFCURVE",
"191 713 OFFCURVE",
"233 713 CURVE",
"233 750 LINE",
"-2 750 LINE",
"-2 713 LINE",
"34 713 OFFCURVE",
"51 701 OFFCURVE",
"58 671 CURVE SMOOTH",
"216 -14 LINE",
"264 -14 LINE",
"414 669 LINE SMOOTH",
"421 701 OFFCURVE",
"438 713 OFFCURVE",
"476 713 CURVE",
"476 750 LINE",
"309 750 LINE",
"309 713 LINE",
"353 713 OFFCURVE",
"375 697 OFFCURVE",
"369 669 CURVE SMOOTH"
);
}
);
width = 474;
}
);
leftKerningGroup = "OverLeft-Capitals";
rightKerningGroup = "OverRight-Capitals";
unicode = 0056;
},
{
color = (67,219,95,255);
glyphname = W;
layers = (
{
layerId = master01;
paths = (
{
closed = 1;
nodes = (
"479 698 OFFCURVE",
"493 713 OFFCURVE",
"542 713 CURVE",
"542 750 LINE",
"428 750 LINE",
"314 750 LINE",
"314 713 LINE",
"359 713 OFFCURVE",
"375 695 OFFCURVE",
"366 655 CURVE SMOOTH",
"256 146 LINE",
"273 146 LINE",
"173 673 LINE SMOOTH",
"168 699 OFFCURVE",
"191 715 OFFCURVE",
"233 715 CURVE",
"233 750 LINE",
"-2 750 LINE",
"-2 713 LINE",
"33 713 OFFCURVE",
"50 701 OFFCURVE",
"58 670 CURVE SMOOTH",
"228 -12 LINE",
"272 -12 LINE",
"406 636 LINE",
"393 636 LINE",
"543 -12 LINE",
"588 -12 LINE",
"740 670 LINE SMOOTH",
"747 701 OFFCURVE",
"765 714 OFFCURVE",
"802 714 CURVE",
"802 750 LINE",
"633 750 LINE",
"633 714 LINE",
"681 714 OFFCURVE",
"700 700 OFFCURVE",
"693 670 CURVE SMOOTH",
"576 146 LINE",
"589 146 LINE",
"488 655 LINE SMOOTH"
);
}
);
width = 800;
},
{
associatedMasterId = master01;
layerId = "28951933-DF24-4BB0-8A3C-3C26A8684485";
name = foreground;
paths = (
{
closed = 1;
nodes = (
"479 698 OFFCURVE",
"493 713 OFFCURVE",
"542 713 CURVE",
"542 750 LINE",
"428 750 LINE",
"314 750 LINE",
"314 713 LINE",
"359 713 OFFCURVE",
"375 695 OFFCURVE",
"366 655 CURVE SMOOTH",
"256 146 LINE",
"273 146 LINE",
"173 673 LINE SMOOTH",
"168 699 OFFCURVE",
"191 715 OFFCURVE",
"233 715 CURVE",
"233 750 LINE",
"-2 750 LINE",
"-2 713 LINE",
"33 713 OFFCURVE",
"50 701 OFFCURVE",
"58 670 CURVE SMOOTH",
"228 -12 LINE",
"272 -12 LINE",
"406 636 LINE",
"393 636 LINE",
"543 -12 LINE",
"588 -12 LINE",
"740 670 LINE SMOOTH",
"747 701 OFFCURVE",
"765 714 OFFCURVE",
"802 714 CURVE",
"802 750 LINE",
"633 750 LINE",
"633 714 LINE",
"681 714 OFFCURVE",
"700 700 OFFCURVE",
"693 670 CURVE SMOOTH",
"576 146 LINE",
"589 146 LINE",
"488 655 LINE SMOOTH"
);
}
);
width = 800;
}
);
leftKerningGroup = "OverLeft-Capitals";
rightKerningGroup = "OverRight-Capitals";
unicode = 0057;
},
{
color = (67,219,95,255);
glyphname = X;
layers = (
{
layerId = master01;
paths = (
{
closed = 1;
nodes = (
"33 713 OFFCURVE",
"49 704 OFFCURVE",
"59 678 CURVE SMOOTH",
"196 323 LINE",
"206 323 LINE",
"301 77 LINE SMOOTH",
"312 50 OFFCURVE",
"295 37 OFFCURVE",
"248 37 CURVE",
"248 0 LINE",
"480 0 LINE",
"480 37 LINE",
"444 37 OFFCURVE",
"427 46 OFFCURVE",
"418 70 CURVE SMOOTH",
"280 427 LINE",
"269 427 LINE",
"177 668 LINE SMOOTH",
"165 699 OFFCURVE",
"181 713 OFFCURVE",
"228 713 CURVE",
"228 750 LINE",
"-4 750 LINE",
"-4 713 LINE"
);
},
{
closed = 1;
nodes = (
"346 713 OFFCURVE",
"360 702 OFFCURVE",
"349 676 CURVE SMOOTH",
"240 410 LINE",
"211 410 LINE",
"78 84 LINE SMOOTH",
"63 46 OFFCURVE",
"49 37 OFFCURVE",
"4 37 CURVE",
"4 0 LINE",
"171 0 LINE",
"171 37 LINE",
"131 37 OFFCURVE",
"116 51 OFFCURVE",
"127 78 CURVE SMOOTH",
"252 388 LINE",
"281 388 LINE",
"396 668 LINE SMOOTH",
"410 703 OFFCURVE",
"426 713 OFFCURVE",
"469 713 CURVE",
"469 750 LINE",
"302 750 LINE",
"302 713 LINE"
);
}
);
width = 476;
},
{
associatedMasterId = master01;
layerId = "1AA62F11-D9BE-4F11-AF2E-D2A68AB2B400";
name = foreground;
paths = (
{
closed = 1;
nodes = (
"33 713 OFFCURVE",
"49 704 OFFCURVE",
"59 678 CURVE SMOOTH",
"196 323 LINE",
"206 323 LINE",
"301 77 LINE SMOOTH",
"312 50 OFFCURVE",
"295 37 OFFCURVE",
"248 37 CURVE",
"248 0 LINE",
"480 0 LINE",
"480 37 LINE",
"444 37 OFFCURVE",
"427 46 OFFCURVE",
"418 70 CURVE SMOOTH",
"280 427 LINE",
"269 427 LINE",
"177 668 LINE SMOOTH",
"165 699 OFFCURVE",
"181 713 OFFCURVE",
"228 713 CURVE",
"228 750 LINE",
"-4 750 LINE",
"-4 713 LINE"
);
},
{
closed = 1;
nodes = (
"346 713 OFFCURVE",
"360 702 OFFCURVE",
"349 676 CURVE SMOOTH",
"240 410 LINE",
"211 410 LINE",
"78 84 LINE SMOOTH",
"63 46 OFFCURVE",
"49 37 OFFCURVE",
"4 37 CURVE",
"4 0 LINE",
"171 0 LINE",
"171 37 LINE",
"131 37 OFFCURVE",
"116 51 OFFCURVE",
"127 78 CURVE SMOOTH",
"252 388 LINE",
"281 388 LINE",
"396 668 LINE SMOOTH",
"410 703 OFFCURVE",
"426 713 OFFCURVE",
"469 713 CURVE",
"469 750 LINE",
"302 750 LINE",
"302 713 LINE"
);
}
);
width = 476;
}
);
unicode = 0058;
},
{
color = (67,219,95,255);
glyphname = Y;
layers = (
{
components = (
{
name = component_bottom_serif;
transform = "{1, 0, 0, 1, 100, 0}";
}
);
layerId = master01;
paths = (
{
closed = 1;
nodes = (
"307 11 LINE",
"307 324 LINE",
"424 669 LINE SMOOTH",
"436 703 OFFCURVE",
"450 713 OFFCURVE",
"486 713 CURVE",
"486 750 LINE",
"316 750 LINE",
"316 713 LINE",
"362 713 OFFCURVE",
"385 696 OFFCURVE",
"376 669 CURVE SMOOTH",
"268 344 LINE",
"289 344 LINE",
"173 671 LINE SMOOTH",
"164 696 OFFCURVE",
"188 713 OFFCURVE",
"233 713 CURVE",
"233 750 LINE",
"-2 750 LINE",
"-2 713 LINE",
"31 713 OFFCURVE",
"45 703 OFFCURVE",
"58 670 CURVE SMOOTH",
"195 308 LINE",
"195 11 LINE"
);
}
);
width = 484;
},
{
associatedMasterId = master01;
components = (
{
name = component_bottom_serif;
transform = "{1, 0, 0, 1, 100, 0}";
}
);
layerId = "376105C8-3C1D-4776-BD09-EB25D052F7A1";
name = foreground;
paths = (
{
closed = 1;
nodes = (
"307 11 LINE",
"307 324 LINE",
"424 669 LINE SMOOTH",
"436 703 OFFCURVE",
"450 713 OFFCURVE",
"486 713 CURVE",
"486 750 LINE",
"316 750 LINE",
"316 713 LINE",
"362 713 OFFCURVE",
"385 696 OFFCURVE",
"376 669 CURVE SMOOTH",
"268 344 LINE",
"289 344 LINE",
"173 671 LINE SMOOTH",
"164 696 OFFCURVE",
"188 713 OFFCURVE",
"233 713 CURVE",
"233 750 LINE",
"-2 750 LINE",
"-2 713 LINE",
"31 713 OFFCURVE",
"45 703 OFFCURVE",
"58 670 CURVE SMOOTH",
"195 308 LINE",
"195 11 LINE"
);
}
);
width = 484;
}
);
leftKerningGroup = "OverLeft-Capitals";
rightKerningGroup = "OverRight-Capitals";
unicode = 0059;
},
{
color = (67,219,95,255);
glyphname = Z;
layers = (
{
layerId = master01;
paths = (
{
closed = 1;
nodes = (
"118 40 LINE",
"138 12 LINE",
"393 710 LINE",
"393 750 LINE",
"152 750 LINE SMOOTH",
"122 750 OFFCURVE",
"110 760 OFFCURVE",
"106 788 CURVE",
"72 788 LINE",
"28 607 LINE",
"62 598 LINE",
"96 693 OFFCURVE",
"118 710 OFFCURVE",
"208 710 CURVE SMOOTH",
"301 710 LINE",
"281 738 LINE",
"24 40 LINE",
"24 0 LINE",
"307 0 LINE SMOOTH",
"352 0 OFFCURVE",
"370 -8 OFFCURVE",
"376 -31 CURVE",
"413 -31 LINE",
"413 171 LINE",
"378 171 LINE",
"365 62 OFFCURVE",
"344 40 OFFCURVE",
"254 40 CURVE SMOOTH"
);
}
);
width = 435;
},
{
associatedMasterId = master01;
layerId = "C5DD9B33-4FA7-4326-8345-B15C470BB36B";
name = foreground;
paths = (
{
closed = 1;
nodes = (
"118 40 LINE",
"138 12 LINE",
"393 710 LINE",
"393 750 LINE",
"152 750 LINE SMOOTH",
"122 750 OFFCURVE",
"110 760 OFFCURVE",
"106 788 CURVE",
"72 788 LINE",
"28 607 LINE",
"62 598 LINE",
"96 693 OFFCURVE",
"118 710 OFFCURVE",
"208 710 CURVE SMOOTH",
"301 710 LINE",
"281 738 LINE",
"24 40 LINE",
"24 0 LINE",
"307 0 LINE SMOOTH",
"352 0 OFFCURVE",
"370 -8 OFFCURVE",
"376 -31 CURVE",
"413 -31 LINE",
"413 171 LINE",
"378 171 LINE",
"365 62 OFFCURVE",
"344 40 OFFCURVE",
"254 40 CURVE SMOOTH"
);
}
);
width = 435;
}
);
unicode = 005A;
},
{
color = (67,219,95,255);
glyphname = AE;
layers = (
{
layerId = master01;
paths = (
{
closed = 1;
nodes = (
"354 179 LINE",
"354 227 LINE",
"123 227 LINE",
"123 179 LINE"
);
},
{
closed = 1;
nodes = (
"284 750 LINE",
"62 78 LINE SMOOTH",
"51 44 OFFCURVE",
"36 34 OFFCURVE",
"0 34 CURVE",
"0 0 LINE",
"168 0 LINE",
"168 34 LINE",
"121 34 OFFCURVE",
"100 53 OFFCURVE",
"108 78 CURVE SMOOTH",
"331 750 LINE"
);
},
{
closed = 1;
nodes = (
"415 39 LINE",
"415 379 LINE",
"441 379 LINE SMOOTH",
"488 379 OFFCURVE",
"510 355 OFFCURVE",
"510 307 CURVE",
"542 307 LINE",
"542 491 LINE",
"510 491 LINE",
"510 443 OFFCURVE",
"486 419 OFFCURVE",
"441 419 CURVE SMOOTH",
"415 419 LINE",
"415 711 LINE",
"472 711 LINE SMOOTH",
"561 711 OFFCURVE",
"581 696 OFFCURVE",
"618 598 CURVE",
"652 607 LINE",
"608 788 LINE",
"574 788 LINE",
"568 758 OFFCURVE",
"558 750 OFFCURVE",
"528 750 CURVE SMOOTH",
"303 750 LINE",
"303 77 LINE SMOOTH",
"303 43 OFFCURVE",
"290 34 OFFCURVE",
"243 34 CURVE",
"243 0 LINE",
"566 0 LINE SMOOTH",
"611 0 OFFCURVE",
"626 -7 OFFCURVE",
"635 -31 CURVE",
"670 -31 LINE",
"670 171 LINE",
"637 171 LINE",
"624 61 OFFCURVE",
"603 39 OFFCURVE",
"513 39 CURVE SMOOTH"
);
}
);
width = 686;
},
{
associatedMasterId = master01;
layerId = "DB986F59-3449-4463-A8BC-F503B6C011FE";
name = foreground;
paths = (
{
closed = 1;
nodes = (
"354 179 LINE",
"354 227 LINE",
"123 227 LINE",
"123 179 LINE"
);
},
{
closed = 1;
nodes = (
"284 750 LINE",
"62 78 LINE SMOOTH",
"51 44 OFFCURVE",
"36 34 OFFCURVE",
"0 34 CURVE",
"0 0 LINE",
"168 0 LINE",
"168 34 LINE",
"121 34 OFFCURVE",
"100 53 OFFCURVE",
"108 78 CURVE SMOOTH",
"331 750 LINE"
);
},
{
closed = 1;
nodes = (
"415 39 LINE",
"415 379 LINE",
"441 379 LINE SMOOTH",
"488 379 OFFCURVE",
"510 355 OFFCURVE",
"510 307 CURVE",
"542 307 LINE",
"542 491 LINE",
"510 491 LINE",
"510 443 OFFCURVE",
"486 419 OFFCURVE",
"441 419 CURVE SMOOTH",
"415 419 LINE",
"415 711 LINE",
"472 711 LINE SMOOTH",
"561 711 OFFCURVE",
"581 696 OFFCURVE",
"618 598 CURVE",
"652 607 LINE",
"608 788 LINE",
"574 788 LINE",
"568 758 OFFCURVE",
"558 750 OFFCURVE",
"528 750 CURVE SMOOTH",
"303 750 LINE",
"303 77 LINE SMOOTH",
"303 43 OFFCURVE",
"290 34 OFFCURVE",
"243 34 CURVE",
"243 0 LINE",
"566 0 LINE SMOOTH",
"611 0 OFFCURVE",
"626 -7 OFFCURVE",
"635 -31 CURVE",
"670 -31 LINE",
"670 171 LINE",
"637 171 LINE",
"624 61 OFFCURVE",
"603 39 OFFCURVE",
"513 39 CURVE SMOOTH"
);
}
);
width = 686;
}
);
leftKerningGroup = "UnderLeft-Capitals";
rightKerningGroup = "UnderRight-Capitals";
unicode = 00C6;
},
{
color = (67,219,95,255);
glyphname = OE;
layers = (
{
layerId = master01;
paths = (
{
closed = 1;
nodes = (
"195 30 OFFCURVE",
"159 71 OFFCURVE",
"159 126 CURVE SMOOTH",
"159 624 LINE SMOOTH",
"159 680 OFFCURVE",
"193 720 OFFCURVE",
"240 720 CURVE",
"287 720 OFFCURVE",
"323 680 OFFCURVE",
"323 624 CURVE SMOOTH",
"323 126 LINE SMOOTH",
"323 71 OFFCURVE",
"287 30 OFFCURVE",
"240 30 CURVE"
);
},
{
closed = 1;
nodes = (
"288 0 LINE",
"589 0 LINE SMOOTH",
"634 0 OFFCURVE",
"649 -7 OFFCURVE",
"658 -31 CURVE",
"693 -31 LINE",
"693 171 LINE",
"660 171 LINE",
"647 61 OFFCURVE",
"626 39 OFFCURVE",
"536 39 CURVE SMOOTH",
"438 39 LINE",
"438 379 LINE",
"464 379 LINE SMOOTH",
"511 379 OFFCURVE",
"533 355 OFFCURVE",
"533 307 CURVE",
"565 307 LINE",
"565 491 LINE",
"533 491 LINE",
"533 444 OFFCURVE",
"511 419 OFFCURVE",
"464 419 CURVE SMOOTH",
"438 419 LINE",
"438 711 LINE",
"495 711 LINE SMOOTH",
"584 711 OFFCURVE",
"604 696 OFFCURVE",
"641 598 CURVE",
"675 607 LINE",
"631 788 LINE",
"597 788 LINE",
"591 758 OFFCURVE",
"581 750 OFFCURVE",
"551 750 CURVE SMOOTH",
"274 750 LINE",
"359 719 LINE",
"335 744 OFFCURVE",
"286 760 OFFCURVE",
"240 760 CURVE",
"114 760 OFFCURVE",
"42 686 OFFCURVE",
"42 546 CURVE SMOOTH",
"42 204 LINE SMOOTH",
"42 64 OFFCURVE",
"112 -10 OFFCURVE",
"240 -10 CURVE",
"285 -10 OFFCURVE",
"335 7 OFFCURVE",
"359 31 CURVE"
);
}
);
width = 709;
},
{
associatedMasterId = master01;
layerId = "2CBE7CE5-2283-420B-9208-2CF862F836FA";
name = foreground;
paths = (
{
closed = 1;
nodes = (
"195 30 OFFCURVE",
"159 71 OFFCURVE",
"159 126 CURVE SMOOTH",
"159 624 LINE SMOOTH",
"159 680 OFFCURVE",
"193 720 OFFCURVE",
"240 720 CURVE",
"287 720 OFFCURVE",
"323 680 OFFCURVE",
"323 624 CURVE SMOOTH",
"323 126 LINE SMOOTH",
"323 71 OFFCURVE",
"287 30 OFFCURVE",
"240 30 CURVE"
);
},
{
closed = 1;
nodes = (
"288 0 LINE",
"589 0 LINE SMOOTH",
"634 0 OFFCURVE",
"649 -7 OFFCURVE",
"658 -31 CURVE",
"693 -31 LINE",
"693 171 LINE",
"660 171 LINE",
"647 61 OFFCURVE",
"626 39 OFFCURVE",
"536 39 CURVE SMOOTH",
"438 39 LINE",
"438 379 LINE",
"464 379 LINE SMOOTH",
"511 379 OFFCURVE",
"533 355 OFFCURVE",
"533 307 CURVE",
"565 307 LINE",
"565 491 LINE",
"533 491 LINE",
"533 444 OFFCURVE",
"511 419 OFFCURVE",
"464 419 CURVE SMOOTH",
"438 419 LINE",
"438 711 LINE",
"495 711 LINE SMOOTH",
"584 711 OFFCURVE",
"604 696 OFFCURVE",
"641 598 CURVE",
"675 607 LINE",
"631 788 LINE",
"597 788 LINE",
"591 758 OFFCURVE",
"581 750 OFFCURVE",
"551 750 CURVE SMOOTH",
"274 750 LINE",
"359 719 LINE",
"335 744 OFFCURVE",
"286 760 OFFCURVE",
"240 760 CURVE",
"114 760 OFFCURVE",
"42 686 OFFCURVE",
"42 546 CURVE SMOOTH",
"42 204 LINE SMOOTH",
"42 64 OFFCURVE",
"112 -10 OFFCURVE",
"240 -10 CURVE",
"285 -10 OFFCURVE",
"335 7 OFFCURVE",
"359 31 CURVE"
);
}
);
width = 709;
}
);
unicode = 0152;
},
{
color = (196,99,215,171);
glyphname = Dcroat;
layers = (
{
components = (
{
name = D;
}
);
layerId = master01;
paths = (
{
closed = 1;
nodes = (
"27 399 LINE",
"27 360 LINE",
"296 360 LINE SMOOTH",
"296 399 LINE"
);
}
);
width = 494;
},
{
associatedMasterId = master01;
components = (
{
name = D;
}
);
layerId = "F12F84C2-12A7-4294-AEB0-8A1732BA42DB";
name = foreground;
paths = (
{
closed = 1;
nodes = (
"27 399 LINE",
"27 360 LINE",
"296 360 LINE SMOOTH",
"296 399 LINE"
);
}
);
width = 494;
}
);
unicode = 0110;
},
{
color = (196,99,215,171);
glyphname = Eth;
layers = (
{
components = (
{
name = D;
}
);
layerId = master01;
paths = (
{
closed = 1;
nodes = (
"27 399 LINE",
"27 360 LINE",
"296 360 LINE SMOOTH",
"296 399 LINE"
);
}
);
width = 494;
},
{
associatedMasterId = master01;
components = (
{
name = D;
}
);
layerId = "F72D8142-56F7-40F1-B20E-00A4CF854934";
name = foreground;
paths = (
{
closed = 1;
nodes = (
"27 399 LINE",
"27 360 LINE",
"296 360 LINE SMOOTH",
"296 399 LINE"
);
}
);
width = 494;
}
);
unicode = 00D0;
},
{
color = (196,99,215,171);
glyphname = Hbar;
layers = (
{
components = (
{
name = H;
}
);
layerId = master01;
paths = (
{
closed = 1;
nodes = (
"30 581 LINE",
"30 542 LINE",
"528 542 LINE SMOOTH",
"528 581 LINE"
);
}
);
width = 557;
},
{
associatedMasterId = master01;
components = (
{
name = H;
}
);
layerId = "B99631C2-CFE0-42F3-A131-B4838BB15888";
name = foreground;
paths = (
{
closed = 1;
nodes = (
"30 581 LINE",
"30 542 LINE",
"528 542 LINE SMOOTH",
"528 581 LINE"
);
}
);
width = 557;
}
);
unicode = 0126;
},
{
color = (196,99,215,171);
glyphname = Lslash;
layers = (
{
components = (
{
name = L;
}
);
layerId = master01;
paths = (
{
closed = 1;
nodes = (
"27 379 LINE",
"27 328 LINE",
"355 449 LINE SMOOTH",
"355 500 LINE"
);
}
);
width = 479;
},
{
associatedMasterId = master01;
components = (
{
name = L;
}
);
layerId = "60789985-9C9B-4D16-BE31-2646B45A8812";
name = foreground;
paths = (
{
closed = 1;
nodes = (
"27 379 LINE",
"27 328 LINE",
"355 449 LINE SMOOTH",
"355 500 LINE"
);
}
);
width = 479;
}
);
unicode = 0141;
},
{
color = (196,99,215,171);
glyphname = Oslash;
layers = (
{
components = (
{
name = O;
}
);
layerId = master01;
paths = (
{
closed = 1;
nodes = (
"1 275 LINE",
"2 221 LINE",
"478 500 LINE SMOOTH",
"477 554 LINE"
);
}
);
width = 480;
},
{
associatedMasterId = master01;
components = (
{
name = O;
}
);
layerId = "9AC68EB9-CE50-4322-9779-84C9857755AD";
name = foreground;
paths = (
{
closed = 1;
nodes = (
"1 275 LINE",
"2 221 LINE",
"478 500 LINE SMOOTH",
"477 554 LINE"
);
}
);
width = 480;
}
);
unicode = 00D8;
},
{
color = (196,99,215,171);
glyphname = Eng;
layers = (
{
layerId = master01;
paths = (
{
closed = 1;
nodes = (
"452 673 LINE",
"452 707 OFFCURVE",
"465 716 OFFCURVE",
"512 716 CURVE",
"512 750 LINE",
"344 750 LINE",
"344 716 LINE",
"391 716 OFFCURVE",
"404 707 OFFCURVE",
"404 673 CURVE"
);
},
{
closed = 1;
nodes = (
"80 43 OFFCURVE",
"67 34 OFFCURVE",
"20 34 CURVE",
"20 0 LINE",
"188 0 LINE",
"188 34 LINE",
"141 34 OFFCURVE",
"128 43 OFFCURVE",
"128 77 CURVE",
"80 77 LINE"
);
},
{
closed = 1;
nodes = (
"370 -110 OFFCURVE",
"343 -176 OFFCURVE",
"264 -176 CURVE SMOOTH",
"244 -176 LINE",
"244 -213 LINE",
"264 -213 LINE SMOOTH",
"394 -213 OFFCURVE",
"452 -146 OFFCURVE",
"452 0 CURVE SMOOTH",
"452 739 LINE",
"404 739 LINE",
"404 160 LINE",
"409 39 LINE",
"422 46 LINE",
"203 750 LINE",
"20 750 LINE",
"20 713 LINE",
"67 713 OFFCURVE",
"80 704 OFFCURVE",
"80 670 CURVE SMOOTH",
"80 11 LINE",
"128 11 LINE",
"128 562 LINE",
"120 689 LINE",
"107 679 LINE",
"333 0 LINE SMOOTH"
);
}
);
width = 520;
},
{
associatedMasterId = master01;
layerId = "3DE48BCF-9D73-4FBB-8CD2-A5B97199FC8F";
name = foreground;
paths = (
{
closed = 1;
nodes = (
"452 673 LINE",
"452 707 OFFCURVE",
"465 716 OFFCURVE",
"512 716 CURVE",
"512 750 LINE",
"344 750 LINE",
"344 716 LINE",
"391 716 OFFCURVE",
"404 707 OFFCURVE",
"404 673 CURVE"
);
},
{
closed = 1;
nodes = (
"80 43 OFFCURVE",
"67 34 OFFCURVE",
"20 34 CURVE",
"20 0 LINE",
"188 0 LINE",
"188 34 LINE",
"141 34 OFFCURVE",
"128 43 OFFCURVE",
"128 77 CURVE",
"80 77 LINE"
);
},
{
closed = 1;
nodes = (
"370 -110 OFFCURVE",
"343 -176 OFFCURVE",
"264 -176 CURVE SMOOTH",
"244 -176 LINE",
"244 -213 LINE",
"264 -213 LINE SMOOTH",
"394 -213 OFFCURVE",
"452 -146 OFFCURVE",
"452 0 CURVE SMOOTH",
"452 739 LINE",
"404 739 LINE",
"404 160 LINE",
"409 39 LINE",
"422 46 LINE",
"203 750 LINE",
"20 750 LINE",
"20 713 LINE",
"67 713 OFFCURVE",
"80 704 OFFCURVE",
"80 670 CURVE SMOOTH",
"80 11 LINE",
"128 11 LINE",
"128 562 LINE",
"120 689 LINE",
"107 679 LINE",
"333 0 LINE SMOOTH"
);
}
);
width = 520;
}
);
unicode = 014A;
},
{
color = (196,99,215,171);
glyphname = Thorn;
layers = (
{
layerId = master01;
paths = (
{
closed = 1;
nodes = (
"202 11 LINE",
"202 739 LINE",
"90 739 LINE",
"90 11 LINE"
);
},
{
closed = 1;
nodes = (
"397 133 OFFCURVE",
"458 204 OFFCURVE",
"458 345 CURVE SMOOTH",
"458 406 LINE SMOOTH",
"458 548 OFFCURVE",
"397 619 OFFCURVE",
"270 619 CURVE SMOOTH",
"200 619 LINE",
"200 580 LINE",
"270 580 LINE SMOOTH",
"314 580 OFFCURVE",
"343 543 OFFCURVE",
"343 484 CURVE SMOOTH",
"343 267 LINE SMOOTH",
"343 208 OFFCURVE",
"314 169 OFFCURVE",
"270 169 CURVE SMOOTH",
"200 169 LINE",
"200 133 LINE",
"270 133 LINE SMOOTH"
);
},
{
closed = 1;
nodes = (
"202 670 LINE",
"202 704 OFFCURVE",
"215 713 OFFCURVE",
"262 713 CURVE",
"262 750 LINE",
"30 750 LINE",
"30 713 LINE",
"77 713 OFFCURVE",
"90 704 OFFCURVE",
"90 670 CURVE"
);
},
{
closed = 1;
nodes = (
"90 46 OFFCURVE",
"77 37 OFFCURVE",
"30 37 CURVE",
"30 0 LINE",
"262 0 LINE",
"262 37 LINE",
"215 37 OFFCURVE",
"202 46 OFFCURVE",
"202 80 CURVE",
"90 80 LINE"
);
}
);
width = 482;
},
{
associatedMasterId = master01;
layerId = "47CF8112-5865-4CFC-A154-7EE4B7372204";
name = foreground;
paths = (
{
closed = 1;
nodes = (
"202 11 LINE",
"202 739 LINE",
"90 739 LINE",
"90 11 LINE"
);
},
{
closed = 1;
nodes = (
"397 133 OFFCURVE",
"458 204 OFFCURVE",
"458 345 CURVE SMOOTH",
"458 406 LINE SMOOTH",
"458 548 OFFCURVE",
"397 619 OFFCURVE",
"270 619 CURVE SMOOTH",
"200 619 LINE",
"200 580 LINE",
"270 580 LINE SMOOTH",
"314 580 OFFCURVE",
"343 543 OFFCURVE",
"343 484 CURVE SMOOTH",
"343 267 LINE SMOOTH",
"343 208 OFFCURVE",
"314 169 OFFCURVE",
"270 169 CURVE SMOOTH",
"200 169 LINE",
"200 133 LINE",
"270 133 LINE SMOOTH"
);
},
{
closed = 1;
nodes = (
"202 670 LINE",
"202 704 OFFCURVE",
"215 713 OFFCURVE",
"262 713 CURVE",
"262 750 LINE",
"30 750 LINE",
"30 713 LINE",
"77 713 OFFCURVE",
"90 704 OFFCURVE",
"90 670 CURVE"
);
},
{
closed = 1;
nodes = (
"90 46 OFFCURVE",
"77 37 OFFCURVE",
"30 37 CURVE",
"30 0 LINE",
"262 0 LINE",
"262 37 LINE",
"215 37 OFFCURVE",
"202 46 OFFCURVE",
"202 80 CURVE",
"90 80 LINE"
);
}
);
width = 482;
}
);
unicode = 00DE;
},
{
color = (196,99,215,171);
glyphname = Tbar;
layers = (
{
components = (
{
name = T;
}
);
layerId = master01;
paths = (
{
closed = 1;
nodes = (
"103 399 LINE",
"103 360 LINE",
"412 360 LINE SMOOTH",
"412 399 LINE"
);
}
);
width = 520;
},
{
associatedMasterId = master01;
components = (
{
name = T;
}
);
layerId = "960EBDC4-D8BA-48F8-89B4-D09500B970D1";
name = foreground;
paths = (
{
closed = 1;
nodes = (
"103 399 LINE",
"103 360 LINE",
"412 360 LINE SMOOTH",
"412 399 LINE"
);
}
);
width = 520;
}
);
leftKerningGroup = "OverLeft-Capitals";
rightKerningGroup = "OverRight-Capitals";
unicode = 0166;
},
{
color = (196,99,215,171);
glyphname = Imacron;
layers = (
{
components = (
{
name = I;
transform = "{1, 0, 0, 1, -6, 0}";
}
);
layerId = master01;
paths = (
{
closed = 1;
nodes = (
"274 790 LINE",
"274 830 LINE",
"6 830 LINE",
"6 790 LINE"
);
}
);
width = 280;
},
{
associatedMasterId = master01;
components = (
{
name = I;
transform = "{1, 0, 0, 1, -6, 0}";
}
);
layerId = "1C85BA56-A45D-4B80-A6C4-BC5C174D66D3";
name = foreground;
paths = (
{
closed = 1;
nodes = (
"274 790 LINE",
"274 830 LINE",
"6 830 LINE",
"6 790 LINE"
);
}
);
width = 280;
}
);
unicode = 012A;
},
{
color = (196,99,215,171);
glyphname = germandbls;
layers = (
{
components = (
{
name = smallcomponents_btm_half_serif;
transform = "{1, 0, 0, 1, -6, 0}";
}
);
layerId = master01;
paths = (
{
closed = 1;
nodes = (
"90 0 LINE",
"202 0 LINE",
"202 627 LINE SMOOTH",
"202 679 OFFCURVE",
"230 716 OFFCURVE",
"270 716 CURVE",
"311 716 OFFCURVE",
"335 684 OFFCURVE",
"335 628 CURVE",
"335 506 OFFCURVE",
"250 514 OFFCURVE",
"250 411 CURVE",
"250 347 OFFCURVE",
"267 315 OFFCURVE",
"331 258 CURVE SMOOTH",
"362 230 LINE SMOOTH",
"411 185 OFFCURVE",
"426 157 OFFCURVE",
"426 108 CURVE SMOOTH",
"426 66 OFFCURVE",
"399 33 OFFCURVE",
"365 33 CURVE SMOOTH",
"342 33 OFFCURVE",
"331 38 OFFCURVE",
"311 58 CURVE SMOOTH",
"291 78 OFFCURVE",
"278 112 OFFCURVE",
"270 165 CURVE",
"243 164 LINE",
"243 0 LINE",
"270 0 LINE",
"275 9 OFFCURVE",
"284 14 OFFCURVE",
"295 14 CURVE SMOOTH",
"311 14 OFFCURVE",
"331 -5 OFFCURVE",
"386 -5 CURVE SMOOTH",
"466 -5 OFFCURVE",
"522 63 OFFCURVE",
"522 163 CURVE",
"522 225 OFFCURVE",
"500 269 OFFCURVE",
"443 318 CURVE SMOOTH",
"406 350 LINE SMOOTH",
"348 401 OFFCURVE",
"334 420 OFFCURVE",
"334 446 CURVE",
"334 511 OFFCURVE",
"431 522 OFFCURVE",
"431 634 CURVE",
"431 710 OFFCURVE",
"366 760 OFFCURVE",
"270 760 CURVE",
"154 760 OFFCURVE",
"90 693 OFFCURVE",
"90 573 CURVE SMOOTH"
);
}
);
width = 538;
},
{
associatedMasterId = master01;
components = (
{
name = smallcomponents_btm_half_serif;
transform = "{1, 0, 0, 1, -6, 0}";
}
);
layerId = "4E24EEF1-76F4-430B-871D-6BB2A9B9FCD0";
name = foreground;
paths = (
{
closed = 1;
nodes = (
"90 0 LINE",
"202 0 LINE",
"202 627 LINE SMOOTH",
"202 679 OFFCURVE",
"230 716 OFFCURVE",
"270 716 CURVE",
"311 716 OFFCURVE",
"335 684 OFFCURVE",
"335 628 CURVE",
"335 506 OFFCURVE",
"250 514 OFFCURVE",
"250 411 CURVE",
"250 347 OFFCURVE",
"267 315 OFFCURVE",
"331 258 CURVE SMOOTH",
"362 230 LINE SMOOTH",
"411 185 OFFCURVE",
"426 157 OFFCURVE",
"426 108 CURVE SMOOTH",
"426 66 OFFCURVE",
"399 33 OFFCURVE",
"365 33 CURVE SMOOTH",
"342 33 OFFCURVE",
"331 38 OFFCURVE",
"311 58 CURVE SMOOTH",
"291 78 OFFCURVE",
"278 112 OFFCURVE",
"270 165 CURVE",
"243 164 LINE",
"243 0 LINE",
"270 0 LINE",
"275 9 OFFCURVE",
"284 14 OFFCURVE",
"295 14 CURVE SMOOTH",
"311 14 OFFCURVE",
"331 -5 OFFCURVE",
"386 -5 CURVE SMOOTH",
"466 -5 OFFCURVE",
"522 63 OFFCURVE",
"522 163 CURVE",
"522 225 OFFCURVE",
"500 269 OFFCURVE",
"443 318 CURVE SMOOTH",
"406 350 LINE SMOOTH",
"348 401 OFFCURVE",
"334 420 OFFCURVE",
"334 446 CURVE",
"334 511 OFFCURVE",
"431 522 OFFCURVE",
"431 634 CURVE",
"431 710 OFFCURVE",
"366 760 OFFCURVE",
"270 760 CURVE",
"154 760 OFFCURVE",
"90 693 OFFCURVE",
"90 573 CURVE SMOOTH"
);
}
);
width = 538;
}
);
unicode = 00DF;
},
{
color = (0,0,255,255);
glyphname = D_E;
layers = (
{
layerId = master01;
paths = (
{
closed = 1;
nodes = (
"215 355 LINE SMOOTH",
"263 355 OFFCURVE",
"284 333 OFFCURVE",
"284 283 CURVE",
"321 283 LINE",
"321 467 LINE",
"284 467 LINE",
"284 419 OFFCURVE",
"261 395 OFFCURVE",
"215 395 CURVE SMOOTH",
"118 395 LINE",
"118 355 LINE"
);
},
{
closed = 1;
nodes = (
"196 11 LINE",
"196 739 LINE",
"84 739 LINE",
"84 11 LINE"
);
},
{
closed = 1;
nodes = (
"302 0 LINE SMOOTH",
"426 0 OFFCURVE",
"487 71 OFFCURVE",
"487 214 CURVE SMOOTH",
"487 536 LINE SMOOTH",
"487 679 OFFCURVE",
"426 750 OFFCURVE",
"302 750 CURVE SMOOTH",
"84 750 LINE",
"84 670 LINE",
"196 670 LINE",
"196 710 LINE",
"302 710 LINE SMOOTH",
"347 710 OFFCURVE",
"377 672 OFFCURVE",
"377 614 CURVE SMOOTH",
"377 136 LINE SMOOTH",
"377 78 OFFCURVE",
"347 40 OFFCURVE",
"302 40 CURVE SMOOTH",
"196 40 LINE",
"196 80 LINE",
"84 80 LINE",
"84 0 LINE"
);
},
{
closed = 1;
nodes = (
"67 713 OFFCURVE",
"84 701 OFFCURVE",
"84 670 CURVE",
"141 670 LINE",
"141 750 LINE",
"24 750 LINE",
"24 713 LINE"
);
},
{
closed = 1;
nodes = (
"24 0 LINE",
"141 0 LINE",
"141 80 LINE",
"84 80 LINE",
"84 49 OFFCURVE",
"67 37 OFFCURVE",
"24 37 CURVE"
);
}
);
width = 534;
},
{
associatedMasterId = master01;
layerId = "1AEF1B85-B596-4BC4-BF6C-7DC23AB0DB28";
name = foreground;
paths = (
{
closed = 1;
nodes = (
"215 355 LINE SMOOTH",
"263 355 OFFCURVE",
"284 333 OFFCURVE",
"284 283 CURVE",
"321 283 LINE",
"321 467 LINE",
"284 467 LINE",
"284 419 OFFCURVE",
"261 395 OFFCURVE",
"215 395 CURVE SMOOTH",
"118 395 LINE",
"118 355 LINE"
);
},
{
closed = 1;
nodes = (
"196 11 LINE",
"196 739 LINE",
"84 739 LINE",
"84 11 LINE"
);
},
{
closed = 1;
nodes = (
"302 0 LINE SMOOTH",
"426 0 OFFCURVE",
"487 71 OFFCURVE",
"487 214 CURVE SMOOTH",
"487 536 LINE SMOOTH",
"487 679 OFFCURVE",
"426 750 OFFCURVE",
"302 750 CURVE SMOOTH",
"84 750 LINE",
"84 670 LINE",
"196 670 LINE",
"196 710 LINE",
"302 710 LINE SMOOTH",
"347 710 OFFCURVE",
"377 672 OFFCURVE",
"377 614 CURVE SMOOTH",
"377 136 LINE SMOOTH",
"377 78 OFFCURVE",
"347 40 OFFCURVE",
"302 40 CURVE SMOOTH",
"196 40 LINE",
"196 80 LINE",
"84 80 LINE",
"84 0 LINE"
);
},
{
closed = 1;
nodes = (
"67 713 OFFCURVE",
"84 701 OFFCURVE",
"84 670 CURVE",
"141 670 LINE",
"141 750 LINE",
"24 750 LINE",
"24 713 LINE"
);
},
{
closed = 1;
nodes = (
"24 0 LINE",
"141 0 LINE",
"141 80 LINE",
"84 80 LINE",
"84 49 OFFCURVE",
"67 37 OFFCURVE",
"24 37 CURVE"
);
}
);
width = 534;
}
);
},
{
color = (0,0,255,255);
glyphname = E_A;
layers = (
{
layerId = master01;
paths = (
{
closed = 1;
nodes = (
"202 11 LINE",
"202 739 LINE",
"90 739 LINE",
"90 11 LINE"
);
},
{
closed = 1;
nodes = (
"228 375 LINE SMOOTH",
"276 375 OFFCURVE",
"297 353 OFFCURVE",
"297 303 CURVE",
"334 303 LINE",
"334 487 LINE",
"297 487 LINE",
"297 439 OFFCURVE",
"274 415 OFFCURVE",
"228 415 CURVE SMOOTH",
"131 415 LINE",
"131 375 LINE"
);
},
{
closed = 1;
nodes = (
"202 670 LINE",
"202 710 LINE",
"269 710 LINE SMOOTH",
"359 710 OFFCURVE",
"381 693 OFFCURVE",
"415 598 CURVE",
"449 607 LINE",
"405 788 LINE",
"371 788 LINE",
"367 760 OFFCURVE",
"355 750 OFFCURVE",
"325 750 CURVE SMOOTH",
"90 750 LINE",
"90 670 LINE"
);
},
{
closed = 1;
nodes = (
"73 713 OFFCURVE",
"90 701 OFFCURVE",
"90 670 CURVE",
"147 670 LINE",
"147 750 LINE",
"30 750 LINE",
"30 713 LINE"
);
},
{
closed = 1;
nodes = (
"30 0 LINE",
"147 0 LINE",
"147 80 LINE",
"90 80 LINE",
"90 49 OFFCURVE",
"73 37 OFFCURVE",
"30 37 CURVE"
);
},
{
closed = 1;
nodes = (
"729 179 LINE",
"729 219 LINE",
"486 219 LINE",
"486 179 LINE"
);
},
{
closed = 1;
nodes = (
"430 52 OFFCURVE",
"413 40 OFFCURVE",
"374 40 CURVE SMOOTH",
"202 40 LINE",
"202 80 LINE",
"90 80 LINE",
"90 0 LINE",
"351 0 LINE SMOOTH",
"396 0 OFFCURVE",
"414 -8 OFFCURVE",
"420 -31 CURVE",
"457 -31 LINE",
"599 617 LINE",
"565 617 LINE",
"678 78 LINE SMOOTH",
"684 49 OFFCURVE",
"666 37 OFFCURVE",
"618 37 CURVE",
"618 0 LINE",
"850 0 LINE",
"850 37 LINE",
"810 37 OFFCURVE",
"797 46 OFFCURVE",
"790 79 CURVE SMOOTH",
"635 764 LINE",
"587 764 LINE",
"437 84 LINE SMOOTH"
);
}
);
width = 853;
},
{
associatedMasterId = master01;
layerId = "AC5164AF-817E-49C5-B6E5-C2321119217A";
name = foreground;
paths = (
{
closed = 1;
nodes = (
"202 11 LINE",
"202 739 LINE",
"90 739 LINE",
"90 11 LINE"
);
},
{
closed = 1;
nodes = (
"228 375 LINE SMOOTH",
"276 375 OFFCURVE",
"297 353 OFFCURVE",
"297 303 CURVE",
"334 303 LINE",
"334 487 LINE",
"297 487 LINE",
"297 439 OFFCURVE",
"274 415 OFFCURVE",
"228 415 CURVE SMOOTH",
"131 415 LINE",
"131 375 LINE"
);
},
{
closed = 1;
nodes = (
"202 670 LINE",
"202 710 LINE",
"269 710 LINE SMOOTH",
"359 710 OFFCURVE",
"381 693 OFFCURVE",
"415 598 CURVE",
"449 607 LINE",
"405 788 LINE",
"371 788 LINE",
"367 760 OFFCURVE",
"355 750 OFFCURVE",
"325 750 CURVE SMOOTH",
"90 750 LINE",
"90 670 LINE"
);
},
{
closed = 1;
nodes = (
"73 713 OFFCURVE",
"90 701 OFFCURVE",
"90 670 CURVE",
"147 670 LINE",
"147 750 LINE",
"30 750 LINE",
"30 713 LINE"
);
},
{
closed = 1;
nodes = (
"30 0 LINE",
"147 0 LINE",
"147 80 LINE",
"90 80 LINE",
"90 49 OFFCURVE",
"73 37 OFFCURVE",
"30 37 CURVE"
);
},
{
closed = 1;
nodes = (
"729 179 LINE",
"729 219 LINE",
"486 219 LINE",
"486 179 LINE"
);
},
{
closed = 1;
nodes = (
"430 52 OFFCURVE",
"413 40 OFFCURVE",
"374 40 CURVE SMOOTH",
"202 40 LINE",
"202 80 LINE",
"90 80 LINE",
"90 0 LINE",
"351 0 LINE SMOOTH",
"396 0 OFFCURVE",
"414 -8 OFFCURVE",
"420 -31 CURVE",
"457 -31 LINE",
"599 617 LINE",
"565 617 LINE",
"678 78 LINE SMOOTH",
"684 49 OFFCURVE",
"666 37 OFFCURVE",
"618 37 CURVE",
"618 0 LINE",
"850 0 LINE",
"850 37 LINE",
"810 37 OFFCURVE",
"797 46 OFFCURVE",
"790 79 CURVE SMOOTH",
"635 764 LINE",
"587 764 LINE",
"437 84 LINE SMOOTH"
);
}
);
width = 853;
}
);
rightKerningGroup = "UnderRight-Capitals";
},
{
color = (0,0,255,255);
glyphname = E_a;
layers = (
{
layerId = master01;
paths = (
{
closed = 1;
nodes = (
"202 11 LINE",
"202 739 LINE",
"90 739 LINE",
"90 11 LINE"
);
},
{
closed = 1;
nodes = (
"228 375 LINE SMOOTH",
"276 375 OFFCURVE",
"297 353 OFFCURVE",
"297 303 CURVE",
"334 303 LINE",
"334 487 LINE",
"297 487 LINE",
"297 439 OFFCURVE",
"274 415 OFFCURVE",
"228 415 CURVE SMOOTH",
"131 415 LINE",
"131 375 LINE"
);
},
{
closed = 1;
nodes = (
"202 670 LINE",
"202 710 LINE",
"269 710 LINE SMOOTH",
"359 710 OFFCURVE",
"381 693 OFFCURVE",
"415 598 CURVE",
"449 607 LINE",
"405 788 LINE",
"371 788 LINE",
"367 760 OFFCURVE",
"355 750 OFFCURVE",
"325 750 CURVE SMOOTH",
"90 750 LINE",
"90 670 LINE"
);
},
{
closed = 1;
nodes = (
"73 713 OFFCURVE",
"90 701 OFFCURVE",
"90 670 CURVE",
"147 670 LINE",
"147 750 LINE",
"30 750 LINE",
"30 713 LINE"
);
},
{
closed = 1;
nodes = (
"33 0 LINE",
"150 0 LINE",
"150 80 LINE",
"93 80 LINE",
"93 49 OFFCURVE",
"76 37 OFFCURVE",
"33 37 CURVE"
);
},
{
closed = 1;
nodes = (
"745 145 LINE",
"745 183 LINE",
"492 183 LINE",
"492 145 LINE"
);
},
{
closed = 1;
nodes = (
"433 47 OFFCURVE",
"418 39 OFFCURVE",
"321 39 CURVE SMOOTH",
"202 39 LINE",
"202 77 LINE",
"93 77 LINE",
"93 0 LINE",
"354 0 LINE SMOOTH",
"401 0 OFFCURVE",
"417 -5 OFFCURVE",
"423 -21 CURVE",
"457 -21 LINE",
"604 427 LINE",
"582 427 LINE",
"692 78 LINE SMOOTH",
"701 50 OFFCURVE",
"682 37 OFFCURVE",
"631 37 CURVE",
"631 0 LINE",
"861 0 LINE",
"861 37 LINE",
"820 37 OFFCURVE",
"811 44 OFFCURVE",
"799 79 CURVE SMOOTH",
"643 544 LINE",
"595 544 LINE",
"474 173 LINE SMOOTH"
);
}
);
width = 853;
},
{
associatedMasterId = master01;
layerId = "3544B438-5C45-41A3-B16F-56452CF810B9";
name = foreground;
paths = (
{
closed = 1;
nodes = (
"202 11 LINE",
"202 739 LINE",
"90 739 LINE",
"90 11 LINE"
);
},
{
closed = 1;
nodes = (
"228 375 LINE SMOOTH",
"276 375 OFFCURVE",
"297 353 OFFCURVE",
"297 303 CURVE",
"334 303 LINE",
"334 487 LINE",
"297 487 LINE",
"297 439 OFFCURVE",
"274 415 OFFCURVE",
"228 415 CURVE SMOOTH",
"131 415 LINE",
"131 375 LINE"
);
},
{
closed = 1;
nodes = (
"202 670 LINE",
"202 710 LINE",
"269 710 LINE SMOOTH",
"359 710 OFFCURVE",
"381 693 OFFCURVE",
"415 598 CURVE",
"449 607 LINE",
"405 788 LINE",
"371 788 LINE",
"367 760 OFFCURVE",
"355 750 OFFCURVE",
"325 750 CURVE SMOOTH",
"90 750 LINE",
"90 670 LINE"
);
},
{
closed = 1;
nodes = (
"73 713 OFFCURVE",
"90 701 OFFCURVE",
"90 670 CURVE",
"147 670 LINE",
"147 750 LINE",
"30 750 LINE",
"30 713 LINE"
);
},
{
closed = 1;
nodes = (
"33 0 LINE",
"150 0 LINE",
"150 80 LINE",
"93 80 LINE",
"93 49 OFFCURVE",
"76 37 OFFCURVE",
"33 37 CURVE"
);
},
{
closed = 1;
nodes = (
"745 145 LINE",
"745 183 LINE",
"492 183 LINE",
"492 145 LINE"
);
},
{
closed = 1;
nodes = (
"433 47 OFFCURVE",
"418 39 OFFCURVE",
"321 39 CURVE SMOOTH",
"202 39 LINE",
"202 77 LINE",
"93 77 LINE",
"93 0 LINE",
"354 0 LINE SMOOTH",
"401 0 OFFCURVE",
"417 -5 OFFCURVE",
"423 -21 CURVE",
"457 -21 LINE",
"604 427 LINE",
"582 427 LINE",
"692 78 LINE SMOOTH",
"701 50 OFFCURVE",
"682 37 OFFCURVE",
"631 37 CURVE",
"631 0 LINE",
"861 0 LINE",
"861 37 LINE",
"820 37 OFFCURVE",
"811 44 OFFCURVE",
"799 79 CURVE SMOOTH",
"643 544 LINE",
"595 544 LINE",
"474 173 LINE SMOOTH"
);
}
);
width = 853;
}
);
},
{
color = (0,0,255,255);
glyphname = L_A;
layers = (
{
layerId = master01;
paths = (
{
closed = 1;
nodes = (
"202 11 LINE",
"202 739 LINE",
"90 739 LINE",
"90 11 LINE"
);
},
{
closed = 1;
nodes = (
"73 713 OFFCURVE",
"90 701 OFFCURVE",
"90 670 CURVE",
"202 670 LINE",
"202 701 OFFCURVE",
"219 713 OFFCURVE",
"262 713 CURVE",
"262 750 LINE",
"30 750 LINE",
"30 713 LINE"
);
},
{
closed = 1;
nodes = (
"30 0 LINE",
"147 0 LINE",
"147 80 LINE",
"90 80 LINE",
"90 49 OFFCURVE",
"73 37 OFFCURVE",
"30 37 CURVE"
);
},
{
closed = 1;
nodes = (
"709 179 LINE",
"709 219 LINE",
"466 219 LINE",
"466 179 LINE"
);
},
{
closed = 1;
nodes = (
"410 52 OFFCURVE",
"393 40 OFFCURVE",
"354 40 CURVE SMOOTH",
"202 40 LINE",
"202 80 LINE",
"90 80 LINE",
"90 0 LINE",
"331 0 LINE SMOOTH",
"376 0 OFFCURVE",
"394 -8 OFFCURVE",
"400 -31 CURVE",
"437 -31 LINE",
"465 97 LINE",
"579 617 LINE",
"545 617 LINE",
"658 78 LINE SMOOTH",
"664 49 OFFCURVE",
"646 37 OFFCURVE",
"598 37 CURVE",
"598 0 LINE",
"830 0 LINE",
"830 37 LINE",
"790 37 OFFCURVE",
"777 46 OFFCURVE",
"770 79 CURVE SMOOTH",
"615 764 LINE",
"567 764 LINE",
"417 84 LINE SMOOTH"
);
}
);
width = 833;
},
{
associatedMasterId = master01;
layerId = "36EECC31-190F-44FB-AAFF-06A567E8786C";
name = foreground;
paths = (
{
closed = 1;
nodes = (
"202 11 LINE",
"202 739 LINE",
"90 739 LINE",
"90 11 LINE"
);
},
{
closed = 1;
nodes = (
"73 713 OFFCURVE",
"90 701 OFFCURVE",
"90 670 CURVE",
"202 670 LINE",
"202 701 OFFCURVE",
"219 713 OFFCURVE",
"262 713 CURVE",
"262 750 LINE",
"30 750 LINE",
"30 713 LINE"
);
},
{
closed = 1;
nodes = (
"30 0 LINE",
"147 0 LINE",
"147 80 LINE",
"90 80 LINE",
"90 49 OFFCURVE",
"73 37 OFFCURVE",
"30 37 CURVE"
);
},
{
closed = 1;
nodes = (
"709 179 LINE",
"709 219 LINE",
"466 219 LINE",
"466 179 LINE"
);
},
{
closed = 1;
nodes = (
"410 52 OFFCURVE",
"393 40 OFFCURVE",
"354 40 CURVE SMOOTH",
"202 40 LINE",
"202 80 LINE",
"90 80 LINE",
"90 0 LINE",
"331 0 LINE SMOOTH",
"376 0 OFFCURVE",
"394 -8 OFFCURVE",
"400 -31 CURVE",
"437 -31 LINE",
"465 97 LINE",
"579 617 LINE",
"545 617 LINE",
"658 78 LINE SMOOTH",
"664 49 OFFCURVE",
"646 37 OFFCURVE",
"598 37 CURVE",
"598 0 LINE",
"830 0 LINE",
"830 37 LINE",
"790 37 OFFCURVE",
"777 46 OFFCURVE",
"770 79 CURVE SMOOTH",
"615 764 LINE",
"567 764 LINE",
"417 84 LINE SMOOTH"
);
}
);
width = 833;
}
);
rightKerningGroup = "UnderRight-Capitals";
},
{
color = (0,0,255,255);
glyphname = L_a;
layers = (
{
layerId = master01;
paths = (
{
closed = 1;
nodes = (
"202 11 LINE",
"202 739 LINE",
"90 739 LINE",
"90 11 LINE"
);
},
{
closed = 1;
nodes = (
"73 713 OFFCURVE",
"90 701 OFFCURVE",
"90 670 CURVE",
"202 670 LINE",
"202 701 OFFCURVE",
"219 713 OFFCURVE",
"262 713 CURVE",
"262 750 LINE",
"30 750 LINE",
"30 713 LINE"
);
},
{
closed = 1;
nodes = (
"30 0 LINE",
"147 0 LINE",
"147 80 LINE",
"90 80 LINE",
"90 49 OFFCURVE",
"73 37 OFFCURVE",
"30 37 CURVE"
);
},
{
closed = 1;
nodes = (
"708 145 LINE",
"708 183 LINE",
"455 183 LINE",
"455 145 LINE"
);
},
{
closed = 1;
nodes = (
"30 0 LINE",
"147 0 LINE",
"147 80 LINE",
"90 80 LINE",
"90 49 OFFCURVE",
"73 37 OFFCURVE",
"30 37 CURVE"
);
},
{
closed = 1;
nodes = (
"410 52 OFFCURVE",
"393 40 OFFCURVE",
"354 40 CURVE SMOOTH",
"202 40 LINE",
"202 80 LINE",
"90 80 LINE",
"90 0 LINE",
"331 0 LINE SMOOTH",
"376 0 OFFCURVE",
"394 -8 OFFCURVE",
"400 -31 CURVE",
"432 -31 LINE",
"570 427 LINE",
"553 427 LINE",
"663 78 LINE SMOOTH",
"672 50 OFFCURVE",
"653 37 OFFCURVE",
"602 37 CURVE",
"602 0 LINE",
"832 0 LINE",
"832 37 LINE",
"791 37 OFFCURVE",
"782 44 OFFCURVE",
"770 79 CURVE SMOOTH",
"614 544 LINE",
"566 544 LINE",
"417 84 LINE"
);
}
);
width = 835;
},
{
associatedMasterId = master01;
layerId = "5B34DC04-A615-45CE-918B-8F352F5D0CFA";
name = foreground;
paths = (
{
closed = 1;
nodes = (
"202 11 LINE",
"202 739 LINE",
"90 739 LINE",
"90 11 LINE"
);
},
{
closed = 1;
nodes = (
"73 713 OFFCURVE",
"90 701 OFFCURVE",
"90 670 CURVE",
"202 670 LINE",
"202 701 OFFCURVE",
"219 713 OFFCURVE",
"262 713 CURVE",
"262 750 LINE",
"30 750 LINE",
"30 713 LINE"
);
},
{
closed = 1;
nodes = (
"30 0 LINE",
"147 0 LINE",
"147 80 LINE",
"90 80 LINE",
"90 49 OFFCURVE",
"73 37 OFFCURVE",
"30 37 CURVE"
);
},
{
closed = 1;
nodes = (
"708 145 LINE",
"708 183 LINE",
"455 183 LINE",
"455 145 LINE"
);
},
{
closed = 1;
nodes = (
"30 0 LINE",
"147 0 LINE",
"147 80 LINE",
"90 80 LINE",
"90 49 OFFCURVE",
"73 37 OFFCURVE",
"30 37 CURVE"
);
},
{
closed = 1;
nodes = (
"410 52 OFFCURVE",
"393 40 OFFCURVE",
"354 40 CURVE SMOOTH",
"202 40 LINE",
"202 80 LINE",
"90 80 LINE",
"90 0 LINE",
"331 0 LINE SMOOTH",
"376 0 OFFCURVE",
"394 -8 OFFCURVE",
"400 -31 CURVE",
"432 -31 LINE",
"570 427 LINE",
"553 427 LINE",
"663 78 LINE SMOOTH",
"672 50 OFFCURVE",
"653 37 OFFCURVE",
"602 37 CURVE",
"602 0 LINE",
"832 0 LINE",
"832 37 LINE",
"791 37 OFFCURVE",
"782 44 OFFCURVE",
"770 79 CURVE SMOOTH",
"614 544 LINE",
"566 544 LINE",
"417 84 LINE"
);
}
);
width = 835;
}
);
rightKerningGroup = "UnderRight-Capitals";
},
{
color = (0,0,255,255);
glyphname = R_R;
layers = (
{
layerId = master01;
paths = (
{
closed = 1;
nodes = (
"202 11 LINE",
"202 739 LINE",
"90 739 LINE",
"90 11 LINE"
);
},
{
closed = 1;
nodes = (
"324 323 OFFCURVE",
"353 282 OFFCURVE",
"353 223 CURVE SMOOTH",
"353 195 LINE SMOOTH",
"353 66 OFFCURVE",
"404 0 OFFCURVE",
"541 0 CURVE",
"541 0 OFFCURVE",
"558 0 OFFCURVE",
"558 0 CURVE",
"558 37 LINE",
"541 37 LINE SMOOTH",
"497 37 OFFCURVE",
"468 77 OFFCURVE",
"468 136 CURVE SMOOTH",
"468 149 LINE SMOOTH",
"468 290 OFFCURVE",
"407 363 OFFCURVE",
"280 363 CURVE",
"280 363 OFFCURVE",
"263 363 OFFCURVE",
"263 363 CURVE",
"263 323 LINE",
"280 323 LINE"
);
},
{
closed = 1;
nodes = (
"474 676 OFFCURVE",
"413 750 OFFCURVE",
"286 750 CURVE SMOOTH",
"30 750 LINE",
"30 713 LINE",
"77 713 OFFCURVE",
"90 704 OFFCURVE",
"90 670 CURVE",
"198 670 LINE",
"198 710 LINE",
"286 710 LINE SMOOTH",
"330 710 OFFCURVE",
"359 673 OFFCURVE",
"359 614 CURVE SMOOTH",
"359 461 LINE SMOOTH",
"359 402 OFFCURVE",
"330 363 OFFCURVE",
"286 363 CURVE SMOOTH",
"250 363 LINE",
"250 323 LINE",
"286 323 LINE SMOOTH",
"413 323 OFFCURVE",
"474 394 OFFCURVE",
"474 535 CURVE"
);
},
{
closed = 1;
nodes = (
"90 46 OFFCURVE",
"77 37 OFFCURVE",
"30 37 CURVE",
"30 0 LINE",
"262 0 LINE",
"262 37 LINE",
"215 37 OFFCURVE",
"202 46 OFFCURVE",
"202 80 CURVE",
"90 80 LINE"
);
},
{
closed = 1;
nodes = (
"713 11 LINE",
"713 739 LINE",
"601 739 LINE",
"601 11 LINE"
);
},
{
closed = 1;
nodes = (
"773 0 LINE",
"773 37 LINE",
"726 37 OFFCURVE",
"713 46 OFFCURVE",
"713 80 CURVE",
"601 80 LINE",
"601 0 LINE"
);
},
{
closed = 1;
nodes = (
"835 323 OFFCURVE",
"864 282 OFFCURVE",
"864 223 CURVE SMOOTH",
"864 195 LINE SMOOTH",
"864 66 OFFCURVE",
"915 0 OFFCURVE",
"1052 0 CURVE",
"1052 0 OFFCURVE",
"1073 0 OFFCURVE",
"1073 0 CURVE",
"1073 37 LINE",
"1052 37 LINE SMOOTH",
"1008 37 OFFCURVE",
"979 77 OFFCURVE",
"979 136 CURVE SMOOTH",
"979 149 LINE SMOOTH",
"979 290 OFFCURVE",
"918 363 OFFCURVE",
"791 363 CURVE",
"791 363 OFFCURVE",
"774 363 OFFCURVE",
"774 363 CURVE",
"774 323 LINE",
"791 323 LINE"
);
},
{
closed = 1;
nodes = (
"985 676 OFFCURVE",
"924 750 OFFCURVE",
"797 750 CURVE SMOOTH",
"541 750 LINE",
"541 713 LINE",
"588 713 OFFCURVE",
"601 704 OFFCURVE",
"601 670 CURVE",
"709 670 LINE",
"709 710 LINE",
"797 710 LINE SMOOTH",
"841 710 OFFCURVE",
"870 673 OFFCURVE",
"870 614 CURVE SMOOTH",
"870 461 LINE SMOOTH",
"870 402 OFFCURVE",
"841 363 OFFCURVE",
"797 363 CURVE SMOOTH",
"761 363 LINE",
"761 323 LINE",
"797 323 LINE SMOOTH",
"924 323 OFFCURVE",
"985 394 OFFCURVE",
"985 535 CURVE"
);
}
);
width = 1065;
},
{
associatedMasterId = master01;
layerId = "F694A234-9B80-42E4-9382-051DE111EE8E";
name = foreground;
paths = (
{
closed = 1;
nodes = (
"202 11 LINE",
"202 739 LINE",
"90 739 LINE",
"90 11 LINE"
);
},
{
closed = 1;
nodes = (
"324 323 OFFCURVE",
"353 282 OFFCURVE",
"353 223 CURVE SMOOTH",
"353 195 LINE SMOOTH",
"353 66 OFFCURVE",
"404 0 OFFCURVE",
"541 0 CURVE",
"541 0 OFFCURVE",
"558 0 OFFCURVE",
"558 0 CURVE",
"558 37 LINE",
"541 37 LINE SMOOTH",
"497 37 OFFCURVE",
"468 77 OFFCURVE",
"468 136 CURVE SMOOTH",
"468 149 LINE SMOOTH",
"468 290 OFFCURVE",
"407 363 OFFCURVE",
"280 363 CURVE",
"280 363 OFFCURVE",
"263 363 OFFCURVE",
"263 363 CURVE",
"263 323 LINE",
"280 323 LINE"
);
},
{
closed = 1;
nodes = (
"474 676 OFFCURVE",
"413 750 OFFCURVE",
"286 750 CURVE SMOOTH",
"30 750 LINE",
"30 713 LINE",
"77 713 OFFCURVE",
"90 704 OFFCURVE",
"90 670 CURVE",
"198 670 LINE",
"198 710 LINE",
"286 710 LINE SMOOTH",
"330 710 OFFCURVE",
"359 673 OFFCURVE",
"359 614 CURVE SMOOTH",
"359 461 LINE SMOOTH",
"359 402 OFFCURVE",
"330 363 OFFCURVE",
"286 363 CURVE SMOOTH",
"250 363 LINE",
"250 323 LINE",
"286 323 LINE SMOOTH",
"413 323 OFFCURVE",
"474 394 OFFCURVE",
"474 535 CURVE"
);
},
{
closed = 1;
nodes = (
"90 46 OFFCURVE",
"77 37 OFFCURVE",
"30 37 CURVE",
"30 0 LINE",
"262 0 LINE",
"262 37 LINE",
"215 37 OFFCURVE",
"202 46 OFFCURVE",
"202 80 CURVE",
"90 80 LINE"
);
},
{
closed = 1;
nodes = (
"713 11 LINE",
"713 739 LINE",
"601 739 LINE",
"601 11 LINE"
);
},
{
closed = 1;
nodes = (
"773 0 LINE",
"773 37 LINE",
"726 37 OFFCURVE",
"713 46 OFFCURVE",
"713 80 CURVE",
"601 80 LINE",
"601 0 LINE"
);
},
{
closed = 1;
nodes = (
"835 323 OFFCURVE",
"864 282 OFFCURVE",
"864 223 CURVE SMOOTH",
"864 195 LINE SMOOTH",
"864 66 OFFCURVE",
"915 0 OFFCURVE",
"1052 0 CURVE",
"1052 0 OFFCURVE",
"1073 0 OFFCURVE",
"1073 0 CURVE",
"1073 37 LINE",
"1052 37 LINE SMOOTH",
"1008 37 OFFCURVE",
"979 77 OFFCURVE",
"979 136 CURVE SMOOTH",
"979 149 LINE SMOOTH",
"979 290 OFFCURVE",
"918 363 OFFCURVE",
"791 363 CURVE",
"791 363 OFFCURVE",
"774 363 OFFCURVE",
"774 363 CURVE",
"774 323 LINE",
"791 323 LINE"
);
},
{
closed = 1;
nodes = (
"985 676 OFFCURVE",
"924 750 OFFCURVE",
"797 750 CURVE SMOOTH",
"541 750 LINE",
"541 713 LINE",
"588 713 OFFCURVE",
"601 704 OFFCURVE",
"601 670 CURVE",
"709 670 LINE",
"709 710 LINE",
"797 710 LINE SMOOTH",
"841 710 OFFCURVE",
"870 673 OFFCURVE",
"870 614 CURVE SMOOTH",
"870 461 LINE SMOOTH",
"870 402 OFFCURVE",
"841 363 OFFCURVE",
"797 363 CURVE SMOOTH",
"761 363 LINE",
"761 323 LINE",
"797 323 LINE SMOOTH",
"924 323 OFFCURVE",
"985 394 OFFCURVE",
"985 535 CURVE"
);
}
);
width = 1065;
}
);
},
{
color = (0,0,255,255);
glyphname = T_E;
layers = (
{
components = (
{
name = smallcomponents_btm_half_serif;
transform = "{1, 0, 0, 1, 459, 0}";
}
);
layerId = master01;
paths = (
{
closed = 1;
nodes = (
"313 11 LINE",
"313 731 LINE",
"201 731 LINE",
"201 11 LINE"
);
},
{
closed = 1;
nodes = (
"141 0 LINE",
"373 0 LINE",
"373 37 LINE",
"330 37 OFFCURVE",
"313 49 OFFCURVE",
"313 80 CURVE",
"201 80 LINE",
"201 49 OFFCURVE",
"184 37 OFFCURVE",
"141 37 CURVE"
);
},
{
closed = 1;
nodes = (
"693 375 LINE SMOOTH",
"741 375 OFFCURVE",
"762 353 OFFCURVE",
"762 303 CURVE",
"799 303 LINE",
"799 487 LINE",
"762 487 LINE",
"762 439 OFFCURVE",
"739 415 OFFCURVE",
"693 415 CURVE SMOOTH",
"596 415 LINE",
"596 375 LINE"
);
},
{
closed = 1;
nodes = (
"828 0 LINE SMOOTH",
"873 0 OFFCURVE",
"891 -8 OFFCURVE",
"897 -31 CURVE",
"934 -31 LINE",
"934 171 LINE",
"899 171 LINE",
"886 62 OFFCURVE",
"865 40 OFFCURVE",
"775 40 CURVE SMOOTH",
"667 40 LINE",
"667 80 LINE",
"555 80 LINE",
"555 0 LINE"
);
},
{
closed = 1;
nodes = (
"734 713 LINE SMOOTH",
"824 713 OFFCURVE",
"846 693 OFFCURVE",
"880 598 CURVE",
"914 608 LINE",
"870 789 LINE",
"836 788 LINE",
"832 760 OFFCURVE",
"820 750 OFFCURVE",
"790 750 CURVE SMOOTH",
"497 750 LINE SMOOTH",
"467 750 OFFCURVE",
"457 758 OFFCURVE",
"451 787 CURVE",
"415 787 LINE",
"409 758 OFFCURVE",
"399 750 OFFCURVE",
"369 750 CURVE SMOOTH",
"132 750 LINE SMOOTH",
"101 750 OFFCURVE",
"91 758 OFFCURVE",
"86 787 CURVE",
"52 787 LINE",
"8 576 LINE",
"45 567 LINE",
"79 684 OFFCURVE",
"107 713 OFFCURVE",
"188 713 CURVE SMOOTH",
"509 713 LINE SMOOTH",
"539 713 OFFCURVE",
"555 703 OFFCURVE",
"555 673 CURVE SMOOTH",
"555 11 LINE",
"667 11 LINE",
"667 739 LINE",
"583 713 LINE"
);
}
);
width = 948;
},
{
associatedMasterId = master01;
components = (
{
name = smallcomponents_btm_half_serif;
transform = "{1, 0, 0, 1, 459, 0}";
}
);
layerId = "BBAB3957-72DB-49C0-961E-D5754C68B6E7";
name = foreground;
paths = (
{
closed = 1;
nodes = (
"313 11 LINE",
"313 731 LINE",
"201 731 LINE",
"201 11 LINE"
);
},
{
closed = 1;
nodes = (
"141 0 LINE",
"373 0 LINE",
"373 37 LINE",
"330 37 OFFCURVE",
"313 49 OFFCURVE",
"313 80 CURVE",
"201 80 LINE",
"201 49 OFFCURVE",
"184 37 OFFCURVE",
"141 37 CURVE"
);
},
{
closed = 1;
nodes = (
"693 375 LINE SMOOTH",
"741 375 OFFCURVE",
"762 353 OFFCURVE",
"762 303 CURVE",
"799 303 LINE",
"799 487 LINE",
"762 487 LINE",
"762 439 OFFCURVE",
"739 415 OFFCURVE",
"693 415 CURVE SMOOTH",
"596 415 LINE",
"596 375 LINE"
);
},
{
closed = 1;
nodes = (
"828 0 LINE SMOOTH",
"873 0 OFFCURVE",
"891 -8 OFFCURVE",
"897 -31 CURVE",
"934 -31 LINE",
"934 171 LINE",
"899 171 LINE",
"886 62 OFFCURVE",
"865 40 OFFCURVE",
"775 40 CURVE SMOOTH",
"667 40 LINE",
"667 80 LINE",
"555 80 LINE",
"555 0 LINE"
);
},
{
closed = 1;
nodes = (
"734 713 LINE SMOOTH",
"824 713 OFFCURVE",
"846 693 OFFCURVE",
"880 598 CURVE",
"914 608 LINE",
"870 789 LINE",
"836 788 LINE",
"832 760 OFFCURVE",
"820 750 OFFCURVE",
"790 750 CURVE SMOOTH",
"497 750 LINE SMOOTH",
"467 750 OFFCURVE",
"457 758 OFFCURVE",
"451 787 CURVE",
"415 787 LINE",
"409 758 OFFCURVE",
"399 750 OFFCURVE",
"369 750 CURVE SMOOTH",
"132 750 LINE SMOOTH",
"101 750 OFFCURVE",
"91 758 OFFCURVE",
"86 787 CURVE",
"52 787 LINE",
"8 576 LINE",
"45 567 LINE",
"79 684 OFFCURVE",
"107 713 OFFCURVE",
"188 713 CURVE SMOOTH",
"509 713 LINE SMOOTH",
"539 713 OFFCURVE",
"555 703 OFFCURVE",
"555 673 CURVE SMOOTH",
"555 11 LINE",
"667 11 LINE",
"667 739 LINE",
"583 713 LINE"
);
}
);
width = 948;
}
);
leftKerningGroup = "OverLeft-Capitals";
},
{
color = (0,0,255,255);
glyphname = T_T;
layers = (
{
layerId = master01;
paths = (
{
closed = 1;
nodes = (
"313 11 LINE",
"313 739 LINE",
"201 739 LINE",
"201 11 LINE"
);
},
{
closed = 1;
nodes = (
"705 11 LINE",
"705 739 LINE",
"593 739 LINE",
"593 11 LINE"
);
},
{
closed = 1;
nodes = (
"102 750 OFFCURVE",
"92 758 OFFCURVE",
"86 787 CURVE",
"52 787 LINE",
"8 576 LINE",
"45 567 LINE",
"79 685 OFFCURVE",
"111 710 OFFCURVE",
"188 710 CURVE",
"391 710 LINE SMOOTH",
"421 710 OFFCURVE",
"431 702 OFFCURVE",
"437 673 CURVE",
"473 673 LINE",
"479 702 OFFCURVE",
"489 710 OFFCURVE",
"519 710 CURVE SMOOTH",
"724 710 LINE SMOOTH",
"801 710 OFFCURVE",
"833 685 OFFCURVE",
"867 567 CURVE",
"904 576 LINE",
"860 787 LINE",
"826 787 LINE",
"820 757 OFFCURVE",
"811 750 OFFCURVE",
"780 750 CURVE",
"519 750 LINE SMOOTH",
"489 750 OFFCURVE",
"479 758 OFFCURVE",
"473 787 CURVE",
"437 787 LINE",
"431 758 OFFCURVE",
"421 750 OFFCURVE",
"391 750 CURVE SMOOTH",
"132 750 LINE SMOOTH"
);
},
{
closed = 1;
nodes = (
"141 0 LINE",
"373 0 LINE",
"373 37 LINE",
"330 37 OFFCURVE",
"313 49 OFFCURVE",
"313 80 CURVE",
"201 80 LINE",
"201 49 OFFCURVE",
"184 37 OFFCURVE",
"141 37 CURVE"
);
},
{
closed = 1;
nodes = (
"534 0 LINE",
"766 0 LINE",
"766 37 LINE",
"723 37 OFFCURVE",
"706 49 OFFCURVE",
"706 80 CURVE",
"594 80 LINE",
"594 49 OFFCURVE",
"577 37 OFFCURVE",
"534 37 CURVE"
);
}
);
width = 912;
},
{
associatedMasterId = master01;
layerId = "DFC918F8-1F2D-4205-8B29-24EED7D56280";
name = foreground;
paths = (
{
closed = 1;
nodes = (
"313 11 LINE",
"313 739 LINE",
"201 739 LINE",
"201 11 LINE"
);
},
{
closed = 1;
nodes = (
"705 11 LINE",
"705 739 LINE",
"593 739 LINE",
"593 11 LINE"
);
},
{
closed = 1;
nodes = (
"102 750 OFFCURVE",
"92 758 OFFCURVE",
"86 787 CURVE",
"52 787 LINE",
"8 576 LINE",
"45 567 LINE",
"79 685 OFFCURVE",
"111 710 OFFCURVE",
"188 710 CURVE",
"391 710 LINE SMOOTH",
"421 710 OFFCURVE",
"431 702 OFFCURVE",
"437 673 CURVE",
"473 673 LINE",
"479 702 OFFCURVE",
"489 710 OFFCURVE",
"519 710 CURVE SMOOTH",
"724 710 LINE SMOOTH",
"801 710 OFFCURVE",
"833 685 OFFCURVE",
"867 567 CURVE",
"904 576 LINE",
"860 787 LINE",
"826 787 LINE",
"820 757 OFFCURVE",
"811 750 OFFCURVE",
"780 750 CURVE",
"519 750 LINE SMOOTH",
"489 750 OFFCURVE",
"479 758 OFFCURVE",
"473 787 CURVE",
"437 787 LINE",
"431 758 OFFCURVE",
"421 750 OFFCURVE",
"391 750 CURVE SMOOTH",
"132 750 LINE SMOOTH"
);
},
{
closed = 1;
nodes = (
"141 0 LINE",
"373 0 LINE",
"373 37 LINE",
"330 37 OFFCURVE",
"313 49 OFFCURVE",
"313 80 CURVE",
"201 80 LINE",
"201 49 OFFCURVE",
"184 37 OFFCURVE",
"141 37 CURVE"
);
},
{
closed = 1;
nodes = (
"534 0 LINE",
"766 0 LINE",
"766 37 LINE",
"723 37 OFFCURVE",
"706 49 OFFCURVE",
"706 80 CURVE",
"594 80 LINE",
"594 49 OFFCURVE",
"577 37 OFFCURVE",
"534 37 CURVE"
);
}
);
width = 912;
}
);
leftKerningGroup = "OverLeft-Capitals";
rightKerningGroup = "OverRight-Capitals";
},
{
color = (67,219,95,255);
glyphname = a;
layers = (
{
layerId = master01;
paths = (
{
closed = 1;
nodes = (
"354 145 LINE",
"354 183 LINE",
"101 183 LINE",
"101 145 LINE"
);
},
{
closed = 1;
nodes = (
"213 427 LINE",
"191 427 LINE",
"301 78 LINE SMOOTH",
"310 50 OFFCURVE",
"291 37 OFFCURVE",
"240 37 CURVE",
"240 0 LINE",
"470 0 LINE",
"470 37 LINE",
"429 37 OFFCURVE",
"420 44 OFFCURVE",
"408 79 CURVE SMOOTH",
"252 544 LINE",
"204 544 LINE",
"54 81 LINE SMOOTH",
"44 49 OFFCURVE",
"28 37 OFFCURVE",
"-8 37 CURVE",
"-8 0 LINE",
"159 0 LINE",
"159 37 LINE",
"114 37 OFFCURVE",
"90 54 OFFCURVE",
"99 81 CURVE SMOOTH"
);
}
);
width = 462;
},
{
associatedMasterId = master01;
layerId = "333AB9DB-A554-4E89-8F40-913AE3CADF10";
name = foreground;
paths = (
{
closed = 1;
nodes = (
"354 145 LINE",
"354 183 LINE",
"101 183 LINE",
"101 145 LINE"
);
},
{
closed = 1;
nodes = (
"213 427 LINE",
"191 427 LINE",
"301 78 LINE SMOOTH",
"310 50 OFFCURVE",
"291 37 OFFCURVE",
"240 37 CURVE",
"240 0 LINE",
"470 0 LINE",
"470 37 LINE",
"429 37 OFFCURVE",
"420 44 OFFCURVE",
"408 79 CURVE SMOOTH",
"252 544 LINE",
"204 544 LINE",
"54 81 LINE SMOOTH",
"44 49 OFFCURVE",
"28 37 OFFCURVE",
"-8 37 CURVE",
"-8 0 LINE",
"159 0 LINE",
"159 37 LINE",
"114 37 OFFCURVE",
"90 54 OFFCURVE",
"99 81 CURVE SMOOTH"
);
}
);
width = 462;
}
);
leftKerningGroup = "UnderLeft-SmallCapitals";
rightKerningGroup = "UnderRight-SmallCapitals";
unicode = 0061;
},
{
color = (67,219,95,255);
glyphname = b;
layers = (
{
components = (
{
name = smallcomponent_top_half_serif;
transform = "{1, 0, 0, 1, -12, 0}";
},
{
name = smallcomponents_btm_half_serif;
transform = "{1, 0, 0, 1, -12, 0}";
}
);
layerId = master01;
paths = (
{
closed = 1;
nodes = (
"192 11 LINE",
"192 529 LINE",
"84 529 LINE",
"84 11 LINE"
);
},
{
closed = 1;
nodes = (
"270 0 LINE SMOOTH",
"394 0 OFFCURVE",
"452 47 OFFCURVE",
"452 147 CURVE",
"452 226 OFFCURVE",
"414 270 OFFCURVE",
"326 292 CURVE",
"326 268 LINE",
"403 304 OFFCURVE",
"423 333 OFFCURVE",
"423 406 CURVE",
"423 490 OFFCURVE",
"356 540 OFFCURVE",
"245 540 CURVE SMOOTH",
"84 540 LINE",
"84 463 LINE",
"192 463 LINE",
"192 501 LINE",
"246 501 LINE SMOOTH",
"291 501 OFFCURVE",
"319 472 OFFCURVE",
"319 424 CURVE SMOOTH",
"319 383 LINE SMOOTH",
"319 321 OFFCURVE",
"297 294 OFFCURVE",
"246 294 CURVE SMOOTH",
"232 294 LINE",
"232 257 LINE",
"270 257 LINE SMOOTH",
"315 257 OFFCURVE",
"343 226 OFFCURVE",
"343 177 CURVE SMOOTH",
"343 116 LINE SMOOTH",
"343 69 OFFCURVE",
"314 39 OFFCURVE",
"270 39 CURVE SMOOTH",
"192 39 LINE",
"192 77 LINE",
"84 77 LINE",
"84 0 LINE"
);
}
);
width = 472;
},
{
associatedMasterId = master01;
components = (
{
name = smallcomponent_top_half_serif;
transform = "{1, 0, 0, 1, -12, 0}";
},
{
name = smallcomponents_btm_half_serif;
transform = "{1, 0, 0, 1, -12, 0}";
}
);
layerId = "A360193A-E219-432D-B584-AF2E9F16BC7E";
name = foreground;
paths = (
{
closed = 1;
nodes = (
"192 11 LINE",
"192 529 LINE",
"84 529 LINE",
"84 11 LINE"
);
},
{
closed = 1;
nodes = (
"270 0 LINE SMOOTH",
"394 0 OFFCURVE",
"452 47 OFFCURVE",
"452 147 CURVE",
"452 226 OFFCURVE",
"414 270 OFFCURVE",
"326 292 CURVE",
"326 268 LINE",
"403 304 OFFCURVE",
"423 333 OFFCURVE",
"423 406 CURVE",
"423 490 OFFCURVE",
"356 540 OFFCURVE",
"245 540 CURVE SMOOTH",
"84 540 LINE",
"84 463 LINE",
"192 463 LINE",
"192 501 LINE",
"246 501 LINE SMOOTH",
"291 501 OFFCURVE",
"319 472 OFFCURVE",
"319 424 CURVE SMOOTH",
"319 383 LINE SMOOTH",
"319 321 OFFCURVE",
"297 294 OFFCURVE",
"246 294 CURVE SMOOTH",
"232 294 LINE",
"232 257 LINE",
"270 257 LINE SMOOTH",
"315 257 OFFCURVE",
"343 226 OFFCURVE",
"343 177 CURVE SMOOTH",
"343 116 LINE SMOOTH",
"343 69 OFFCURVE",
"314 39 OFFCURVE",
"270 39 CURVE SMOOTH",
"192 39 LINE",
"192 77 LINE",
"84 77 LINE",
"84 0 LINE"
);
}
);
width = 472;
}
);
leftKerningGroup = SmallCapitals;
unicode = 0062;
},
{
color = (67,219,95,255);
glyphname = c;
layers = (
{
layerId = master01;
paths = (
{
closed = 1;
nodes = (
"107 550 OFFCURVE",
"40 478 OFFCURVE",
"40 336 CURVE SMOOTH",
"40 199 LINE SMOOTH",
"40 65 OFFCURVE",
"110 -15 OFFCURVE",
"225 -15 CURVE",
"337 -15 OFFCURVE",
"390 54 OFFCURVE",
"390 199 CURVE SMOOTH",
"390 200 LINE",
"349 200 LINE",
"349 184 LINE SMOOTH",
"349 92 OFFCURVE",
"307 27 OFFCURVE",
"246 27 CURVE",
"188 27 OFFCURVE",
"150 69 OFFCURVE",
"150 131 CURVE SMOOTH",
"150 404 LINE SMOOTH",
"150 464 OFFCURVE",
"188 510 OFFCURVE",
"237 510 CURVE SMOOTH",
"293 510 OFFCURVE",
"318 484 OFFCURVE",
"354 390 CURVE",
"388 399 LINE",
"347 560 LINE",
"313 560 LINE",
"304 538 OFFCURVE",
"286 550 OFFCURVE",
"238 550 CURVE SMOOTH"
);
}
);
width = 414;
},
{
associatedMasterId = master01;
layerId = "531E3CF1-A7AA-4FE9-873D-C840BCE53DFE";
name = foreground;
paths = (
{
closed = 1;
nodes = (
"107 550 OFFCURVE",
"40 478 OFFCURVE",
"40 336 CURVE SMOOTH",
"40 199 LINE SMOOTH",
"40 65 OFFCURVE",
"110 -15 OFFCURVE",
"225 -15 CURVE",
"337 -15 OFFCURVE",
"390 54 OFFCURVE",
"390 199 CURVE SMOOTH",
"390 200 LINE",
"349 200 LINE",
"349 184 LINE SMOOTH",
"349 92 OFFCURVE",
"307 27 OFFCURVE",
"246 27 CURVE",
"188 27 OFFCURVE",
"150 69 OFFCURVE",
"150 131 CURVE SMOOTH",
"150 404 LINE SMOOTH",
"150 464 OFFCURVE",
"188 510 OFFCURVE",
"237 510 CURVE SMOOTH",
"293 510 OFFCURVE",
"318 484 OFFCURVE",
"354 390 CURVE",
"388 399 LINE",
"347 560 LINE",
"313 560 LINE",
"304 538 OFFCURVE",
"286 550 OFFCURVE",
"238 550 CURVE SMOOTH"
);
}
);
width = 414;
}
);
leftKerningGroup = SmallCapitals;
unicode = 0063;
},
{
color = (67,219,95,255);
glyphname = d;
layers = (
{
components = (
{
name = smallcomponent_top_half_serif;
transform = "{1, 0, 0, 1, -12, 0}";
},
{
name = smallcomponents_btm_half_serif;
transform = "{1, 0, 0, 1, -12, 0}";
}
);
layerId = master01;
paths = (
{
closed = 1;
nodes = (
"386 0 OFFCURVE",
"447 71 OFFCURVE",
"447 214 CURVE SMOOTH",
"447 326 LINE SMOOTH",
"447 472 OFFCURVE",
"388 540 OFFCURVE",
"262 540 CURVE SMOOTH",
"84 540 LINE",
"84 501 LINE",
"262 501 LINE SMOOTH",
"307 501 OFFCURVE",
"337 463 OFFCURVE",
"337 404 CURVE SMOOTH",
"337 136 LINE SMOOTH",
"337 77 OFFCURVE",
"307 39 OFFCURVE",
"262 39 CURVE SMOOTH",
"84 39 LINE",
"84 0 LINE",
"262 0 LINE SMOOTH"
);
},
{
closed = 1;
nodes = (
"196 11 LINE",
"196 529 LINE",
"84 529 LINE",
"84 11 LINE"
);
}
);
width = 479;
},
{
associatedMasterId = master01;
components = (
{
name = smallcomponent_top_half_serif;
transform = "{1, 0, 0, 1, -12, 0}";
},
{
name = smallcomponents_btm_half_serif;
transform = "{1, 0, 0, 1, -12, 0}";
}
);
layerId = "5A73CB6D-09F0-4D77-BF16-F1A8BA605F12";
name = foreground;
paths = (
{
closed = 1;
nodes = (
"386 0 OFFCURVE",
"447 71 OFFCURVE",
"447 214 CURVE SMOOTH",
"447 326 LINE SMOOTH",
"447 472 OFFCURVE",
"388 540 OFFCURVE",
"262 540 CURVE SMOOTH",
"84 540 LINE",
"84 501 LINE",
"262 501 LINE SMOOTH",
"307 501 OFFCURVE",
"337 463 OFFCURVE",
"337 404 CURVE SMOOTH",
"337 136 LINE SMOOTH",
"337 77 OFFCURVE",
"307 39 OFFCURVE",
"262 39 CURVE SMOOTH",
"84 39 LINE",
"84 0 LINE",
"262 0 LINE SMOOTH"
);
},
{
closed = 1;
nodes = (
"196 11 LINE",
"196 529 LINE",
"84 529 LINE",
"84 11 LINE"
);
}
);
width = 479;
}
);
leftKerningGroup = SmallCapitals;
unicode = 0064;
},
{
color = (67,219,95,255);
glyphname = e;
layers = (
{
components = (
{
name = smallcomponent_top_half_serif;
transform = "{1, 0, 0, 1, -12, 0}";
},
{
name = smallcomponents_btm_half_serif;
transform = "{1, 0, 0, 1, -12, 0}";
}
);
layerId = master01;
paths = (
{
closed = 1;
nodes = (
"193 11 LINE",
"193 529 LINE",
"84 529 LINE",
"84 11 LINE"
);
},
{
closed = 1;
nodes = (
"265 247 LINE SMOOTH",
"292 247 OFFCURVE",
"304 228 OFFCURVE",
"304 186 CURVE",
"336 186 LINE",
"336 338 LINE",
"304 338 LINE",
"304 303 OFFCURVE",
"291 286 OFFCURVE",
"265 286 CURVE SMOOTH",
"145 286 LINE",
"145 247 LINE"
);
},
{
closed = 1;
nodes = (
"350 0 LINE SMOOTH",
"397 0 OFFCURVE",
"413 -5 OFFCURVE",
"419 -21 CURVE",
"453 -21 LINE",
"453 171 LINE",
"420 171 LINE",
"407 60 OFFCURVE",
"387 39 OFFCURVE",
"297 39 CURVE SMOOTH",
"193 39 LINE",
"193 77 LINE",
"84 77 LINE",
"84 0 LINE"
);
},
{
closed = 1;
nodes = (
"352 501 OFFCURVE",
"374 484 OFFCURVE",
"410 388 CURVE",
"443 397 LINE",
"402 559 LINE",
"369 559 LINE",
"368 545 OFFCURVE",
"355 540 OFFCURVE",
"320 540 CURVE SMOOTH",
"84 540 LINE",
"84 463 LINE",
"193 463 LINE",
"193 501 LINE",
"264 501 LINE SMOOTH"
);
}
);
width = 469;
},
{
associatedMasterId = master01;
components = (
{
name = smallcomponent_top_half_serif;
transform = "{1, 0, 0, 1, -12, 0}";
},
{
name = smallcomponents_btm_half_serif;
transform = "{1, 0, 0, 1, -12, 0}";
}
);
layerId = "D923F2C1-5A28-456B-888B-D6B895FA23DD";
name = foreground;
paths = (
{
closed = 1;
nodes = (
"193 11 LINE",
"193 529 LINE",
"84 529 LINE",
"84 11 LINE"
);
},
{
closed = 1;
nodes = (
"265 247 LINE SMOOTH",
"292 247 OFFCURVE",
"304 228 OFFCURVE",
"304 186 CURVE",
"336 186 LINE",
"336 338 LINE",
"304 338 LINE",
"304 303 OFFCURVE",
"291 286 OFFCURVE",
"265 286 CURVE SMOOTH",
"145 286 LINE",
"145 247 LINE"
);
},
{
closed = 1;
nodes = (
"350 0 LINE SMOOTH",
"397 0 OFFCURVE",
"413 -5 OFFCURVE",
"419 -21 CURVE",
"453 -21 LINE",
"453 171 LINE",
"420 171 LINE",
"407 60 OFFCURVE",
"387 39 OFFCURVE",
"297 39 CURVE SMOOTH",
"193 39 LINE",
"193 77 LINE",
"84 77 LINE",
"84 0 LINE"
);
},
{
closed = 1;
nodes = (
"352 501 OFFCURVE",
"374 484 OFFCURVE",
"410 388 CURVE",
"443 397 LINE",
"402 559 LINE",
"369 559 LINE",
"368 545 OFFCURVE",
"355 540 OFFCURVE",
"320 540 CURVE SMOOTH",
"84 540 LINE",
"84 463 LINE",
"193 463 LINE",
"193 501 LINE",
"264 501 LINE SMOOTH"
);
}
);
width = 469;
}
);
leftKerningGroup = SmallCapitals;
unicode = 0065;
},
{
color = (67,219,95,255);
glyphname = f;
layers = (
{
components = (
{
name = smallcomponent_bottom_serif;
transform = "{1, 0, 0, 1, -12, 0}";
},
{
name = smallcomponent_top_half_serif;
transform = "{1, 0, 0, 1, -12, 0}";
}
);
layerId = master01;
paths = (
{
closed = 1;
nodes = (
"194 11 LINE",
"194 529 LINE",
"84 529 LINE",
"84 11 LINE"
);
},
{
closed = 1;
nodes = (
"265 228 LINE SMOOTH",
"292 228 OFFCURVE",
"304 209 OFFCURVE",
"304 167 CURVE",
"336 167 LINE",
"336 319 LINE",
"304 319 LINE",
"304 284 OFFCURVE",
"291 267 OFFCURVE",
"265 267 CURVE SMOOTH",
"145 267 LINE",
"145 228 LINE"
);
},
{
closed = 1;
nodes = (
"194 463 LINE",
"194 501 LINE",
"264 501 LINE SMOOTH",
"352 501 OFFCURVE",
"374 484 OFFCURVE",
"410 388 CURVE",
"443 397 LINE",
"402 559 LINE",
"369 559 LINE",
"368 545 OFFCURVE",
"355 540 OFFCURVE",
"320 540 CURVE SMOOTH",
"84 540 LINE",
"84 463 LINE"
);
}
);
width = 457;
},
{
associatedMasterId = master01;
components = (
{
name = smallcomponent_bottom_serif;
transform = "{1, 0, 0, 1, -12, 0}";
},
{
name = smallcomponent_top_half_serif;
transform = "{1, 0, 0, 1, -12, 0}";
}
);
layerId = "FB6A990A-BD39-4A3B-95D0-102B282A7502";
name = foreground;
paths = (
{
closed = 1;
nodes = (
"194 11 LINE",
"194 529 LINE",
"84 529 LINE",
"84 11 LINE"
);
},
{
closed = 1;
nodes = (
"265 228 LINE SMOOTH",
"292 228 OFFCURVE",
"304 209 OFFCURVE",
"304 167 CURVE",
"336 167 LINE",
"336 319 LINE",
"304 319 LINE",
"304 284 OFFCURVE",
"291 267 OFFCURVE",
"265 267 CURVE SMOOTH",
"145 267 LINE",
"145 228 LINE"
);
},
{
closed = 1;
nodes = (
"194 463 LINE",
"194 501 LINE",
"264 501 LINE SMOOTH",
"352 501 OFFCURVE",
"374 484 OFFCURVE",
"410 388 CURVE",
"443 397 LINE",
"402 559 LINE",
"369 559 LINE",
"368 545 OFFCURVE",
"355 540 OFFCURVE",
"320 540 CURVE SMOOTH",
"84 540 LINE",
"84 463 LINE"
);
}
);
width = 457;
}
);
leftKerningGroup = SmallCapitals;
rightKerningGroup = "OverRight-SmallCapitals";
unicode = 0066;
},
{
color = (67,219,95,255);
glyphname = g;
layers = (
{
layerId = master01;
paths = (
{
closed = 1;
nodes = (
"120 550 OFFCURVE",
"40 469 OFFCURVE",
"40 336 CURVE SMOOTH",
"40 204 LINE SMOOTH",
"40 63 OFFCURVE",
"102 -10 OFFCURVE",
"224 -10 CURVE",
"277 -10 OFFCURVE",
"316 5 OFFCURVE",
"347 37 CURVE",
"375 0 LINE",
"398 0 LINE",
"398 221 LINE SMOOTH",
"398 243 OFFCURVE",
"409 256 OFFCURVE",
"428 256 CURVE",
"428 289 LINE",
"230 289 LINE",
"230 256 LINE",
"276 256 OFFCURVE",
"301 237 OFFCURVE",
"301 203 CURVE SMOOTH",
"301 126 LINE SMOOTH",
"301 67 OFFCURVE",
"271 29 OFFCURVE",
"225 29 CURVE",
"180 29 OFFCURVE",
"150 68 OFFCURVE",
"150 126 CURVE SMOOTH",
"150 404 LINE SMOOTH",
"150 462 OFFCURVE",
"195 510 OFFCURVE",
"248 510 CURVE",
"304 510 OFFCURVE",
"329 484 OFFCURVE",
"365 390 CURVE",
"399 399 LINE",
"358 560 LINE",
"324 560 LINE",
"315 538 OFFCURVE",
"297 550 OFFCURVE",
"249 550 CURVE SMOOTH"
);
}
);
width = 448;
},
{
associatedMasterId = master01;
layerId = "B60AF0AC-F886-4118-BD47-EA68EB1E58E6";
name = foreground;
paths = (
{
closed = 1;
nodes = (
"120 550 OFFCURVE",
"40 469 OFFCURVE",
"40 336 CURVE SMOOTH",
"40 204 LINE SMOOTH",
"40 63 OFFCURVE",
"102 -10 OFFCURVE",
"224 -10 CURVE",
"277 -10 OFFCURVE",
"316 5 OFFCURVE",
"347 37 CURVE",
"375 0 LINE",
"398 0 LINE",
"398 221 LINE SMOOTH",
"398 243 OFFCURVE",
"409 256 OFFCURVE",
"428 256 CURVE",
"428 289 LINE",
"230 289 LINE",
"230 256 LINE",
"276 256 OFFCURVE",
"301 237 OFFCURVE",
"301 203 CURVE SMOOTH",
"301 126 LINE SMOOTH",
"301 67 OFFCURVE",
"271 29 OFFCURVE",
"225 29 CURVE",
"180 29 OFFCURVE",
"150 68 OFFCURVE",
"150 126 CURVE SMOOTH",
"150 404 LINE SMOOTH",
"150 462 OFFCURVE",
"195 510 OFFCURVE",
"248 510 CURVE",
"304 510 OFFCURVE",
"329 484 OFFCURVE",
"365 390 CURVE",
"399 399 LINE",
"358 560 LINE",
"324 560 LINE",
"315 538 OFFCURVE",
"297 550 OFFCURVE",
"249 550 CURVE SMOOTH"
);
}
);
width = 448;
}
);
leftKerningGroup = SmallCapitals;
unicode = 0067;
},
{
color = (67,219,95,255);
glyphname = h;
layers = (
{
components = (
{
name = smallcomponent_bottom_serif;
transform = "{1, 0, 0, 1, -12, 0}";
},
{
name = smallcomponent_top_serif;
transform = "{1, 0, 0, 1, -12, 0}";
}
);
layerId = master01;
paths = (
{
closed = 1;
nodes = (
"194 11 LINE",
"194 529 LINE",
"84 529 LINE",
"84 11 LINE"
);
},
{
closed = 1;
nodes = (
"455 11 LINE",
"455 529 LINE",
"353 529 LINE",
"353 11 LINE"
);
},
{
closed = 1;
nodes = (
"410 256 LINE",
"410 295 LINE",
"129 295 LINE",
"129 256 LINE"
);
},
{
closed = 1;
nodes = (
"353 48 OFFCURVE",
"338 37 OFFCURVE",
"293 37 CURVE",
"293 0 LINE",
"515 0 LINE",
"515 37 LINE",
"470 37 OFFCURVE",
"455 48 OFFCURVE",
"455 80 CURVE",
"353 80 LINE"
);
},
{
closed = 1;
nodes = (
"455 460 LINE",
"455 492 OFFCURVE",
"470 503 OFFCURVE",
"515 503 CURVE",
"515 540 LINE",
"293 540 LINE",
"293 503 LINE",
"338 503 OFFCURVE",
"353 492 OFFCURVE",
"353 460 CURVE"
);
}
);
width = 539;
},
{
associatedMasterId = master01;
components = (
{
name = smallcomponent_bottom_serif;
transform = "{1, 0, 0, 1, -12, 0}";
},
{
name = smallcomponent_top_serif;
transform = "{1, 0, 0, 1, -12, 0}";
}
);
layerId = "114613B4-5CA6-4C05-A78D-50870FD08399";
name = foreground;
paths = (
{
closed = 1;
nodes = (
"194 11 LINE",
"194 529 LINE",
"84 529 LINE",
"84 11 LINE"
);
},
{
closed = 1;
nodes = (
"455 11 LINE",
"455 529 LINE",
"353 529 LINE",
"353 11 LINE"
);
},
{
closed = 1;
nodes = (
"410 256 LINE",
"410 295 LINE",
"129 295 LINE",
"129 256 LINE"
);
},
{
closed = 1;
nodes = (
"353 48 OFFCURVE",
"338 37 OFFCURVE",
"293 37 CURVE",
"293 0 LINE",
"515 0 LINE",
"515 37 LINE",
"470 37 OFFCURVE",
"455 48 OFFCURVE",
"455 80 CURVE",
"353 80 LINE"
);
},
{
closed = 1;
nodes = (
"455 460 LINE",
"455 492 OFFCURVE",
"470 503 OFFCURVE",
"515 503 CURVE",
"515 540 LINE",
"293 540 LINE",
"293 503 LINE",
"338 503 OFFCURVE",
"353 492 OFFCURVE",
"353 460 CURVE"
);
}
);
width = 539;
}
);
leftKerningGroup = SmallCapitals;
unicode = 0068;
},
{
color = (67,219,95,255);
glyphname = i;
layers = (
{
components = (
{
name = smallcomponent_bottom_serif;
transform = "{1, 0, 0, 1, -12, 0}";
},
{
name = smallcomponent_top_serif;
transform = "{1, 0, 0, 1, -12, 0}";
}
);
layerId = master01;
paths = (
{
closed = 1;
nodes = (
"194 11 LINE",
"194 529 LINE",
"84 529 LINE",
"84 11 LINE"
);
}
);
width = 278;
},
{
associatedMasterId = master01;
components = (
{
name = smallcomponent_bottom_serif;
transform = "{1, 0, 0, 1, -12, 0}";
},
{
name = smallcomponent_top_serif;
transform = "{1, 0, 0, 1, -12, 0}";
}
);
layerId = "8C80F9BC-1F25-4676-B12E-A1FD7F6AFC87";
name = foreground;
paths = (
{
closed = 1;
nodes = (
"194 11 LINE",
"194 529 LINE",
"84 529 LINE",
"84 11 LINE"
);
}
);
width = 278;
}
);
leftKerningGroup = SmallCapitals;
unicode = 0069;
},
{
color = (67,219,95,255);
glyphname = dotlessi;
layers = (
{
layerId = master01;
paths = (
{
closed = 1;
nodes = (
"194 11 LINE",
"194 529 LINE",
"84 529 LINE",
"84 11 LINE"
);
},
{
closed = 1;
nodes = (
"193 463 LINE",
"193 497 OFFCURVE",
"206 506 OFFCURVE",
"253 506 CURVE",
"253 540 LINE",
"24 540 LINE",
"24 506 LINE",
"71 506 OFFCURVE",
"84 497 OFFCURVE",
"84 463 CURVE"
);
},
{
closed = 1;
nodes = (
"84 43 OFFCURVE",
"71 34 OFFCURVE",
"24 34 CURVE",
"24 0 LINE",
"253 0 LINE",
"253 34 LINE",
"206 34 OFFCURVE",
"193 43 OFFCURVE",
"193 77 CURVE",
"84 77 LINE"
);
}
);
width = 277;
},
{
associatedMasterId = master01;
layerId = "E04CC4A8-6DF6-4DEE-A300-169E37C3AE0D";
name = foreground;
paths = (
{
closed = 1;
nodes = (
"194 11 LINE",
"194 529 LINE",
"84 529 LINE",
"84 11 LINE"
);
},
{
closed = 1;
nodes = (
"193 463 LINE",
"193 497 OFFCURVE",
"206 506 OFFCURVE",
"253 506 CURVE",
"253 540 LINE",
"24 540 LINE",
"24 506 LINE",
"71 506 OFFCURVE",
"84 497 OFFCURVE",
"84 463 CURVE"
);
},
{
closed = 1;
nodes = (
"84 43 OFFCURVE",
"71 34 OFFCURVE",
"24 34 CURVE",
"24 0 LINE",
"253 0 LINE",
"253 34 LINE",
"206 34 OFFCURVE",
"193 43 OFFCURVE",
"193 77 CURVE",
"84 77 LINE"
);
}
);
width = 277;
}
);
leftKerningGroup = SmallCapitals;
unicode = 0131;
},
{
color = (67,219,95,255);
glyphname = j;
layers = (
{
components = (
{
name = smallcomponent_top_serif;
transform = "{1, 0, 0, 1, 147, 0}";
}
);
layerId = master01;
paths = (
{
closed = 1;
nodes = (
"243 176 LINE SMOOTH",
"243 83 OFFCURVE",
"214 29 OFFCURVE",
"163 29 CURVE",
"101 29 OFFCURVE",
"88 71 OFFCURVE",
"88 71 CURVE",
"88 71 OFFCURVE",
"158 76 OFFCURVE",
"158 137 CURVE SMOOTH",
"158 178 OFFCURVE",
"128 208 OFFCURVE",
"88 207 CURVE SMOOTH",
"47 206 OFFCURVE",
"16 171 OFFCURVE",
"16 127 CURVE",
"16 49 OFFCURVE",
"84 -10 OFFCURVE",
"174 -10 CURVE",
"291 -10 OFFCURVE",
"353 71 OFFCURVE",
"353 224 CURVE SMOOTH",
"353 508 LINE",
"243 508 LINE"
);
}
);
width = 437;
},
{
associatedMasterId = master01;
components = (
{
name = smallcomponent_top_serif;
transform = "{1, 0, 0, 1, 147, 0}";
}
);
layerId = "EDB45076-C834-49FD-A027-E9E8DAF89FCD";
name = foreground;
paths = (
{
closed = 1;
nodes = (
"243 176 LINE SMOOTH",
"243 83 OFFCURVE",
"214 29 OFFCURVE",
"163 29 CURVE",
"101 29 OFFCURVE",
"88 71 OFFCURVE",
"88 71 CURVE",
"88 71 OFFCURVE",
"158 76 OFFCURVE",
"158 137 CURVE SMOOTH",
"158 178 OFFCURVE",
"128 208 OFFCURVE",
"88 207 CURVE SMOOTH",
"47 206 OFFCURVE",
"16 171 OFFCURVE",
"16 127 CURVE",
"16 49 OFFCURVE",
"84 -10 OFFCURVE",
"174 -10 CURVE",
"291 -10 OFFCURVE",
"353 71 OFFCURVE",
"353 224 CURVE SMOOTH",
"353 508 LINE",
"243 508 LINE"
);
}
);
width = 437;
}
);
leftKerningGroup = SmallCapitals;
unicode = 006A;
},
{
color = (255,188,0,255);
glyphname = j.alt_1;
layers = (
{
components = (
{
name = smallcomponent_top_serif;
transform = "{1, 0, 0, 1, -5, 0}";
}
);
layerId = master01;
paths = (
{
closed = 1;
nodes = (
"134 -118 OFFCURVE",
"201 -38 OFFCURVE",
"201 114 CURVE SMOOTH",
"201 532 LINE",
"91 532 LINE",
"91 66 LINE SMOOTH",
"91 -30 OFFCURVE",
"58 -79 OFFCURVE",
"-7 -79 CURVE SMOOTH",
"-32 -79 LINE",
"-32 -118 LINE",
"5 -118 LINE SMOOTH"
);
}
);
width = 285;
},
{
associatedMasterId = master01;
components = (
{
name = smallcomponent_top_serif;
transform = "{1, 0, 0, 1, -5, 0}";
}
);
layerId = "6C0FAEA9-4087-4A2A-BF58-C154638565EC";
name = foreground;
paths = (
{
closed = 1;
nodes = (
"134 -118 OFFCURVE",
"201 -38 OFFCURVE",
"201 114 CURVE SMOOTH",
"201 532 LINE",
"91 532 LINE",
"91 66 LINE SMOOTH",
"91 -30 OFFCURVE",
"58 -79 OFFCURVE",
"-7 -79 CURVE SMOOTH",
"-32 -79 LINE",
"-32 -118 LINE",
"5 -118 LINE SMOOTH"
);
}
);
width = 285;
}
);
leftKerningGroup = SmallCapitals;
},
{
color = (67,219,95,255);
glyphname = k;
layers = (
{
components = (
{
name = smallcomponent_bottom_serif;
transform = "{1, 0, 0, 1, -12, 0}";
},
{
name = smallcomponent_top_serif;
transform = "{1, 0, 0, 1, -12, 0}";
}
);
layerId = master01;
paths = (
{
closed = 1;
nodes = (
"194 20 LINE",
"194 520 LINE",
"84 520 LINE",
"84 20 LINE"
);
},
{
closed = 1;
nodes = (
"234 295 LINE",
"234 258 LINE",
"258 258 LINE SMOOTH",
"297 258 OFFCURVE",
"330 206 OFFCURVE",
"330 143 CURVE",
"330 44 OFFCURVE",
"374 0 OFFCURVE",
"475 0 CURVE",
"494 0 LINE",
"494 34 LINE",
"475 34 LINE SMOOTH",
"451 34 OFFCURVE",
"432 83 OFFCURVE",
"432 144 CURVE",
"432 234 OFFCURVE",
"363 295 OFFCURVE",
"263 295 CURVE SMOOTH"
);
},
{
closed = 1;
nodes = (
"388 462 LINE SMOOTH",
"409 496 OFFCURVE",
"426 506 OFFCURVE",
"463 506 CURVE",
"463 540 LINE",
"296 540 LINE",
"296 506 LINE",
"336 506 OFFCURVE",
"356 491 OFFCURVE",
"343 470 CURVE SMOOTH",
"234 295 LINE",
"234 258 LINE",
"260 258 LINE"
);
}
);
width = 482;
},
{
associatedMasterId = master01;
components = (
{
name = smallcomponent_bottom_serif;
transform = "{1, 0, 0, 1, -12, 0}";
},
{
name = smallcomponent_top_serif;
transform = "{1, 0, 0, 1, -12, 0}";
}
);
layerId = "2412D0C7-032C-41D9-8A81-31C3F33D414A";
name = foreground;
paths = (
{
closed = 1;
nodes = (
"194 20 LINE",
"194 520 LINE",
"84 520 LINE",
"84 20 LINE"
);
},
{
closed = 1;
nodes = (
"234 295 LINE",
"234 258 LINE",
"258 258 LINE SMOOTH",
"297 258 OFFCURVE",
"330 206 OFFCURVE",
"330 143 CURVE",
"330 44 OFFCURVE",
"374 0 OFFCURVE",
"475 0 CURVE",
"494 0 LINE",
"494 34 LINE",
"475 34 LINE SMOOTH",
"451 34 OFFCURVE",
"432 83 OFFCURVE",
"432 144 CURVE",
"432 234 OFFCURVE",
"363 295 OFFCURVE",
"263 295 CURVE SMOOTH"
);
},
{
closed = 1;
nodes = (
"388 462 LINE SMOOTH",
"409 496 OFFCURVE",
"426 506 OFFCURVE",
"463 506 CURVE",
"463 540 LINE",
"296 540 LINE",
"296 506 LINE",
"336 506 OFFCURVE",
"356 491 OFFCURVE",
"343 470 CURVE SMOOTH",
"234 295 LINE",
"234 258 LINE",
"260 258 LINE"
);
}
);
width = 482;
}
);
leftKerningGroup = SmallCapitals;
unicode = 006B;
},
{
color = (255,188,0,255);
glyphname = k.alt_1;
layers = (
{
components = (
{
name = smallcomponent_bottom_serif;
transform = "{1, 0, 0, 1, -12, 0}";
},
{
name = smallcomponent_top_serif;
transform = "{1, 0, 0, 1, -12, 0}";
}
);
guideLines = (
{
position = "{278, 503}";
}
);
layerId = master01;
paths = (
{
closed = 1;
nodes = (
"194 11 LINE",
"194 518 LINE",
"84 518 LINE",
"84 11 LINE"
);
},
{
closed = 1;
nodes = (
"348 295 LINE",
"286 295 LINE",
"389 459 LINE SMOOTH",
"411 494 OFFCURVE",
"426 503 OFFCURVE",
"464 503 CURVE",
"464 540 LINE",
"297 540 LINE",
"297 503 LINE",
"334 503 OFFCURVE",
"356 486 OFFCURVE",
"344 467 CURVE SMOOTH",
"235 296 LINE",
"332 80 LINE SMOOTH",
"344 53 OFFCURVE",
"331 37 OFFCURVE",
"297 37 CURVE",
"297 0 LINE",
"507 0 LINE",
"507 37 LINE",
"473 37 OFFCURVE",
"457 48 OFFCURVE",
"443 80 CURVE SMOOTH"
);
}
);
width = 495;
},
{
associatedMasterId = master01;
components = (
{
name = smallcomponent_bottom_serif;
transform = "{1, 0, 0, 1, -12, 0}";
},
{
name = smallcomponent_top_serif;
transform = "{1, 0, 0, 1, -12, 0}";
}
);
guideLines = (
{
position = "{278, 503}";
}
);
layerId = "AD773D8A-633A-4872-A483-B73B04F09F82";
name = foreground;
paths = (
{
closed = 1;
nodes = (
"194 11 LINE",
"194 518 LINE",
"84 518 LINE",
"84 11 LINE"
);
},
{
closed = 1;
nodes = (
"348 295 LINE",
"286 295 LINE",
"389 459 LINE SMOOTH",
"411 494 OFFCURVE",
"426 503 OFFCURVE",
"464 503 CURVE",
"464 540 LINE",
"297 540 LINE",
"297 503 LINE",
"334 503 OFFCURVE",
"356 486 OFFCURVE",
"344 467 CURVE SMOOTH",
"235 296 LINE",
"332 80 LINE SMOOTH",
"344 53 OFFCURVE",
"331 37 OFFCURVE",
"297 37 CURVE",
"297 0 LINE",
"507 0 LINE",
"507 37 LINE",
"473 37 OFFCURVE",
"457 48 OFFCURVE",
"443 80 CURVE SMOOTH"
);
}
);
width = 495;
}
);
leftKerningGroup = SmallCapitals;
},
{
color = (67,219,95,255);
glyphname = kgreenlandic;
layers = (
{
components = (
{
name = smallcomponent_bottom_serif;
transform = "{1, 0, 0, 1, -12, 0}";
},
{
name = smallcomponent_top_serif;
transform = "{1, 0, 0, 1, -12, 0}";
}
);
layerId = master01;
paths = (
{
closed = 1;
nodes = (
"194 20 LINE",
"194 520 LINE",
"84 520 LINE",
"84 20 LINE"
);
},
{
closed = 1;
nodes = (
"234 295 LINE",
"234 258 LINE",
"258 258 LINE SMOOTH",
"297 258 OFFCURVE",
"330 206 OFFCURVE",
"330 143 CURVE",
"330 44 OFFCURVE",
"374 0 OFFCURVE",
"475 0 CURVE",
"494 0 LINE",
"494 34 LINE",
"475 34 LINE SMOOTH",
"451 34 OFFCURVE",
"432 83 OFFCURVE",
"432 144 CURVE",
"432 234 OFFCURVE",
"363 295 OFFCURVE",
"263 295 CURVE SMOOTH"
);
},
{
closed = 1;
nodes = (
"388 422 LINE SMOOTH",
"413 454 OFFCURVE",
"433 466 OFFCURVE",
"463 466 CURVE",
"463 500 LINE",
"296 500 LINE",
"296 466 LINE",
"332 466 OFFCURVE",
"357 447 OFFCURVE",
"343 430 CURVE SMOOTH",
"234 295 LINE",
"234 258 LINE",
"260 258 LINE"
);
}
);
width = 482;
},
{
associatedMasterId = master01;
components = (
{
name = smallcomponent_bottom_serif;
transform = "{1, 0, 0, 1, -12, 0}";
},
{
name = smallcomponent_top_serif;
transform = "{1, 0, 0, 1, -12, 0}";
}
);
layerId = "CF132BD3-BB6A-44E7-8969-C704E1A517DC";
name = foreground;
paths = (
{
closed = 1;
nodes = (
"194 20 LINE",
"194 520 LINE",
"84 520 LINE",
"84 20 LINE"
);
},
{
closed = 1;
nodes = (
"234 295 LINE",
"234 258 LINE",
"258 258 LINE SMOOTH",
"297 258 OFFCURVE",
"330 206 OFFCURVE",
"330 143 CURVE",
"330 44 OFFCURVE",
"374 0 OFFCURVE",
"475 0 CURVE",
"494 0 LINE",
"494 34 LINE",
"475 34 LINE SMOOTH",
"451 34 OFFCURVE",
"432 83 OFFCURVE",
"432 144 CURVE",
"432 234 OFFCURVE",
"363 295 OFFCURVE",
"263 295 CURVE SMOOTH"
);
},
{
closed = 1;
nodes = (
"388 422 LINE SMOOTH",
"413 454 OFFCURVE",
"433 466 OFFCURVE",
"463 466 CURVE",
"463 500 LINE",
"296 500 LINE",
"296 466 LINE",
"332 466 OFFCURVE",
"357 447 OFFCURVE",
"343 430 CURVE SMOOTH",
"234 295 LINE",
"234 258 LINE",
"260 258 LINE"
);
}
);
width = 482;
}
);
leftKerningGroup = SmallCapitals;
},
{
color = (67,219,95,255);
glyphname = l;
layers = (
{
components = (
{
name = smallcomponent_top_serif;
transform = "{1, 0, 0, 1, -12, 0}";
},
{
name = smallcomponents_btm_half_serif;
transform = "{1, 0, 0, 1, -12, 0}";
}
);
layerId = master01;
paths = (
{
closed = 1;
nodes = (
"194 11 LINE",
"194 540 LINE",
"84 540 LINE",
"84 11 LINE"
);
},
{
closed = 1;
nodes = (
"310 0 LINE SMOOTH",
"357 0 OFFCURVE",
"373 -5 OFFCURVE",
"379 -21 CURVE",
"413 -21 LINE",
"413 173 LINE",
"380 173 LINE",
"367 62 OFFCURVE",
"346 39 OFFCURVE",
"257 39 CURVE SMOOTH",
"194 39 LINE",
"194 77 LINE",
"84 77 LINE",
"84 0 LINE"
);
}
);
width = 429;
},
{
associatedMasterId = master01;
components = (
{
name = smallcomponent_top_serif;
transform = "{1, 0, 0, 1, -12, 0}";
},
{
name = smallcomponents_btm_half_serif;
transform = "{1, 0, 0, 1, -12, 0}";
}
);
layerId = "5DB07D9B-3098-4E5E-9839-99CD981FCAEB";
name = foreground;
paths = (
{
closed = 1;
nodes = (
"194 11 LINE",
"194 540 LINE",
"84 540 LINE",
"84 11 LINE"
);
},
{
closed = 1;
nodes = (
"310 0 LINE SMOOTH",
"357 0 OFFCURVE",
"373 -5 OFFCURVE",
"379 -21 CURVE",
"413 -21 LINE",
"413 173 LINE",
"380 173 LINE",
"367 62 OFFCURVE",
"346 39 OFFCURVE",
"257 39 CURVE SMOOTH",
"194 39 LINE",
"194 77 LINE",
"84 77 LINE",
"84 0 LINE"
);
}
);
width = 429;
}
);
leftKerningGroup = SmallCapitals;
unicode = 006C;
},
{
color = (67,219,95,255);
glyphname = m;
layers = (
{
components = (
{
name = smallcomponent_top_half_serif;
transform = "{1, 0, 0, 1, -12, 0}";
}
);
layerId = master01;
paths = (
{
closed = 1;
nodes = (
"84 11 LINE",
"128 11 LINE",
"128 503 LINE",
"114 501 LINE",
"278 0 LINE",
"319 0 LINE",
"454 490 LINE",
"445 490 LINE",
"445 11 LINE",
"547 11 LINE",
"547 540 LINE",
"425 540 LINE",
"314 147 LINE",
"331 146 LINE",
"201 540 LINE",
"84 540 LINE"
);
},
{
closed = 1;
nodes = (
"547 495 OFFCURVE",
"562 506 OFFCURVE",
"607 506 CURVE",
"607 540 LINE",
"496 540 LINE",
"496 463 LINE",
"547 463 LINE"
);
},
{
closed = 1;
nodes = (
"84 48 OFFCURVE",
"69 37 OFFCURVE",
"24 37 CURVE",
"24 0 LINE",
"188 0 LINE",
"188 37 LINE",
"143 37 OFFCURVE",
"128 48 OFFCURVE",
"128 80 CURVE",
"84 80 LINE"
);
},
{
closed = 1;
nodes = (
"445 48 OFFCURVE",
"430 37 OFFCURVE",
"385 37 CURVE",
"385 0 LINE",
"607 0 LINE",
"607 37 LINE",
"562 37 OFFCURVE",
"547 48 OFFCURVE",
"547 80 CURVE",
"445 80 LINE"
);
}
);
width = 631;
},
{
associatedMasterId = master01;
components = (
{
name = smallcomponent_top_half_serif;
transform = "{1, 0, 0, 1, -12, 0}";
}
);
layerId = "B4AF2AA6-FDF1-424C-81CB-E0885AC25CF9";
name = foreground;
paths = (
{
closed = 1;
nodes = (
"84 11 LINE",
"128 11 LINE",
"128 503 LINE",
"114 501 LINE",
"278 0 LINE",
"319 0 LINE",
"454 490 LINE",
"445 490 LINE",
"445 11 LINE",
"547 11 LINE",
"547 540 LINE",
"425 540 LINE",
"314 147 LINE",
"331 146 LINE",
"201 540 LINE",
"84 540 LINE"
);
},
{
closed = 1;
nodes = (
"547 495 OFFCURVE",
"562 506 OFFCURVE",
"607 506 CURVE",
"607 540 LINE",
"496 540 LINE",
"496 463 LINE",
"547 463 LINE"
);
},
{
closed = 1;
nodes = (
"84 48 OFFCURVE",
"69 37 OFFCURVE",
"24 37 CURVE",
"24 0 LINE",
"188 0 LINE",
"188 37 LINE",
"143 37 OFFCURVE",
"128 48 OFFCURVE",
"128 80 CURVE",
"84 80 LINE"
);
},
{
closed = 1;
nodes = (
"445 48 OFFCURVE",
"430 37 OFFCURVE",
"385 37 CURVE",
"385 0 LINE",
"607 0 LINE",
"607 37 LINE",
"562 37 OFFCURVE",
"547 48 OFFCURVE",
"547 80 CURVE",
"445 80 LINE"
);
}
);
width = 631;
}
);
leftKerningGroup = SmallCapitals;
unicode = 006D;
},
{
color = (67,219,95,255);
glyphname = n;
layers = (
{
components = (
{
name = smallcomponent_top_half_serif;
transform = "{1, 0, 0, 1, -12, 0}";
}
);
layerId = master01;
paths = (
{
closed = 1;
nodes = (
"84 48 OFFCURVE",
"69 37 OFFCURVE",
"24 37 CURVE",
"24 0 LINE",
"188 0 LINE",
"188 37 LINE",
"143 37 OFFCURVE",
"128 48 OFFCURVE",
"128 80 CURVE",
"84 80 LINE"
);
},
{
closed = 1;
nodes = (
"451 460 LINE",
"451 492 OFFCURVE",
"466 503 OFFCURVE",
"511 503 CURVE",
"511 540 LINE",
"347 540 LINE",
"347 503 LINE",
"392 503 OFFCURVE",
"407 492 OFFCURVE",
"407 460 CURVE"
);
},
{
closed = 1;
nodes = (
"84 11 LINE",
"128 11 LINE",
"128 352 LINE",
"128 482 LINE",
"108 482 LINE",
"406 0 LINE",
"451 0 LINE",
"451 529 LINE",
"407 529 LINE",
"407 135 LINE",
"444 135 LINE",
"192 540 LINE",
"84 540 LINE"
);
}
);
width = 531;
},
{
associatedMasterId = master01;
components = (
{
name = smallcomponent_top_half_serif;
transform = "{1, 0, 0, 1, -12, 0}";
}
);
layerId = "9447876F-B192-4669-A54A-CFDA06FA08CB";
name = foreground;
paths = (
{
closed = 1;
nodes = (
"84 48 OFFCURVE",
"69 37 OFFCURVE",
"24 37 CURVE",
"24 0 LINE",
"188 0 LINE",
"188 37 LINE",
"143 37 OFFCURVE",
"128 48 OFFCURVE",
"128 80 CURVE",
"84 80 LINE"
);
},
{
closed = 1;
nodes = (
"451 460 LINE",
"451 492 OFFCURVE",
"466 503 OFFCURVE",
"511 503 CURVE",
"511 540 LINE",
"347 540 LINE",
"347 503 LINE",
"392 503 OFFCURVE",
"407 492 OFFCURVE",
"407 460 CURVE"
);
},
{
closed = 1;
nodes = (
"84 11 LINE",
"128 11 LINE",
"128 352 LINE",
"128 482 LINE",
"108 482 LINE",
"406 0 LINE",
"451 0 LINE",
"451 529 LINE",
"407 529 LINE",
"407 135 LINE",
"444 135 LINE",
"192 540 LINE",
"84 540 LINE"
);
}
);
width = 531;
}
);
leftKerningGroup = SmallCapitals;
unicode = 006E;
},
{
color = (67,219,95,255);
glyphname = o;
layers = (
{
layerId = master01;
paths = (
{
closed = 1;
nodes = (
"107 555 OFFCURVE",
"40 482 OFFCURVE",
"40 341 CURVE SMOOTH",
"40 199 LINE SMOOTH",
"40 60 OFFCURVE",
"108 -15 OFFCURVE",
"234 -15 CURVE",
"360 -15 OFFCURVE",
"426 58 OFFCURVE",
"426 199 CURVE SMOOTH",
"426 341 LINE SMOOTH",
"426 477 OFFCURVE",
"356 555 OFFCURVE",
"234 555 CURVE"
);
},
{
closed = 1;
nodes = (
"184 24 OFFCURVE",
"152 61 OFFCURVE",
"152 119 CURVE SMOOTH",
"152 420 LINE SMOOTH",
"152 475 OFFCURVE",
"187 516 OFFCURVE",
"234 516 CURVE",
"282 516 OFFCURVE",
"316 476 OFFCURVE",
"316 420 CURVE SMOOTH",
"316 119 LINE SMOOTH",
"316 63 OFFCURVE",
"282 24 OFFCURVE",
"234 24 CURVE"
);
}
);
width = 466;
},
{
associatedMasterId = master01;
layerId = "02FEAF36-43CE-4B13-BB74-DD16AD1CCE33";
name = foreground;
paths = (
{
closed = 1;
nodes = (
"107 555 OFFCURVE",
"40 482 OFFCURVE",
"40 341 CURVE SMOOTH",
"40 199 LINE SMOOTH",
"40 60 OFFCURVE",
"108 -15 OFFCURVE",
"234 -15 CURVE",
"360 -15 OFFCURVE",
"426 58 OFFCURVE",
"426 199 CURVE SMOOTH",
"426 341 LINE SMOOTH",
"426 477 OFFCURVE",
"356 555 OFFCURVE",
"234 555 CURVE"
);
},
{
closed = 1;
nodes = (
"184 24 OFFCURVE",
"152 61 OFFCURVE",
"152 119 CURVE SMOOTH",
"152 420 LINE SMOOTH",
"152 475 OFFCURVE",
"187 516 OFFCURVE",
"234 516 CURVE",
"282 516 OFFCURVE",
"316 476 OFFCURVE",
"316 420 CURVE SMOOTH",
"316 119 LINE SMOOTH",
"316 63 OFFCURVE",
"282 24 OFFCURVE",
"234 24 CURVE"
);
}
);
width = 466;
}
);
leftKerningGroup = SmallCapitals;
unicode = 006F;
},
{
color = (67,219,95,255);
glyphname = p;
layers = (
{
components = (
{
name = smallcomponent_bottom_serif;
transform = "{1, 0, 0, 1, -12, 0}";
},
{
name = smallcomponent_top_half_serif;
transform = "{1, 0, 0, 1, -12, 0}";
}
);
layerId = master01;
paths = (
{
closed = 1;
nodes = (
"194 11 LINE",
"194 529 LINE",
"84 529 LINE",
"84 11 LINE"
);
},
{
closed = 1;
nodes = (
"194 460 LINE",
"194 501 LINE",
"260 501 LINE SMOOTH",
"304 501 OFFCURVE",
"333 463 OFFCURVE",
"333 404 CURVE SMOOTH",
"333 333 LINE SMOOTH",
"333 274 OFFCURVE",
"304 235 OFFCURVE",
"260 235 CURVE SMOOTH",
"234 235 LINE",
"234 198 LINE",
"260 198 LINE SMOOTH",
"381 198 OFFCURVE",
"438 252 OFFCURVE",
"438 367 CURVE",
"438 484 OFFCURVE",
"381 540 OFFCURVE",
"260 540 CURVE SMOOTH",
"84 540 LINE",
"84 460 LINE"
);
}
);
width = 456;
},
{
associatedMasterId = master01;
components = (
{
name = smallcomponent_bottom_serif;
transform = "{1, 0, 0, 1, -12, 0}";
},
{
name = smallcomponent_top_half_serif;
transform = "{1, 0, 0, 1, -12, 0}";
}
);
layerId = "A3BC9B76-01B8-4294-B527-7CCC7A3EA3F6";
name = foreground;
paths = (
{
closed = 1;
nodes = (
"194 11 LINE",
"194 529 LINE",
"84 529 LINE",
"84 11 LINE"
);
},
{
closed = 1;
nodes = (
"194 460 LINE",
"194 501 LINE",
"260 501 LINE SMOOTH",
"304 501 OFFCURVE",
"333 463 OFFCURVE",
"333 404 CURVE SMOOTH",
"333 333 LINE SMOOTH",
"333 274 OFFCURVE",
"304 235 OFFCURVE",
"260 235 CURVE SMOOTH",
"234 235 LINE",
"234 198 LINE",
"260 198 LINE SMOOTH",
"381 198 OFFCURVE",
"438 252 OFFCURVE",
"438 367 CURVE",
"438 484 OFFCURVE",
"381 540 OFFCURVE",
"260 540 CURVE SMOOTH",
"84 540 LINE",
"84 460 LINE"
);
}
);
width = 456;
}
);
leftKerningGroup = SmallCapitals;
rightKerningGroup = "OverRight-SmallCapitals";
unicode = 0070;
},
{
color = (67,219,95,255);
glyphname = q;
layers = (
{
layerId = master01;
paths = (
{
closed = 1;
nodes = (
"254 40 OFFCURVE",
"306 0 OFFCURVE",
"442 0 CURVE SMOOTH",
"448 0 LINE",
"448 37 LINE",
"422 37 LINE SMOOTH",
"365 37 OFFCURVE",
"328 78.398 OFFCURVE",
"328 141 CURVE",
"328 234.347 OFFCURVE",
"271.187 284 OFFCURVE",
"162 284 CURVE SMOOTH",
"141 284 LINE",
"141 245 LINE",
"181 245 LINE SMOOTH",
"225 245 OFFCURVE",
"254 206 OFFCURVE",
"254 145 CURVE"
);
},
{
closed = 1;
nodes = (
"107 550 OFFCURVE",
"40 477 OFFCURVE",
"40 336 CURVE SMOOTH",
"40 204 LINE SMOOTH",
"40 65 OFFCURVE",
"108 -10 OFFCURVE",
"234 -10 CURVE",
"367 -10 OFFCURVE",
"436 63 OFFCURVE",
"436 204 CURVE SMOOTH",
"436 336 LINE SMOOTH",
"436 472 OFFCURVE",
"362.354 550 OFFCURVE",
"234 550 CURVE"
);
},
{
closed = 1;
nodes = (
"183 29 OFFCURVE",
"150 66 OFFCURVE",
"150 124 CURVE SMOOTH",
"150 415 LINE SMOOTH",
"150 471 OFFCURVE",
"185 511 OFFCURVE",
"234 511 CURVE",
"289.952 511 OFFCURVE",
"328 472 OFFCURVE",
"328 415 CURVE SMOOTH",
"328 124 LINE SMOOTH",
"328 68 OFFCURVE",
"289 29 OFFCURVE",
"234 29 CURVE"
);
}
);
width = 468;
},
{
associatedMasterId = master01;
layerId = "E66AF105-E8B3-41A3-9A16-61A74694867C";
name = foreground;
paths = (
{
closed = 1;
nodes = (
"254 40 OFFCURVE",
"306 0 OFFCURVE",
"442 0 CURVE SMOOTH",
"448 0 LINE",
"448 37 LINE",
"422 37 LINE SMOOTH",
"365 37 OFFCURVE",
"328 78.398 OFFCURVE",
"328 141 CURVE",
"328 234.347 OFFCURVE",
"271.187 284 OFFCURVE",
"162 284 CURVE SMOOTH",
"141 284 LINE",
"141 245 LINE",
"181 245 LINE SMOOTH",
"225 245 OFFCURVE",
"254 206 OFFCURVE",
"254 145 CURVE"
);
},
{
closed = 1;
nodes = (
"107 550 OFFCURVE",
"40 477 OFFCURVE",
"40 336 CURVE SMOOTH",
"40 204 LINE SMOOTH",
"40 65 OFFCURVE",
"108 -10 OFFCURVE",
"234 -10 CURVE",
"367 -10 OFFCURVE",
"436 63 OFFCURVE",
"436 204 CURVE SMOOTH",
"436 336 LINE SMOOTH",
"436 472 OFFCURVE",
"362.354 550 OFFCURVE",
"234 550 CURVE"
);
},
{
closed = 1;
nodes = (
"183 29 OFFCURVE",
"150 66 OFFCURVE",
"150 124 CURVE SMOOTH",
"150 415 LINE SMOOTH",
"150 471 OFFCURVE",
"185 511 OFFCURVE",
"234 511 CURVE",
"289.952 511 OFFCURVE",
"328 472 OFFCURVE",
"328 415 CURVE SMOOTH",
"328 124 LINE SMOOTH",
"328 68 OFFCURVE",
"289 29 OFFCURVE",
"234 29 CURVE"
);
}
);
width = 468;
}
);
leftKerningGroup = SmallCapitals;
unicode = 0071;
},
{
color = (255,188,0,255);
glyphname = q.alt_1;
layers = (
{
background = {
paths = (
{
closed = 1;
nodes = (
"191 53 OFFCURVE",
"157 92 OFFCURVE",
"157 149 CURVE SMOOTH",
"157 624 LINE SMOOTH",
"157 679 OFFCURVE",
"193 720 OFFCURVE",
"240 720 CURVE",
"288 720 OFFCURVE",
"323 680 OFFCURVE",
"323 624 CURVE SMOOTH",
"323 149 LINE SMOOTH",
"323 93 OFFCURVE",
"288 53 OFFCURVE",
"240 53 CURVE"
);
},
{
closed = 1;
nodes = (
"300 13 OFFCURVE",
"332 -22 OFFCURVE",
"332 -84 CURVE SMOOTH",
"332 -98 LINE SMOOTH",
"332 -239 OFFCURVE",
"386 -293 OFFCURVE",
"520 -293 CURVE SMOOTH",
"521 -293 LINE",
"521 -254 LINE",
"500 -254 LINE SMOOTH",
"457 -254 OFFCURVE",
"427 -218 OFFCURVE",
"427 -162 CURVE",
"427 -64 OFFCURVE",
"391 -3 OFFCURVE",
"296 46 CURVE",
"296 19 LINE",
"395 63 OFFCURVE",
"433 128 OFFCURVE",
"433 227 CURVE SMOOTH",
"433 546 LINE SMOOTH",
"433 681 OFFCURVE",
"361 760 OFFCURVE",
"240 760 CURVE",
"113 760 OFFCURVE",
"43 685 OFFCURVE",
"43 546 CURVE SMOOTH",
"43 227 LINE SMOOTH",
"43 89 OFFCURVE",
"117 13 OFFCURVE",
"249 13 CURVE"
);
}
);
};
layerId = master01;
paths = (
{
closed = 1;
nodes = (
"40 64 OFFCURVE",
"115 -14 OFFCURVE",
"248 -14 CURVE",
"302 -14 OFFCURVE",
"335 -50 OFFCURVE",
"333 -113 CURVE SMOOTH",
"333 -127 LINE SMOOTH",
"335 -271 OFFCURVE",
"390 -326 OFFCURVE",
"525 -326 CURVE SMOOTH",
"526 -326 LINE",
"526 -286 LINE",
"504 -286 LINE SMOOTH",
"462 -286 OFFCURVE",
"432 -250 OFFCURVE",
"430 -192 CURVE",
"432 -92 OFFCURVE",
"395 -30 OFFCURVE",
"296 20 CURVE",
"296 -8 LINE",
"399 37 OFFCURVE",
"436 103 OFFCURVE",
"436 204 CURVE SMOOTH",
"436 336 LINE SMOOTH",
"436 472 OFFCURVE",
"362 550 OFFCURVE",
"234 550 CURVE",
"107 550 OFFCURVE",
"40 477 OFFCURVE",
"40 336 CURVE SMOOTH",
"40 204 LINE SMOOTH"
);
},
{
closed = 1;
nodes = (
"328 67 OFFCURVE",
"289 26 OFFCURVE",
"238 26 CURVE",
"190 26 OFFCURVE",
"150 66 OFFCURVE",
"150 124 CURVE SMOOTH",
"150 415 LINE SMOOTH",
"150 471 OFFCURVE",
"185 511 OFFCURVE",
"234 511 CURVE",
"290 511 OFFCURVE",
"328 472 OFFCURVE",
"328 415 CURVE SMOOTH",
"328 124 LINE SMOOTH"
);
}
);
width = 468;
},
{
associatedMasterId = master01;
layerId = "CE827371-F6A4-482B-8828-1ABA678F9890";
name = foreground;
paths = (
{
closed = 1;
nodes = (
"40 64 OFFCURVE",
"115 -14 OFFCURVE",
"248 -14 CURVE",
"302 -14 OFFCURVE",
"335 -50 OFFCURVE",
"333 -113 CURVE SMOOTH",
"333 -127 LINE SMOOTH",
"335 -271 OFFCURVE",
"390 -326 OFFCURVE",
"525 -326 CURVE SMOOTH",
"526 -326 LINE",
"526 -286 LINE",
"504 -286 LINE SMOOTH",
"462 -286 OFFCURVE",
"432 -250 OFFCURVE",
"430 -192 CURVE",
"432 -92 OFFCURVE",
"395 -30 OFFCURVE",
"296 20 CURVE",
"296 -8 LINE",
"399 37 OFFCURVE",
"436 103 OFFCURVE",
"436 204 CURVE SMOOTH",
"436 336 LINE SMOOTH",
"436 472 OFFCURVE",
"362 550 OFFCURVE",
"234 550 CURVE",
"107 550 OFFCURVE",
"40 477 OFFCURVE",
"40 336 CURVE SMOOTH",
"40 204 LINE SMOOTH"
);
},
{
closed = 1;
nodes = (
"328 67 OFFCURVE",
"289 26 OFFCURVE",
"238 26 CURVE",
"190 26 OFFCURVE",
"150 66 OFFCURVE",
"150 124 CURVE SMOOTH",
"150 415 LINE SMOOTH",
"150 471 OFFCURVE",
"185 511 OFFCURVE",
"234 511 CURVE",
"290 511 OFFCURVE",
"328 472 OFFCURVE",
"328 415 CURVE SMOOTH",
"328 124 LINE SMOOTH"
);
}
);
width = 468;
}
);
leftKerningGroup = SmallCapitals;
},
{
color = (67,219,95,255);
glyphname = r;
layers = (
{
components = (
{
name = smallcomponent_bottom_serif;
transform = "{1, 0, 0, 1, -12, 0}";
},
{
name = smallcomponent_top_half_serif;
transform = "{1, 0, 0, 1, -12, 0}";
}
);
guideLines = (
{
position = "{265, 37}";
}
);
layerId = master01;
paths = (
{
closed = 1;
nodes = (
"194 11 LINE",
"194 529 LINE",
"84 529 LINE",
"84 11 LINE"
);
},
{
closed = 1;
nodes = (
"194 460 LINE",
"194 501 LINE",
"260 501 LINE SMOOTH",
"304 501 OFFCURVE",
"333 463 OFFCURVE",
"333 404 CURVE SMOOTH",
"333 353 LINE SMOOTH",
"333 294 OFFCURVE",
"304 255 OFFCURVE",
"260 255 CURVE SMOOTH",
"234 255 LINE",
"234 218 LINE",
"255 218 LINE",
"294 218 OFFCURVE",
"328 169 OFFCURVE",
"328 112 CURVE",
"328 34 OFFCURVE",
"372 0 OFFCURVE",
"470 0 CURVE",
"479 0 LINE",
"479 37 LINE",
"473 37 LINE SMOOTH",
"449 37 OFFCURVE",
"430 70 OFFCURVE",
"430 112 CURVE",
"430 182 OFFCURVE",
"390 229 OFFCURVE",
"315 247 CURVE",
"315 223 LINE",
"401 257 OFFCURVE",
"438 301 OFFCURVE",
"438 367 CURVE",
"438 485 OFFCURVE",
"382 540 OFFCURVE",
"260 540 CURVE SMOOTH",
"84 540 LINE",
"84 460 LINE"
);
}
);
width = 484;
},
{
associatedMasterId = master01;
components = (
{
name = smallcomponent_bottom_serif;
transform = "{1, 0, 0, 1, -12, 0}";
},
{
name = smallcomponent_top_half_serif;
transform = "{1, 0, 0, 1, -12, 0}";
}
);
guideLines = (
{
position = "{265, 37}";
}
);
layerId = "F8C5E0DE-5C4C-4BCD-B782-7D8B7A65DCB9";
name = foreground;
paths = (
{
closed = 1;
nodes = (
"194 11 LINE",
"194 529 LINE",
"84 529 LINE",
"84 11 LINE"
);
},
{
closed = 1;
nodes = (
"194 460 LINE",
"194 501 LINE",
"260 501 LINE SMOOTH",
"304 501 OFFCURVE",
"333 463 OFFCURVE",
"333 404 CURVE SMOOTH",
"333 353 LINE SMOOTH",
"333 294 OFFCURVE",
"304 255 OFFCURVE",
"260 255 CURVE SMOOTH",
"234 255 LINE",
"234 218 LINE",
"255 218 LINE",
"294 218 OFFCURVE",
"328 169 OFFCURVE",
"328 112 CURVE",
"328 34 OFFCURVE",
"372 0 OFFCURVE",
"470 0 CURVE",
"479 0 LINE",
"479 37 LINE",
"473 37 LINE SMOOTH",
"449 37 OFFCURVE",
"430 70 OFFCURVE",
"430 112 CURVE",
"430 182 OFFCURVE",
"390 229 OFFCURVE",
"315 247 CURVE",
"315 223 LINE",
"401 257 OFFCURVE",
"438 301 OFFCURVE",
"438 367 CURVE",
"438 485 OFFCURVE",
"382 540 OFFCURVE",
"260 540 CURVE SMOOTH",
"84 540 LINE",
"84 460 LINE"
);
}
);
width = 484;
}
);
leftKerningGroup = SmallCapitals;
unicode = 0072;
},
{
color = (67,219,95,255);
glyphname = s;
layers = (
{
layerId = master01;
paths = (
{
closed = 1;
nodes = (
"120 550 OFFCURVE",
"43 480 OFFCURVE",
"43 402 CURVE",
"43 346 OFFCURVE",
"78 297 OFFCURVE",
"142 262 CURVE SMOOTH",
"230 213 LINE SMOOTH",
"278 186 OFFCURVE",
"300 157 OFFCURVE",
"300 121 CURVE",
"300 77 OFFCURVE",
"255 33 OFFCURVE",
"210 33 CURVE",
"142 33 OFFCURVE",
"93 93 OFFCURVE",
"74 198 CURVE",
"40 198 LINE",
"40 0 LINE",
"75 0 LINE",
"79 11 OFFCURVE",
"91 18 OFFCURVE",
"105 18 CURVE",
"124 18 OFFCURVE",
"151 -10 OFFCURVE",
"225 -10 CURVE SMOOTH",
"322 -10 OFFCURVE",
"400 56 OFFCURVE",
"400 139 CURVE",
"400 205 OFFCURVE",
"367 260 OFFCURVE",
"310 291 CURVE SMOOTH",
"202 350 LINE SMOOTH",
"154 376 OFFCURVE",
"138 397 OFFCURVE",
"138 435 CURVE",
"138 476 OFFCURVE",
"172 509 OFFCURVE",
"214 509 CURVE",
"269 509 OFFCURVE",
"297 480 OFFCURVE",
"331 388 CURVE",
"365 397 LINE",
"324 558 LINE",
"290 558 LINE",
"280 531 OFFCURVE",
"264 550 OFFCURVE",
"205 550 CURVE"
);
}
);
width = 432;
},
{
associatedMasterId = master01;
layerId = "00AE8880-335C-420E-A225-C1E5134B658A";
name = foreground;
paths = (
{
closed = 1;
nodes = (
"120 550 OFFCURVE",
"43 480 OFFCURVE",
"43 402 CURVE",
"43 346 OFFCURVE",
"78 297 OFFCURVE",
"142 262 CURVE SMOOTH",
"230 213 LINE SMOOTH",
"278 186 OFFCURVE",
"300 157 OFFCURVE",
"300 121 CURVE",
"300 77 OFFCURVE",
"255 33 OFFCURVE",
"210 33 CURVE",
"142 33 OFFCURVE",
"93 93 OFFCURVE",
"74 198 CURVE",
"40 198 LINE",
"40 0 LINE",
"75 0 LINE",
"79 11 OFFCURVE",
"91 18 OFFCURVE",
"105 18 CURVE",
"124 18 OFFCURVE",
"151 -10 OFFCURVE",
"225 -10 CURVE SMOOTH",
"322 -10 OFFCURVE",
"400 56 OFFCURVE",
"400 139 CURVE",
"400 205 OFFCURVE",
"367 260 OFFCURVE",
"310 291 CURVE SMOOTH",
"202 350 LINE SMOOTH",
"154 376 OFFCURVE",
"138 397 OFFCURVE",
"138 435 CURVE",
"138 476 OFFCURVE",
"172 509 OFFCURVE",
"214 509 CURVE",
"269 509 OFFCURVE",
"297 480 OFFCURVE",
"331 388 CURVE",
"365 397 LINE",
"324 558 LINE",
"290 558 LINE",
"280 531 OFFCURVE",
"264 550 OFFCURVE",
"205 550 CURVE"
);
}
);
width = 432;
}
);
leftKerningGroup = SmallCapitals;
unicode = 0073;
},
{
color = (67,219,95,255);
glyphname = t;
layers = (
{
components = (
{
name = smallcomponent_bottom_serif;
transform = "{1, 0, 0, 1, 68, 0}";
}
);
layerId = master01;
paths = (
{
closed = 1;
nodes = (
"274 8 LINE",
"274 513 LINE",
"164 513 LINE",
"164 8 LINE"
);
},
{
closed = 1;
nodes = (
"111 540 LINE SMOOTH",
"81 540 OFFCURVE",
"67 548 OFFCURVE",
"65 566 CURVE",
"34 566 LINE",
"0 374 LINE",
"34 365 LINE",
"66 481 OFFCURVE",
"83 501 OFFCURVE",
"147 501 CURVE SMOOTH",
"293 501 LINE SMOOTH",
"357 501 OFFCURVE",
"374 481 OFFCURVE",
"406 365 CURVE",
"440 374 LINE",
"406 566 LINE",
"375 566 LINE",
"373 548 OFFCURVE",
"359 540 OFFCURVE",
"329 540 CURVE SMOOTH"
);
}
);
width = 440;
},
{
associatedMasterId = master01;
components = (
{
name = smallcomponent_bottom_serif;
transform = "{1, 0, 0, 1, 68, 0}";
}
);
layerId = "E30FE619-D952-41A2-91FF-0E2119AF54A2";
name = foreground;
paths = (
{
closed = 1;
nodes = (
"274 8 LINE",
"274 513 LINE",
"164 513 LINE",
"164 8 LINE"
);
},
{
closed = 1;
nodes = (
"111 540 LINE SMOOTH",
"81 540 OFFCURVE",
"67 548 OFFCURVE",
"65 566 CURVE",
"34 566 LINE",
"0 374 LINE",
"34 365 LINE",
"66 481 OFFCURVE",
"83 501 OFFCURVE",
"147 501 CURVE SMOOTH",
"293 501 LINE SMOOTH",
"357 501 OFFCURVE",
"374 481 OFFCURVE",
"406 365 CURVE",
"440 374 LINE",
"406 566 LINE",
"375 566 LINE",
"373 548 OFFCURVE",
"359 540 OFFCURVE",
"329 540 CURVE SMOOTH"
);
}
);
width = 440;
}
);
leftKerningGroup = "OverLeft-SmallCapitals";
rightKerningGroup = "OverRight-SmallCapitals";
unicode = 0074;
},
{
color = (67,219,95,255);
glyphname = u;
layers = (
{
components = (
{
name = smallcomponent_top_serif;
transform = "{1, 0, 0, 1, -28, 0}";
}
);
layerId = master01;
paths = (
{
closed = 1;
nodes = (
"420 526 LINE",
"377 526 LINE",
"377 189 LINE SMOOTH",
"377 97 OFFCURVE",
"335 32 OFFCURVE",
"274 32 CURVE",
"216 32 OFFCURVE",
"178 74 OFFCURVE",
"178 136 CURVE SMOOTH",
"178 526 LINE",
"68 526 LINE",
"68 204 LINE SMOOTH",
"68 70 OFFCURVE",
"138 -10 OFFCURVE",
"253 -10 CURVE",
"365 -10 OFFCURVE",
"420 60 OFFCURVE",
"420 204 CURVE SMOOTH"
);
},
{
closed = 1;
nodes = (
"420 460 LINE",
"420 492 OFFCURVE",
"435 503 OFFCURVE",
"480 503 CURVE",
"480 540 LINE",
"317 540 LINE",
"317 503 LINE",
"362 503 OFFCURVE",
"377 492 OFFCURVE",
"377 460 CURVE"
);
}
);
width = 488;
},
{
associatedMasterId = master01;
components = (
{
name = smallcomponent_top_serif;
transform = "{1, 0, 0, 1, -28, 0}";
}
);
layerId = "C3A262BE-18A4-41C3-A1AC-CFE066F8ADEC";
name = foreground;
paths = (
{
closed = 1;
nodes = (
"420 526 LINE",
"377 526 LINE",
"377 189 LINE SMOOTH",
"377 97 OFFCURVE",
"335 32 OFFCURVE",
"274 32 CURVE",
"216 32 OFFCURVE",
"178 74 OFFCURVE",
"178 136 CURVE SMOOTH",
"178 526 LINE",
"68 526 LINE",
"68 204 LINE SMOOTH",
"68 70 OFFCURVE",
"138 -10 OFFCURVE",
"253 -10 CURVE",
"365 -10 OFFCURVE",
"420 60 OFFCURVE",
"420 204 CURVE SMOOTH"
);
},
{
closed = 1;
nodes = (
"420 460 LINE",
"420 492 OFFCURVE",
"435 503 OFFCURVE",
"480 503 CURVE",
"480 540 LINE",
"317 540 LINE",
"317 503 LINE",
"362 503 OFFCURVE",
"377 492 OFFCURVE",
"377 460 CURVE"
);
}
);
width = 488;
}
);
leftKerningGroup = SmallCapitals;
unicode = 0075;
},
{
color = (67,219,95,255);
glyphname = v;
layers = (
{
layerId = master01;
paths = (
{
closed = 1;
nodes = (
"255 103 LINE",
"276 103 LINE",
"166 465 LINE SMOOTH",
"158 493 OFFCURVE",
"177 506 OFFCURVE",
"227 506 CURVE",
"227 540 LINE",
"-2 540 LINE",
"-2 506 LINE",
"35 506 OFFCURVE",
"50 496 OFFCURVE",
"60 464 CURVE SMOOTH",
"216 -14 LINE",
"264 -14 LINE",
"414 462 LINE SMOOTH",
"424 494 OFFCURVE",
"441 506 OFFCURVE",
"476 506 CURVE",
"476 540 LINE",
"309 540 LINE",
"309 506 LINE",
"355 506 OFFCURVE",
"378 489 OFFCURVE",
"369 462 CURVE SMOOTH"
);
}
);
width = 474;
},
{
associatedMasterId = master01;
layerId = "FA0BDD87-3D4B-40F3-8A29-F0597F6BDE17";
name = foreground;
paths = (
{
closed = 1;
nodes = (
"255 103 LINE",
"276 103 LINE",
"166 465 LINE SMOOTH",
"158 493 OFFCURVE",
"177 506 OFFCURVE",
"227 506 CURVE",
"227 540 LINE",
"-2 540 LINE",
"-2 506 LINE",
"35 506 OFFCURVE",
"50 496 OFFCURVE",
"60 464 CURVE SMOOTH",
"216 -14 LINE",
"264 -14 LINE",
"414 462 LINE SMOOTH",
"424 494 OFFCURVE",
"441 506 OFFCURVE",
"476 506 CURVE",
"476 540 LINE",
"309 540 LINE",
"309 506 LINE",
"355 506 OFFCURVE",
"378 489 OFFCURVE",
"369 462 CURVE SMOOTH"
);
}
);
width = 474;
}
);
leftKerningGroup = "OverLeft-SmallCapitals";
rightKerningGroup = "OverRight-SmallCapitals";
unicode = 0076;
},
{
color = (67,219,95,255);
glyphname = w;
layers = (
{
layerId = master01;
paths = (
{
closed = 1;
nodes = (
"500 115 LINE",
"531 115 LINE",
"427 468 LINE SMOOTH",
"419 496 OFFCURVE",
"439 509 OFFCURVE",
"489 509 CURVE",
"488 540 LINE",
"279 540 LINE",
"279 509 LINE",
"319 509 OFFCURVE",
"345 486 OFFCURVE",
"336 453 CURVE SMOOTH",
"240 115 LINE",
"269 115 LINE",
"162 468 LINE SMOOTH",
"154 496 OFFCURVE",
"173 509 OFFCURVE",
"223 509 CURVE",
"223 540 LINE",
"-2 540 LINE",
"-2 509 LINE",
"37 509 OFFCURVE",
"49 501 OFFCURVE",
"60 467 CURVE SMOOTH",
"216 -14 LINE",
"243 -14 LINE",
"371 424 LINE",
"343 424 LINE",
"476 -14 LINE",
"502 -14 LINE",
"652 465 LINE SMOOTH",
"662 497 OFFCURVE",
"679 509 OFFCURVE",
"714 509 CURVE",
"714 540 LINE",
"550 540 LINE",
"550 509 LINE",
"595 509 OFFCURVE",
"618 492 OFFCURVE",
"610 465 CURVE SMOOTH"
);
}
);
width = 712;
},
{
associatedMasterId = master01;
layerId = "E2C12899-58DC-4EEB-91AE-8A12DBF5F890";
name = foreground;
paths = (
{
closed = 1;
nodes = (
"500 115 LINE",
"531 115 LINE",
"427 468 LINE SMOOTH",
"419 496 OFFCURVE",
"439 509 OFFCURVE",
"489 509 CURVE",
"488 540 LINE",
"279 540 LINE",
"279 509 LINE",
"319 509 OFFCURVE",
"345 486 OFFCURVE",
"336 453 CURVE SMOOTH",
"240 115 LINE",
"269 115 LINE",
"162 468 LINE SMOOTH",
"154 496 OFFCURVE",
"173 509 OFFCURVE",
"223 509 CURVE",
"223 540 LINE",
"-2 540 LINE",
"-2 509 LINE",
"37 509 OFFCURVE",
"49 501 OFFCURVE",
"60 467 CURVE SMOOTH",
"216 -14 LINE",
"243 -14 LINE",
"371 424 LINE",
"343 424 LINE",
"476 -14 LINE",
"502 -14 LINE",
"652 465 LINE SMOOTH",
"662 497 OFFCURVE",
"679 509 OFFCURVE",
"714 509 CURVE",
"714 540 LINE",
"550 540 LINE",
"550 509 LINE",
"595 509 OFFCURVE",
"618 492 OFFCURVE",
"610 465 CURVE SMOOTH"
);
}
);
width = 712;
}
);
leftKerningGroup = "OverLeft-SmallCapitals";
rightKerningGroup = "OverRight-SmallCapitals";
unicode = 0077;
},
{
color = (67,219,95,255);
glyphname = x;
layers = (
{
layerId = master01;
paths = (
{
closed = 1;
nodes = (
"24 506 OFFCURVE",
"40 497 OFFCURVE",
"55 471 CURVE SMOOTH",
"287 73 LINE SMOOTH",
"298 54 OFFCURVE",
"270 33 OFFCURVE",
"234 33 CURVE",
"234 0 LINE",
"466 0 LINE",
"466 33 LINE",
"435 33 OFFCURVE",
"418 42 OFFCURVE",
"404 66 CURVE SMOOTH",
"173 461 LINE SMOOTH",
"156 490 OFFCURVE",
"174 506 OFFCURVE",
"224 506 CURVE",
"224 540 LINE",
"-8 540 LINE",
"-8 506 LINE"
);
},
{
closed = 1;
nodes = (
"320 506 OFFCURVE",
"339 491 OFFCURVE",
"325 469 CURVE SMOOTH",
"219 310 LINE",
"209 307 LINE",
"74 80 LINE SMOOTH",
"53 44 OFFCURVE",
"36 33 OFFCURVE",
"0 33 CURVE",
"0 0 LINE",
"167 0 LINE",
"167 33 LINE",
"125 33 OFFCURVE",
"108 49 OFFCURVE",
"123 74 CURVE SMOOTH",
"246 285 LINE",
"259 288 LINE",
"371 461 LINE SMOOTH",
"395 498 OFFCURVE",
"408 506 OFFCURVE",
"444 506 CURVE",
"444 540 LINE",
"278 540 LINE",
"278 506 LINE"
);
}
);
width = 458;
},
{
associatedMasterId = master01;
layerId = "E234CB69-270C-4B2C-BFAB-EFAE034EFEC9";
name = foreground;
paths = (
{
closed = 1;
nodes = (
"24 506 OFFCURVE",
"40 497 OFFCURVE",
"55 471 CURVE SMOOTH",
"287 73 LINE SMOOTH",
"298 54 OFFCURVE",
"270 33 OFFCURVE",
"234 33 CURVE",
"234 0 LINE",
"466 0 LINE",
"466 33 LINE",
"435 33 OFFCURVE",
"418 42 OFFCURVE",
"404 66 CURVE SMOOTH",
"173 461 LINE SMOOTH",
"156 490 OFFCURVE",
"174 506 OFFCURVE",
"224 506 CURVE",
"224 540 LINE",
"-8 540 LINE",
"-8 506 LINE"
);
},
{
closed = 1;
nodes = (
"320 506 OFFCURVE",
"339 491 OFFCURVE",
"325 469 CURVE SMOOTH",
"219 310 LINE",
"209 307 LINE",
"74 80 LINE SMOOTH",
"53 44 OFFCURVE",
"36 33 OFFCURVE",
"0 33 CURVE",
"0 0 LINE",
"167 0 LINE",
"167 33 LINE",
"125 33 OFFCURVE",
"108 49 OFFCURVE",
"123 74 CURVE SMOOTH",
"246 285 LINE",
"259 288 LINE",
"371 461 LINE SMOOTH",
"395 498 OFFCURVE",
"408 506 OFFCURVE",
"444 506 CURVE",
"444 540 LINE",
"278 540 LINE",
"278 506 LINE"
);
}
);
width = 458;
}
);
leftKerningGroup = SmallCapitals;
unicode = 0078;
},
{
color = (67,219,95,255);
glyphname = y;
layers = (
{
components = (
{
name = smallcomponent_bottom_serif;
transform = "{1, 0, 0, 1, 85, 0}";
}
);
layerId = master01;
paths = (
{
closed = 1;
nodes = (
"291 0 LINE",
"291 204 LINE",
"396 462 LINE SMOOTH",
"410 496 OFFCURVE",
"424 506 OFFCURVE",
"458 506 CURVE",
"458 540 LINE",
"288 540 LINE",
"288 506 LINE",
"337 506 OFFCURVE",
"359 490 OFFCURVE",
"348 462 CURVE SMOOTH",
"250 224 LINE",
"272 224 LINE",
"166 464 LINE SMOOTH",
"156 486 OFFCURVE",
"185 506 OFFCURVE",
"226 506 CURVE",
"226 540 LINE",
"-4 540 LINE",
"-4 506 LINE",
"29 506 OFFCURVE",
"40 498 OFFCURVE",
"56 463 CURVE SMOOTH",
"181 188 LINE",
"181 0 LINE"
);
}
);
width = 454;
},
{
associatedMasterId = master01;
components = (
{
name = smallcomponent_bottom_serif;
transform = "{1, 0, 0, 1, 85, 0}";
}
);
layerId = "3CDED1E7-F598-47FA-9571-0E49FA9A3FCB";
name = foreground;
paths = (
{
closed = 1;
nodes = (
"291 0 LINE",
"291 204 LINE",
"396 462 LINE SMOOTH",
"410 496 OFFCURVE",
"424 506 OFFCURVE",
"458 506 CURVE",
"458 540 LINE",
"288 540 LINE",
"288 506 LINE",
"337 506 OFFCURVE",
"359 490 OFFCURVE",
"348 462 CURVE SMOOTH",
"250 224 LINE",
"272 224 LINE",
"166 464 LINE SMOOTH",
"156 486 OFFCURVE",
"185 506 OFFCURVE",
"226 506 CURVE",
"226 540 LINE",
"-4 540 LINE",
"-4 506 LINE",
"29 506 OFFCURVE",
"40 498 OFFCURVE",
"56 463 CURVE SMOOTH",
"181 188 LINE",
"181 0 LINE"
);
}
);
width = 454;
}
);
leftKerningGroup = "OverLeft-SmallCapitals";
rightKerningGroup = "OverRight-SmallCapitals";
unicode = 0079;
},
{
color = (67,219,95,255);
glyphname = z;
layers = (
{
layerId = master01;
paths = (
{
closed = 1;
nodes = (
"100 39 LINE",
"116 12 LINE",
"370 501 LINE",
"371 501 LINE",
"371 540 LINE",
"145 540 LINE SMOOTH",
"109 540 OFFCURVE",
"99 544 OFFCURVE",
"96 559 CURVE",
"63 559 LINE",
"22 397 LINE",
"55 388 LINE",
"92 484 OFFCURVE",
"114 501 OFFCURVE",
"201 501 CURVE SMOOTH",
"289 501 LINE",
"273 528 LINE",
"16 39 LINE",
"16 0 LINE",
"285 0 LINE SMOOTH",
"332 0 OFFCURVE",
"348 -5 OFFCURVE",
"354 -21 CURVE",
"388 -21 LINE",
"388 173 LINE",
"355 173 LINE",
"342 62 OFFCURVE",
"321 39 OFFCURVE",
"232 39 CURVE SMOOTH"
);
}
);
width = 396;
},
{
associatedMasterId = master01;
layerId = "2ECDBED8-7D2D-4404-872E-B594504D205D";
name = foreground;
paths = (
{
closed = 1;
nodes = (
"100 39 LINE",
"116 12 LINE",
"370 501 LINE",
"371 501 LINE",
"371 540 LINE",
"145 540 LINE SMOOTH",
"109 540 OFFCURVE",
"99 544 OFFCURVE",
"96 559 CURVE",
"63 559 LINE",
"22 397 LINE",
"55 388 LINE",
"92 484 OFFCURVE",
"114 501 OFFCURVE",
"201 501 CURVE SMOOTH",
"289 501 LINE",
"273 528 LINE",
"16 39 LINE",
"16 0 LINE",
"285 0 LINE SMOOTH",
"332 0 OFFCURVE",
"348 -5 OFFCURVE",
"354 -21 CURVE",
"388 -21 LINE",
"388 173 LINE",
"355 173 LINE",
"342 62 OFFCURVE",
"321 39 OFFCURVE",
"232 39 CURVE SMOOTH"
);
}
);
width = 396;
}
);
leftKerningGroup = SmallCapitals;
unicode = 007A;
},
{
color = (67,219,95,255);
glyphname = ae;
layers = (
{
layerId = master01;
paths = (
{
closed = 1;
nodes = (
"346 149 LINE",
"346 185 LINE",
"123 185 LINE",
"123 149 LINE"
);
},
{
closed = 1;
nodes = (
"255 540 LINE",
"54 78 LINE SMOOTH",
"40 46 OFFCURVE",
"28 34 OFFCURVE",
"-8 34 CURVE",
"-8 0 LINE",
"159 0 LINE",
"159 34 LINE",
"114 34 OFFCURVE",
"87 51 OFFCURVE",
"99 78 CURVE SMOOTH",
"303 540 LINE"
);
},
{
closed = 1;
nodes = (
"389 11 LINE",
"389 529 LINE",
"283 529 LINE",
"283 11 LINE"
);
},
{
closed = 1;
nodes = (
"462 245 LINE SMOOTH",
"489 245 OFFCURVE",
"501 226 OFFCURVE",
"501 184 CURVE",
"535 184 LINE",
"535 337 LINE",
"501 337 LINE",
"501 302 OFFCURVE",
"488 285 OFFCURVE",
"462 285 CURVE SMOOTH",
"344 285 LINE",
"344 245 LINE"
);
},
{
closed = 1;
nodes = (
"389 37 LINE",
"389 77 LINE",
"283 77 LINE",
"283 43 OFFCURVE",
"270 34 OFFCURVE",
"223 34 CURVE",
"223 0 LINE",
"549 0 LINE SMOOTH",
"596 0 OFFCURVE",
"612 -5 OFFCURVE",
"618 -21 CURVE",
"652 -21 LINE",
"652 171 LINE",
"619 171 LINE",
"606 60 OFFCURVE",
"584 37 OFFCURVE",
"496 37 CURVE SMOOTH"
);
},
{
closed = 1;
nodes = (
"389 463 LINE",
"389 502 LINE",
"463 502 LINE SMOOTH",
"552 502 OFFCURVE",
"571 487 OFFCURVE",
"609 388 CURVE",
"642 397 LINE",
"601 559 LINE",
"568 559 LINE",
"565 544 OFFCURVE",
"554 540 OFFCURVE",
"519 540 CURVE SMOOTH",
"283 540 LINE",
"283 463 LINE"
);
}
);
width = 668;
},
{
associatedMasterId = master01;
layerId = "E76624E8-FAA6-4227-8C72-B6AB2965CE23";
name = foreground;
paths = (
{
closed = 1;
nodes = (
"346 149 LINE",
"346 185 LINE",
"123 185 LINE",
"123 149 LINE"
);
},
{
closed = 1;
nodes = (
"255 540 LINE",
"54 78 LINE SMOOTH",
"40 46 OFFCURVE",
"28 34 OFFCURVE",
"-8 34 CURVE",
"-8 0 LINE",
"159 0 LINE",
"159 34 LINE",
"114 34 OFFCURVE",
"87 51 OFFCURVE",
"99 78 CURVE SMOOTH",
"303 540 LINE"
);
},
{
closed = 1;
nodes = (
"389 11 LINE",
"389 529 LINE",
"283 529 LINE",
"283 11 LINE"
);
},
{
closed = 1;
nodes = (
"462 245 LINE SMOOTH",
"489 245 OFFCURVE",
"501 226 OFFCURVE",
"501 184 CURVE",
"535 184 LINE",
"535 337 LINE",
"501 337 LINE",
"501 302 OFFCURVE",
"488 285 OFFCURVE",
"462 285 CURVE SMOOTH",
"344 285 LINE",
"344 245 LINE"
);
},
{
closed = 1;
nodes = (
"389 37 LINE",
"389 77 LINE",
"283 77 LINE",
"283 43 OFFCURVE",
"270 34 OFFCURVE",
"223 34 CURVE",
"223 0 LINE",
"549 0 LINE SMOOTH",
"596 0 OFFCURVE",
"612 -5 OFFCURVE",
"618 -21 CURVE",
"652 -21 LINE",
"652 171 LINE",
"619 171 LINE",
"606 60 OFFCURVE",
"584 37 OFFCURVE",
"496 37 CURVE SMOOTH"
);
},
{
closed = 1;
nodes = (
"389 463 LINE",
"389 502 LINE",
"463 502 LINE SMOOTH",
"552 502 OFFCURVE",
"571 487 OFFCURVE",
"609 388 CURVE",
"642 397 LINE",
"601 559 LINE",
"568 559 LINE",
"565 544 OFFCURVE",
"554 540 OFFCURVE",
"519 540 CURVE SMOOTH",
"283 540 LINE",
"283 463 LINE"
);
}
);
width = 668;
}
);
leftKerningGroup = "UnderLeft-SmallCapitals";
rightKerningGroup = "UnderRight-SmallCapitals";
unicode = 00E6;
},
{
color = (67,219,95,255);
glyphname = oe;
layers = (
{
components = (
{
name = o;
}
);
layerId = master01;
paths = (
{
closed = 1;
nodes = (
"425 11 LINE",
"425 529 LINE",
"316 529 LINE",
"316 11 LINE"
);
},
{
closed = 1;
nodes = (
"497 247 LINE SMOOTH",
"524 247 OFFCURVE",
"536 228 OFFCURVE",
"536 186 CURVE",
"568 186 LINE",
"568 338 LINE",
"536 338 LINE",
"536 303 OFFCURVE",
"523 286 OFFCURVE",
"497 286 CURVE SMOOTH",
"377 286 LINE",
"377 247 LINE"
);
},
{
closed = 1;
nodes = (
"582 0 LINE SMOOTH",
"629 0 OFFCURVE",
"645 -5 OFFCURVE",
"651 -21 CURVE",
"685 -21 LINE",
"685 171 LINE",
"652 171 LINE",
"639 60 OFFCURVE",
"619 39 OFFCURVE",
"529 39 CURVE SMOOTH",
"425 39 LINE",
"425 77 LINE",
"316 77 LINE",
"316 0 LINE"
);
},
{
closed = 1;
nodes = (
"584 501 OFFCURVE",
"606 484 OFFCURVE",
"642 388 CURVE",
"675 397 LINE",
"634 559 LINE",
"601 559 LINE",
"600 545 OFFCURVE",
"587 540 OFFCURVE",
"552 540 CURVE SMOOTH",
"316 540 LINE",
"316 463 LINE",
"425 463 LINE",
"425 501 LINE",
"496 501 LINE SMOOTH"
);
}
);
width = 721;
},
{
associatedMasterId = master01;
components = (
{
name = o;
}
);
layerId = "1AF64527-F805-4702-A3AC-6F572A2377B9";
name = foreground;
paths = (
{
closed = 1;
nodes = (
"425 11 LINE",
"425 529 LINE",
"316 529 LINE",
"316 11 LINE"
);
},
{
closed = 1;
nodes = (
"497 247 LINE SMOOTH",
"524 247 OFFCURVE",
"536 228 OFFCURVE",
"536 186 CURVE",
"568 186 LINE",
"568 338 LINE",
"536 338 LINE",
"536 303 OFFCURVE",
"523 286 OFFCURVE",
"497 286 CURVE SMOOTH",
"377 286 LINE",
"377 247 LINE"
);
},
{
closed = 1;
nodes = (
"582 0 LINE SMOOTH",
"629 0 OFFCURVE",
"645 -5 OFFCURVE",
"651 -21 CURVE",
"685 -21 LINE",
"685 171 LINE",
"652 171 LINE",
"639 60 OFFCURVE",
"619 39 OFFCURVE",
"529 39 CURVE SMOOTH",
"425 39 LINE",
"425 77 LINE",
"316 77 LINE",
"316 0 LINE"
);
},
{
closed = 1;
nodes = (
"584 501 OFFCURVE",
"606 484 OFFCURVE",
"642 388 CURVE",
"675 397 LINE",
"634 559 LINE",
"601 559 LINE",
"600 545 OFFCURVE",
"587 540 OFFCURVE",
"552 540 CURVE SMOOTH",
"316 540 LINE",
"316 463 LINE",
"425 463 LINE",
"425 501 LINE",
"496 501 LINE SMOOTH"
);
}
);
width = 721;
}
);
leftKerningGroup = SmallCapitals;
unicode = 0153;
},
{
color = (196,99,215,171);
glyphname = schwa;
layers = (
{
layerId = master01;
paths = (
{
closed = 1;
nodes = (
"390 336 LINE SMOOTH",
"390 469 OFFCURVE",
"321 550 OFFCURVE",
"205 550 CURVE",
"91 550 OFFCURVE",
"40 482 OFFCURVE",
"40 336 CURVE SMOOTH",
"40 335 LINE",
"81 335 LINE",
"81 351 LINE SMOOTH",
"81 443 OFFCURVE",
"123 503 OFFCURVE",
"186 503 CURVE",
"240 503 OFFCURVE",
"280 460 OFFCURVE",
"280 404 CURVE SMOOTH",
"280 136 LINE SMOOTH",
"280 80 OFFCURVE",
"240 37 OFFCURVE",
"186 37 CURVE",
"123 37 OFFCURVE",
"81 97 OFFCURVE",
"81 189 CURVE SMOOTH",
"81 205 LINE",
"40 205 LINE",
"40 188 LINE",
"40 52.916 OFFCURVE",
"91 -10 OFFCURVE",
"205 -10 CURVE",
"321 -10 OFFCURVE",
"390 71 OFFCURVE",
"390 204 CURVE SMOOTH"
);
},
{
closed = 1;
nodes = (
"318 188 LINE",
"318 228 LINE",
"40 228 LINE",
"40 188 LINE"
);
}
);
width = 430;
},
{
associatedMasterId = master01;
layerId = "635D1D82-680A-4E5C-BED1-38EA13DF35A2";
name = foreground;
paths = (
{
closed = 1;
nodes = (
"390 336 LINE SMOOTH",
"390 469 OFFCURVE",
"321 550 OFFCURVE",
"205 550 CURVE",
"91 550 OFFCURVE",
"40 482 OFFCURVE",
"40 336 CURVE SMOOTH",
"40 335 LINE",
"81 335 LINE",
"81 351 LINE SMOOTH",
"81 443 OFFCURVE",
"123 503 OFFCURVE",
"186 503 CURVE",
"240 503 OFFCURVE",
"280 460 OFFCURVE",
"280 404 CURVE SMOOTH",
"280 136 LINE SMOOTH",
"280 80 OFFCURVE",
"240 37 OFFCURVE",
"186 37 CURVE",
"123 37 OFFCURVE",
"81 97 OFFCURVE",
"81 189 CURVE SMOOTH",
"81 205 LINE",
"40 205 LINE",
"40 188 LINE",
"40 52.916 OFFCURVE",
"91 -10 OFFCURVE",
"205 -10 CURVE",
"321 -10 OFFCURVE",
"390 71 OFFCURVE",
"390 204 CURVE SMOOTH"
);
},
{
closed = 1;
nodes = (
"318 188 LINE",
"318 228 LINE",
"40 228 LINE",
"40 188 LINE"
);
}
);
width = 430;
}
);
leftKerningGroup = SmallCapitals;
unicode = 0259;
},
{
color = (196,99,215,171);
glyphname = dcroat;
layers = (
{
layerId = master01;
paths = (
{
closed = 1;
nodes = (
"388 0 OFFCURVE",
"449 71 OFFCURVE",
"449 214 CURVE SMOOTH",
"449 326 LINE SMOOTH",
"449 469 OFFCURVE",
"388 540 OFFCURVE",
"264 540 CURVE",
"264 540 OFFCURVE",
"141 540 OFFCURVE",
"141 540 CURVE",
"141 503 LINE",
"264 503 LINE SMOOTH",
"309 503 OFFCURVE",
"339 464 OFFCURVE",
"339 404 CURVE SMOOTH",
"339 136 LINE SMOOTH",
"339 76 OFFCURVE",
"309 37 OFFCURVE",
"264 37 CURVE SMOOTH",
"134 37 LINE",
"134 0 LINE",
"264 0 LINE SMOOTH"
);
},
{
closed = 1;
nodes = (
"198 11 LINE",
"198 529 LINE",
"86 529 LINE",
"86 11 LINE"
);
},
{
closed = 1;
nodes = (
"26 540 LINE",
"26 506 LINE",
"73 506 OFFCURVE",
"86 497 OFFCURVE",
"86 463 CURVE",
"160 463 LINE",
"160 540 LINE"
);
},
{
closed = 1;
nodes = (
"160 77 LINE",
"86 77 LINE",
"86 43 OFFCURVE",
"73 34 OFFCURVE",
"26 34 CURVE",
"26 0 LINE",
"160 0 LINE"
);
},
{
closed = 1;
nodes = (
"275 250 LINE",
"275 290 LINE",
"26 290 LINE",
"26 250 LINE"
);
}
);
width = 489;
},
{
associatedMasterId = master01;
layerId = "7AABC647-A881-4FB3-ACB0-8FDFE5CBCA27";
name = foreground;
paths = (
{
closed = 1;
nodes = (
"388 0 OFFCURVE",
"449 71 OFFCURVE",
"449 214 CURVE SMOOTH",
"449 326 LINE SMOOTH",
"449 469 OFFCURVE",
"388 540 OFFCURVE",
"264 540 CURVE",
"264 540 OFFCURVE",
"141 540 OFFCURVE",
"141 540 CURVE",
"141 503 LINE",
"264 503 LINE SMOOTH",
"309 503 OFFCURVE",
"339 464 OFFCURVE",
"339 404 CURVE SMOOTH",
"339 136 LINE SMOOTH",
"339 76 OFFCURVE",
"309 37 OFFCURVE",
"264 37 CURVE SMOOTH",
"134 37 LINE",
"134 0 LINE",
"264 0 LINE SMOOTH"
);
},
{
closed = 1;
nodes = (
"198 11 LINE",
"198 529 LINE",
"86 529 LINE",
"86 11 LINE"
);
},
{
closed = 1;
nodes = (
"26 540 LINE",
"26 506 LINE",
"73 506 OFFCURVE",
"86 497 OFFCURVE",
"86 463 CURVE",
"160 463 LINE",
"160 540 LINE"
);
},
{
closed = 1;
nodes = (
"160 77 LINE",
"86 77 LINE",
"86 43 OFFCURVE",
"73 34 OFFCURVE",
"26 34 CURVE",
"26 0 LINE",
"160 0 LINE"
);
},
{
closed = 1;
nodes = (
"275 250 LINE",
"275 290 LINE",
"26 290 LINE",
"26 250 LINE"
);
}
);
width = 489;
}
);
leftKerningGroup = SmallCapitals;
unicode = 0111;
},
{
color = (196,99,215,171);
glyphname = eth;
layers = (
{
layerId = master01;
paths = (
{
closed = 1;
nodes = (
"388 0 OFFCURVE",
"449 71 OFFCURVE",
"449 214 CURVE SMOOTH",
"449 326 LINE SMOOTH",
"449 469 OFFCURVE",
"388 540 OFFCURVE",
"264 540 CURVE",
"264 540 OFFCURVE",
"141 540 OFFCURVE",
"141 540 CURVE",
"141 503 LINE",
"264 503 LINE SMOOTH",
"309 503 OFFCURVE",
"339 464 OFFCURVE",
"339 404 CURVE SMOOTH",
"339 136 LINE SMOOTH",
"339 76 OFFCURVE",
"309 37 OFFCURVE",
"264 37 CURVE SMOOTH",
"134 37 LINE",
"134 0 LINE",
"264 0 LINE SMOOTH"
);
},
{
closed = 1;
nodes = (
"198 11 LINE",
"198 529 LINE",
"86 529 LINE",
"86 11 LINE"
);
},
{
closed = 1;
nodes = (
"26 540 LINE",
"26 506 LINE",
"73 506 OFFCURVE",
"86 497 OFFCURVE",
"86 463 CURVE",
"160 463 LINE",
"160 540 LINE"
);
},
{
closed = 1;
nodes = (
"160 77 LINE",
"86 77 LINE",
"86 43 OFFCURVE",
"73 34 OFFCURVE",
"26 34 CURVE",
"26 0 LINE",
"160 0 LINE"
);
},
{
closed = 1;
nodes = (
"275 250 LINE",
"275 290 LINE",
"26 290 LINE",
"26 250 LINE"
);
}
);
width = 489;
},
{
associatedMasterId = master01;
layerId = "CAE62D18-7BF1-4408-A11B-C23863CC8949";
name = foreground;
paths = (
{
closed = 1;
nodes = (
"388 0 OFFCURVE",
"449 71 OFFCURVE",
"449 214 CURVE SMOOTH",
"449 326 LINE SMOOTH",
"449 469 OFFCURVE",
"388 540 OFFCURVE",
"264 540 CURVE",
"264 540 OFFCURVE",
"141 540 OFFCURVE",
"141 540 CURVE",
"141 503 LINE",
"264 503 LINE SMOOTH",
"309 503 OFFCURVE",
"339 464 OFFCURVE",
"339 404 CURVE SMOOTH",
"339 136 LINE SMOOTH",
"339 76 OFFCURVE",
"309 37 OFFCURVE",
"264 37 CURVE SMOOTH",
"134 37 LINE",
"134 0 LINE",
"264 0 LINE SMOOTH"
);
},
{
closed = 1;
nodes = (
"198 11 LINE",
"198 529 LINE",
"86 529 LINE",
"86 11 LINE"
);
},
{
closed = 1;
nodes = (
"26 540 LINE",
"26 506 LINE",
"73 506 OFFCURVE",
"86 497 OFFCURVE",
"86 463 CURVE",
"160 463 LINE",
"160 540 LINE"
);
},
{
closed = 1;
nodes = (
"160 77 LINE",
"86 77 LINE",
"86 43 OFFCURVE",
"73 34 OFFCURVE",
"26 34 CURVE",
"26 0 LINE",
"160 0 LINE"
);
},
{
closed = 1;
nodes = (
"275 250 LINE",
"275 290 LINE",
"26 290 LINE",
"26 250 LINE"
);
}
);
width = 489;
}
);
leftKerningGroup = SmallCapitals;
unicode = 00F0;
},
{
color = (196,99,215,171);
glyphname = hbar;
layers = (
{
components = (
{
name = h;
}
);
guideLines = (
{
angle = 90;
position = "{36, 139}";
}
);
layerId = master01;
paths = (
{
closed = 1;
nodes = (
"527 380 LINE",
"527 420 LINE",
"36 420 LINE",
"36 380 LINE"
);
}
);
width = 562;
},
{
associatedMasterId = master01;
components = (
{
name = h;
}
);
guideLines = (
{
angle = 90;
position = "{36, 139}";
}
);
layerId = "A00CA1CB-ABC6-4D0D-A2F7-DC764B6DE6F6";
name = foreground;
paths = (
{
closed = 1;
nodes = (
"527 380 LINE",
"527 420 LINE",
"36 420 LINE",
"36 380 LINE"
);
}
);
width = 562;
}
);
leftKerningGroup = SmallCapitals;
unicode = 0127;
},
{
color = (196,99,215,171);
glyphname = lslash;
layers = (
{
components = (
{
name = l;
}
);
layerId = master01;
paths = (
{
closed = 1;
nodes = (
"27 229 LINE",
"27 178 LINE",
"355 299 LINE SMOOTH",
"355 350 LINE"
);
}
);
width = 461;
},
{
associatedMasterId = master01;
components = (
{
name = l;
}
);
layerId = "BF035969-A03B-4555-B99B-3567EE8A679A";
name = foreground;
paths = (
{
closed = 1;
nodes = (
"27 229 LINE",
"27 178 LINE",
"355 299 LINE SMOOTH",
"355 350 LINE"
);
}
);
width = 461;
}
);
leftKerningGroup = SmallCapitals;
unicode = 0142;
},
{
color = (196,99,215,171);
glyphname = eng;
layers = (
{
layerId = master01;
paths = (
{
closed = 1;
nodes = (
"450 466 LINE",
"450 500 OFFCURVE",
"463 509 OFFCURVE",
"510 509 CURVE",
"510 540 LINE",
"345 540 LINE",
"345 509 LINE",
"392 509 OFFCURVE",
"405 500 OFFCURVE",
"405 466 CURVE"
);
},
{
closed = 1;
nodes = (
"81 40 OFFCURVE",
"68 31 OFFCURVE",
"21 31 CURVE",
"21 0 LINE",
"186 0 LINE",
"186 31 LINE",
"139 31 OFFCURVE",
"126 40 OFFCURVE",
"126 74 CURVE",
"81 74 LINE"
);
},
{
closed = 1;
nodes = (
"404 0 OFFCURVE",
"379 -126 OFFCURVE",
"295 -126 CURVE SMOOTH",
"294 -126 LINE",
"294 -163 LINE",
"295 -163 LINE SMOOTH",
"402 -163 OFFCURVE",
"450 -111 OFFCURVE",
"450 0 CURVE SMOOTH",
"450 529 LINE",
"405 529 LINE",
"405 138 LINE",
"439 138 LINE",
"177 540 LINE",
"21 540 LINE",
"21 506 LINE",
"68 506 OFFCURVE",
"81 497 OFFCURVE",
"81 463 CURVE SMOOTH",
"81 11 LINE",
"126 11 LINE",
"126 352 LINE",
"118 479 LINE",
"108 470 LINE",
"339 104 LINE SMOOTH"
);
}
);
width = 520;
},
{
associatedMasterId = master01;
layerId = "3B6060E3-A4F4-4846-B12B-D96AC4B4F842";
name = foreground;
paths = (
{
closed = 1;
nodes = (
"450 466 LINE",
"450 500 OFFCURVE",
"463 509 OFFCURVE",
"510 509 CURVE",
"510 540 LINE",
"345 540 LINE",
"345 509 LINE",
"392 509 OFFCURVE",
"405 500 OFFCURVE",
"405 466 CURVE"
);
},
{
closed = 1;
nodes = (
"81 40 OFFCURVE",
"68 31 OFFCURVE",
"21 31 CURVE",
"21 0 LINE",
"186 0 LINE",
"186 31 LINE",
"139 31 OFFCURVE",
"126 40 OFFCURVE",
"126 74 CURVE",
"81 74 LINE"
);
},
{
closed = 1;
nodes = (
"404 0 OFFCURVE",
"379 -126 OFFCURVE",
"295 -126 CURVE SMOOTH",
"294 -126 LINE",
"294 -163 LINE",
"295 -163 LINE SMOOTH",
"402 -163 OFFCURVE",
"450 -111 OFFCURVE",
"450 0 CURVE SMOOTH",
"450 529 LINE",
"405 529 LINE",
"405 138 LINE",
"439 138 LINE",
"177 540 LINE",
"21 540 LINE",
"21 506 LINE",
"68 506 OFFCURVE",
"81 497 OFFCURVE",
"81 463 CURVE SMOOTH",
"81 11 LINE",
"126 11 LINE",
"126 352 LINE",
"118 479 LINE",
"108 470 LINE",
"339 104 LINE SMOOTH"
);
}
);
width = 520;
}
);
leftKerningGroup = SmallCapitals;
unicode = 014B;
},
{
color = (196,99,215,171);
glyphname = mu;
layers = (
{
components = (
{
name = smallcomponent_bottom_serif;
transform = "{1, 0, 0, 1, -4, -250}";
},
{
name = smallcomponent_top_serif;
transform = "{1, 0, 0, 1, -4, 0}";
}
);
layerId = master01;
paths = (
{
closed = 1;
nodes = (
"455 463 LINE",
"455 495 OFFCURVE",
"468 506 OFFCURVE",
"514 506 CURVE",
"514 540 LINE",
"353 540 LINE",
"353 507 LINE",
"399 507 OFFCURVE",
"413 496 OFFCURVE",
"413 464 CURVE"
);
},
{
closed = 1;
nodes = (
"202 -216 LINE",
"202 5 LINE",
"226 -5 OFFCURVE",
"255 -10 OFFCURVE",
"286 -10 CURVE",
"342 -10 OFFCURVE",
"385 8 OFFCURVE",
"413 44 CURVE",
"413 0 LINE",
"516 0 LINE",
"516 34 LINE",
"469 34 OFFCURVE",
"455 44 OFFCURVE",
"455 77 CURVE SMOOTH",
"455 526 LINE",
"413 527 LINE",
"413 189 LINE SMOOTH",
"413 97 OFFCURVE",
"369 37 OFFCURVE",
"303 37 CURVE",
"240 37 OFFCURVE",
"202 82 OFFCURVE",
"202 156 CURVE SMOOTH",
"202 526 LINE",
"92 526 LINE",
"92 -216 LINE"
);
}
);
width = 552;
},
{
associatedMasterId = master01;
components = (
{
name = smallcomponent_bottom_serif;
transform = "{1, 0, 0, 1, -4, -250}";
},
{
name = smallcomponent_top_serif;
transform = "{1, 0, 0, 1, -4, 0}";
}
);
layerId = "C8726B16-A5BA-4453-800D-94DB6D464309";
name = foreground;
paths = (
{
closed = 1;
nodes = (
"455 463 LINE",
"455 495 OFFCURVE",
"468 506 OFFCURVE",
"514 506 CURVE",
"514 540 LINE",
"353 540 LINE",
"353 507 LINE",
"399 507 OFFCURVE",
"413 496 OFFCURVE",
"413 464 CURVE"
);
},
{
closed = 1;
nodes = (
"202 -216 LINE",
"202 5 LINE",
"226 -5 OFFCURVE",
"255 -10 OFFCURVE",
"286 -10 CURVE",
"342 -10 OFFCURVE",
"385 8 OFFCURVE",
"413 44 CURVE",
"413 0 LINE",
"516 0 LINE",
"516 34 LINE",
"469 34 OFFCURVE",
"455 44 OFFCURVE",
"455 77 CURVE SMOOTH",
"455 526 LINE",
"413 527 LINE",
"413 189 LINE SMOOTH",
"413 97 OFFCURVE",
"369 37 OFFCURVE",
"303 37 CURVE",
"240 37 OFFCURVE",
"202 82 OFFCURVE",
"202 156 CURVE SMOOTH",
"202 526 LINE",
"92 526 LINE",
"92 -216 LINE"
);
}
);
width = 552;
}
);
leftKerningGroup = SmallCapitals;
unicode = 03BC;
},
{
color = (196,99,215,171);
glyphname = oslash;
layers = (
{
components = (
{
name = o;
transform = "{1, 0, 0, 1, 1, 0}";
}
);
layerId = master01;
paths = (
{
closed = 1;
nodes = (
"-4 162 LINE",
"-3 108 LINE",
"473 387 LINE SMOOTH",
"472 441 LINE"
);
}
);
width = 469;
},
{
associatedMasterId = master01;
components = (
{
name = o;
transform = "{1, 0, 0, 1, 1, 0}";
}
);
layerId = "27F3E5E3-6498-4F49-BB81-3DD4F049D8B0";
name = foreground;
paths = (
{
closed = 1;
nodes = (
"-4 162 LINE",
"-3 108 LINE",
"473 387 LINE SMOOTH",
"472 441 LINE"
);
}
);
width = 469;
}
);
leftKerningGroup = SmallCapitals;
unicode = 00F8;
},
{
color = (196,99,215,171);
glyphname = thorn;
layers = (
{
layerId = master01;
paths = (
{
closed = 1;
nodes = (
"206 11 LINE",
"206 529 LINE",
"96 529 LINE",
"96 11 LINE"
);
},
{
closed = 1;
nodes = (
"206 460 LINE",
"206 494 OFFCURVE",
"219 503 OFFCURVE",
"266 503 CURVE",
"266 540 LINE",
"36 540 LINE",
"36 503 LINE",
"83 503 OFFCURVE",
"96 494 OFFCURVE",
"96 460 CURVE"
);
},
{
closed = 1;
nodes = (
"96 46 OFFCURVE",
"83 37 OFFCURVE",
"36 37 CURVE",
"36 0 LINE",
"266 0 LINE",
"266 37 LINE",
"219 37 OFFCURVE",
"206 46 OFFCURVE",
"206 80 CURVE",
"96 80 LINE"
);
},
{
closed = 1;
nodes = (
"434 399 OFFCURVE",
"372 463 OFFCURVE",
"246 463 CURVE SMOOTH",
"203 463 LINE",
"203 424 LINE",
"246 424 LINE SMOOTH",
"291 424 OFFCURVE",
"321 386 OFFCURVE",
"321 328 CURVE SMOOTH",
"321 211 LINE SMOOTH",
"321 152 OFFCURVE",
"291 113 OFFCURVE",
"246 113 CURVE SMOOTH",
"246 113 LINE",
"246 77 LINE",
"246 77 LINE SMOOTH",
"372 77 OFFCURVE",
"434 140 OFFCURVE",
"434 269 CURVE"
);
}
);
width = 466;
},
{
associatedMasterId = master01;
layerId = "4FD6F243-D1FA-4F5D-8C05-481F6F24B7E4";
name = foreground;
paths = (
{
closed = 1;
nodes = (
"206 11 LINE",
"206 529 LINE",
"96 529 LINE",
"96 11 LINE"
);
},
{
closed = 1;
nodes = (
"206 460 LINE",
"206 494 OFFCURVE",
"219 503 OFFCURVE",
"266 503 CURVE",
"266 540 LINE",
"36 540 LINE",
"36 503 LINE",
"83 503 OFFCURVE",
"96 494 OFFCURVE",
"96 460 CURVE"
);
},
{
closed = 1;
nodes = (
"96 46 OFFCURVE",
"83 37 OFFCURVE",
"36 37 CURVE",
"36 0 LINE",
"266 0 LINE",
"266 37 LINE",
"219 37 OFFCURVE",
"206 46 OFFCURVE",
"206 80 CURVE",
"96 80 LINE"
);
},
{
closed = 1;
nodes = (
"434 399 OFFCURVE",
"372 463 OFFCURVE",
"246 463 CURVE SMOOTH",
"203 463 LINE",
"203 424 LINE",
"246 424 LINE SMOOTH",
"291 424 OFFCURVE",
"321 386 OFFCURVE",
"321 328 CURVE SMOOTH",
"321 211 LINE SMOOTH",
"321 152 OFFCURVE",
"291 113 OFFCURVE",
"246 113 CURVE SMOOTH",
"246 113 LINE",
"246 77 LINE",
"246 77 LINE SMOOTH",
"372 77 OFFCURVE",
"434 140 OFFCURVE",
"434 269 CURVE"
);
}
);
width = 466;
}
);
leftKerningGroup = SmallCapitals;
unicode = 00FE;
},
{
color = (196,99,215,171);
glyphname = tbar;
layers = (
{
components = (
{
name = t;
}
);
layerId = master01;
paths = (
{
closed = 1;
nodes = (
"68 276 LINE",
"68 237 LINE",
"377 237 LINE SMOOTH",
"377 276 LINE"
);
}
);
width = 444;
},
{
associatedMasterId = master01;
components = (
{
name = t;
}
);
layerId = "B489621C-ABCC-4C4E-A8B6-0F6986EE8480";
name = foreground;
paths = (
{
closed = 1;
nodes = (
"68 276 LINE",
"68 237 LINE",
"377 237 LINE SMOOTH",
"377 276 LINE"
);
}
);
width = 444;
}
);
leftKerningGroup = "OverLeft-SmallCapitals";
rightKerningGroup = "OverRight-SmallCapitals";
unicode = 0167;
},
{
color = (196,99,215,171);
glyphname = alphatonos;
layers = (
{
components = (
{
name = a;
}
);
layerId = master01;
paths = (
{
closed = 1;
nodes = (
"171 543 LINE",
"112 543 LINE",
"49 353 LINE",
"108 353 LINE"
);
}
);
width = 462;
},
{
associatedMasterId = master01;
components = (
{
name = a;
}
);
layerId = "C4415291-91ED-4684-B6B5-24509DD8852B";
name = foreground;
paths = (
{
closed = 1;
nodes = (
"171 543 LINE",
"112 543 LINE",
"49 353 LINE",
"108 353 LINE"
);
}
);
width = 462;
}
);
leftKerningGroup = "UnderLeft-SmallCapitals";
unicode = 03AC;
},
{
color = (196,99,215,171);
glyphname = small.germandbls;
layers = (
{
components = (
{
name = smallcomponents_btm_half_serif;
transform = "{1, 0, 0, 1, -6, 0}";
}
);
layerId = master01;
paths = (
{
closed = 1;
nodes = (
"90 0 LINE",
"198 0 LINE",
"198 448 LINE SMOOTH",
"198 484 OFFCURVE",
"220 510 OFFCURVE",
"249 510 CURVE",
"280 510 OFFCURVE",
"298 488 OFFCURVE",
"298 447 CURVE",
"298 356 OFFCURVE",
"236 370 OFFCURVE",
"236 294 CURVE",
"236 251 OFFCURVE",
"247 232 OFFCURVE",
"296 187 CURVE SMOOTH",
"319 166 LINE SMOOTH",
"358 131 OFFCURVE",
"367 114 OFFCURVE",
"367 80 CURVE SMOOTH",
"367 51 OFFCURVE",
"348 31 OFFCURVE",
"324 31 CURVE SMOOTH",
"306 31 OFFCURVE",
"302 33 OFFCURVE",
"285 50 CURVE SMOOTH",
"270 65 OFFCURVE",
"260 90 OFFCURVE",
"254 129 CURVE",
"230 129 LINE",
"230 0 LINE",
"254 0 LINE",
"258 6 OFFCURVE",
"265 10 OFFCURVE",
"273 10 CURVE SMOOTH",
"285 10 OFFCURVE",
"295 -7 OFFCURVE",
"336 -7 CURVE SMOOTH",
"400 -7 OFFCURVE",
"460 49 OFFCURVE",
"460 112 CURVE",
"460 161 OFFCURVE",
"447 187 OFFCURVE",
"401 226 CURVE SMOOTH",
"368 254 LINE SMOOTH",
"321 294 OFFCURVE",
"313 305 OFFCURVE",
"313 328 CURVE",
"313 367 OFFCURVE",
"379 368 OFFCURVE",
"379 451 CURVE",
"379 507 OFFCURVE",
"320 550 OFFCURVE",
"249 550 CURVE",
"151 550 OFFCURVE",
"90 492 OFFCURVE",
"90 384 CURVE SMOOTH"
);
}
);
width = 468;
},
{
associatedMasterId = master01;
components = (
{
name = smallcomponents_btm_half_serif;
transform = "{1, 0, 0, 1, -6, 0}";
}
);
layerId = "7DAE5AFB-3A02-41FF-A700-8E53822C7A93";
name = foreground;
paths = (
{
closed = 1;
nodes = (
"90 0 LINE",
"198 0 LINE",
"198 448 LINE SMOOTH",
"198 484 OFFCURVE",
"220 510 OFFCURVE",
"249 510 CURVE",
"280 510 OFFCURVE",
"298 488 OFFCURVE",
"298 447 CURVE",
"298 356 OFFCURVE",
"236 370 OFFCURVE",
"236 294 CURVE",
"236 251 OFFCURVE",
"247 232 OFFCURVE",
"296 187 CURVE SMOOTH",
"319 166 LINE SMOOTH",
"358 131 OFFCURVE",
"367 114 OFFCURVE",
"367 80 CURVE SMOOTH",
"367 51 OFFCURVE",
"348 31 OFFCURVE",
"324 31 CURVE SMOOTH",
"306 31 OFFCURVE",
"302 33 OFFCURVE",
"285 50 CURVE SMOOTH",
"270 65 OFFCURVE",
"260 90 OFFCURVE",
"254 129 CURVE",
"230 129 LINE",
"230 0 LINE",
"254 0 LINE",
"258 6 OFFCURVE",
"265 10 OFFCURVE",
"273 10 CURVE SMOOTH",
"285 10 OFFCURVE",
"295 -7 OFFCURVE",
"336 -7 CURVE SMOOTH",
"400 -7 OFFCURVE",
"460 49 OFFCURVE",
"460 112 CURVE",
"460 161 OFFCURVE",
"447 187 OFFCURVE",
"401 226 CURVE SMOOTH",
"368 254 LINE SMOOTH",
"321 294 OFFCURVE",
"313 305 OFFCURVE",
"313 328 CURVE",
"313 367 OFFCURVE",
"379 368 OFFCURVE",
"379 451 CURVE",
"379 507 OFFCURVE",
"320 550 OFFCURVE",
"249 550 CURVE",
"151 550 OFFCURVE",
"90 492 OFFCURVE",
"90 384 CURVE SMOOTH"
);
}
);
width = 468;
}
);
leftKerningGroup = SmallCapitals;
},
{
color = (0,0,255,255);
glyphname = d_e;
layers = (
{
layerId = master01;
paths = (
{
closed = 1;
nodes = (
"406 0 OFFCURVE",
"467 71 OFFCURVE",
"467 214 CURVE SMOOTH",
"467 326 LINE SMOOTH",
"467 472 OFFCURVE",
"408 540 OFFCURVE",
"282 540 CURVE SMOOTH",
"84 540 LINE",
"84 501 LINE",
"282 501 LINE SMOOTH",
"327 501 OFFCURVE",
"357 463 OFFCURVE",
"357 404 CURVE SMOOTH",
"357 136 LINE SMOOTH",
"357 77 OFFCURVE",
"327 39 OFFCURVE",
"282 39 CURVE SMOOTH",
"84 39 LINE",
"84 0 LINE",
"282 0 LINE SMOOTH"
);
},
{
closed = 1;
nodes = (
"196 11 LINE",
"196 529 LINE",
"84 529 LINE",
"84 11 LINE"
);
},
{
closed = 1;
nodes = (
"67 503 OFFCURVE",
"84 491 OFFCURVE",
"84 460 CURVE",
"141 460 LINE",
"141 540 LINE",
"24 540 LINE",
"24 503 LINE"
);
},
{
closed = 1;
nodes = (
"24 0 LINE",
"141 0 LINE",
"141 80 LINE",
"84 80 LINE",
"84 49 OFFCURVE",
"67 37 OFFCURVE",
"24 37 CURVE"
);
},
{
closed = 1;
nodes = (
"233 247 LINE SMOOTH",
"260 247 OFFCURVE",
"272 228 OFFCURVE",
"272 186 CURVE",
"304 186 LINE",
"304 338 LINE",
"272 338 LINE",
"272 303 OFFCURVE",
"259 286 OFFCURVE",
"233 286 CURVE SMOOTH",
"113 286 LINE",
"113 247 LINE"
);
}
);
width = 499;
},
{
associatedMasterId = master01;
layerId = "9EEAB2CC-A913-43EE-88FB-D480B187DEC8";
name = foreground;
paths = (
{
closed = 1;
nodes = (
"406 0 OFFCURVE",
"467 71 OFFCURVE",
"467 214 CURVE SMOOTH",
"467 326 LINE SMOOTH",
"467 472 OFFCURVE",
"408 540 OFFCURVE",
"282 540 CURVE SMOOTH",
"84 540 LINE",
"84 501 LINE",
"282 501 LINE SMOOTH",
"327 501 OFFCURVE",
"357 463 OFFCURVE",
"357 404 CURVE SMOOTH",
"357 136 LINE SMOOTH",
"357 77 OFFCURVE",
"327 39 OFFCURVE",
"282 39 CURVE SMOOTH",
"84 39 LINE",
"84 0 LINE",
"282 0 LINE SMOOTH"
);
},
{
closed = 1;
nodes = (
"196 11 LINE",
"196 529 LINE",
"84 529 LINE",
"84 11 LINE"
);
},
{
closed = 1;
nodes = (
"67 503 OFFCURVE",
"84 491 OFFCURVE",
"84 460 CURVE",
"141 460 LINE",
"141 540 LINE",
"24 540 LINE",
"24 503 LINE"
);
},
{
closed = 1;
nodes = (
"24 0 LINE",
"141 0 LINE",
"141 80 LINE",
"84 80 LINE",
"84 49 OFFCURVE",
"67 37 OFFCURVE",
"24 37 CURVE"
);
},
{
closed = 1;
nodes = (
"233 247 LINE SMOOTH",
"260 247 OFFCURVE",
"272 228 OFFCURVE",
"272 186 CURVE",
"304 186 LINE",
"304 338 LINE",
"272 338 LINE",
"272 303 OFFCURVE",
"259 286 OFFCURVE",
"233 286 CURVE SMOOTH",
"113 286 LINE",
"113 247 LINE"
);
}
);
width = 499;
}
);
leftKerningGroup = SmallCapitals;
},
{
color = (0,0,255,255);
glyphname = e_a;
layers = (
{
layerId = master01;
paths = (
{
closed = 1;
nodes = (
"193 11 LINE",
"193 529 LINE",
"84 529 LINE",
"84 11 LINE"
);
},
{
closed = 1;
nodes = (
"265 247 LINE SMOOTH",
"292 247 OFFCURVE",
"304 228 OFFCURVE",
"304 186 CURVE",
"336 186 LINE",
"336 338 LINE",
"304 338 LINE",
"304 303 OFFCURVE",
"291 286 OFFCURVE",
"265 286 CURVE SMOOTH",
"145 286 LINE",
"145 247 LINE"
);
},
{
closed = 1;
nodes = (
"352 501 OFFCURVE",
"374 484 OFFCURVE",
"410 388 CURVE",
"443 397 LINE",
"402 559 LINE",
"369 559 LINE",
"368 545 OFFCURVE",
"355 540 OFFCURVE",
"320 540 CURVE SMOOTH",
"84 540 LINE",
"84 463 LINE",
"193 463 LINE",
"193 501 LINE",
"264 501 LINE SMOOTH"
);
},
{
closed = 1;
nodes = (
"67 503 OFFCURVE",
"84 491 OFFCURVE",
"84 460 CURVE",
"141 460 LINE",
"141 540 LINE",
"24 540 LINE",
"24 503 LINE"
);
},
{
closed = 1;
nodes = (
"24 0 LINE",
"141 0 LINE",
"141 80 LINE",
"84 80 LINE",
"84 49 OFFCURVE",
"67 37 OFFCURVE",
"24 37 CURVE"
);
},
{
closed = 1;
nodes = (
"736 145 LINE",
"736 183 LINE",
"483 183 LINE",
"483 145 LINE"
);
},
{
closed = 1;
nodes = (
"424 47 OFFCURVE",
"409 39 OFFCURVE",
"312 39 CURVE SMOOTH",
"193 39 LINE",
"193 77 LINE",
"84 77 LINE",
"84 0 LINE",
"345 0 LINE SMOOTH",
"392 0 OFFCURVE",
"408 -5 OFFCURVE",
"414 -21 CURVE",
"448 -21 LINE",
"595 427 LINE",
"573 427 LINE",
"683 78 LINE SMOOTH",
"692 50 OFFCURVE",
"673 37 OFFCURVE",
"622 37 CURVE",
"622 0 LINE",
"852 0 LINE",
"852 37 LINE",
"811 37 OFFCURVE",
"802 44 OFFCURVE",
"790 79 CURVE SMOOTH",
"634 544 LINE",
"586 544 LINE",
"465 173 LINE SMOOTH"
);
}
);
width = 844;
},
{
associatedMasterId = master01;
layerId = "B34241EF-8F7B-4735-9052-A06EB2C9A356";
name = foreground;
paths = (
{
closed = 1;
nodes = (
"193 11 LINE",
"193 529 LINE",
"84 529 LINE",
"84 11 LINE"
);
},
{
closed = 1;
nodes = (
"265 247 LINE SMOOTH",
"292 247 OFFCURVE",
"304 228 OFFCURVE",
"304 186 CURVE",
"336 186 LINE",
"336 338 LINE",
"304 338 LINE",
"304 303 OFFCURVE",
"291 286 OFFCURVE",
"265 286 CURVE SMOOTH",
"145 286 LINE",
"145 247 LINE"
);
},
{
closed = 1;
nodes = (
"352 501 OFFCURVE",
"374 484 OFFCURVE",
"410 388 CURVE",
"443 397 LINE",
"402 559 LINE",
"369 559 LINE",
"368 545 OFFCURVE",
"355 540 OFFCURVE",
"320 540 CURVE SMOOTH",
"84 540 LINE",
"84 463 LINE",
"193 463 LINE",
"193 501 LINE",
"264 501 LINE SMOOTH"
);
},
{
closed = 1;
nodes = (
"67 503 OFFCURVE",
"84 491 OFFCURVE",
"84 460 CURVE",
"141 460 LINE",
"141 540 LINE",
"24 540 LINE",
"24 503 LINE"
);
},
{
closed = 1;
nodes = (
"24 0 LINE",
"141 0 LINE",
"141 80 LINE",
"84 80 LINE",
"84 49 OFFCURVE",
"67 37 OFFCURVE",
"24 37 CURVE"
);
},
{
closed = 1;
nodes = (
"736 145 LINE",
"736 183 LINE",
"483 183 LINE",
"483 145 LINE"
);
},
{
closed = 1;
nodes = (
"424 47 OFFCURVE",
"409 39 OFFCURVE",
"312 39 CURVE SMOOTH",
"193 39 LINE",
"193 77 LINE",
"84 77 LINE",
"84 0 LINE",
"345 0 LINE SMOOTH",
"392 0 OFFCURVE",
"408 -5 OFFCURVE",
"414 -21 CURVE",
"448 -21 LINE",
"595 427 LINE",
"573 427 LINE",
"683 78 LINE SMOOTH",
"692 50 OFFCURVE",
"673 37 OFFCURVE",
"622 37 CURVE",
"622 0 LINE",
"852 0 LINE",
"852 37 LINE",
"811 37 OFFCURVE",
"802 44 OFFCURVE",
"790 79 CURVE SMOOTH",
"634 544 LINE",
"586 544 LINE",
"465 173 LINE SMOOTH"
);
}
);
width = 844;
}
);
leftKerningGroup = SmallCapitals;
rightKerningGroup = "UnderRight-SmallCapitals";
},
{
color = (0,0,255,255);
glyphname = l_a;
layers = (
{
layerId = master01;
paths = (
{
closed = 1;
nodes = (
"194 11 LINE",
"194 540 LINE",
"84 540 LINE",
"84 11 LINE"
);
},
{
closed = 1;
nodes = (
"67 503 OFFCURVE",
"84 491 OFFCURVE",
"84 460 CURVE",
"194 460 LINE",
"194 491 OFFCURVE",
"211 503 OFFCURVE",
"254 503 CURVE",
"254 540 LINE",
"24 540 LINE",
"24 503 LINE"
);
},
{
closed = 1;
nodes = (
"24 0 LINE",
"141 0 LINE",
"141 80 LINE",
"84 80 LINE",
"84 49 OFFCURVE",
"67 37 OFFCURVE",
"24 37 CURVE"
);
},
{
closed = 1;
nodes = (
"661 145 LINE",
"661 183 LINE",
"408 183 LINE",
"408 145 LINE"
);
},
{
closed = 1;
nodes = (
"349 47 OFFCURVE",
"334 39 OFFCURVE",
"237 39 CURVE SMOOTH",
"194 39 LINE",
"194 77 LINE",
"84 77 LINE",
"84 0 LINE",
"270 0 LINE SMOOTH",
"317 0 OFFCURVE",
"333 -5 OFFCURVE",
"339 -21 CURVE",
"373 -21 LINE",
"520 427 LINE",
"498 427 LINE",
"608 78 LINE SMOOTH",
"617 50 OFFCURVE",
"598 37 OFFCURVE",
"547 37 CURVE",
"547 0 LINE",
"777 0 LINE",
"777 37 LINE",
"736 37 OFFCURVE",
"727 44 OFFCURVE",
"715 79 CURVE SMOOTH",
"559 544 LINE",
"511 544 LINE",
"390 173 LINE SMOOTH"
);
}
);
width = 769;
},
{
associatedMasterId = master01;
layerId = "BDED9448-AC6A-4C74-B97B-4753C597D1F9";
name = foreground;
paths = (
{
closed = 1;
nodes = (
"194 11 LINE",
"194 540 LINE",
"84 540 LINE",
"84 11 LINE"
);
},
{
closed = 1;
nodes = (
"67 503 OFFCURVE",
"84 491 OFFCURVE",
"84 460 CURVE",
"194 460 LINE",
"194 491 OFFCURVE",
"211 503 OFFCURVE",
"254 503 CURVE",
"254 540 LINE",
"24 540 LINE",
"24 503 LINE"
);
},
{
closed = 1;
nodes = (
"24 0 LINE",
"141 0 LINE",
"141 80 LINE",
"84 80 LINE",
"84 49 OFFCURVE",
"67 37 OFFCURVE",
"24 37 CURVE"
);
},
{
closed = 1;
nodes = (
"661 145 LINE",
"661 183 LINE",
"408 183 LINE",
"408 145 LINE"
);
},
{
closed = 1;
nodes = (
"349 47 OFFCURVE",
"334 39 OFFCURVE",
"237 39 CURVE SMOOTH",
"194 39 LINE",
"194 77 LINE",
"84 77 LINE",
"84 0 LINE",
"270 0 LINE SMOOTH",
"317 0 OFFCURVE",
"333 -5 OFFCURVE",
"339 -21 CURVE",
"373 -21 LINE",
"520 427 LINE",
"498 427 LINE",
"608 78 LINE SMOOTH",
"617 50 OFFCURVE",
"598 37 OFFCURVE",
"547 37 CURVE",
"547 0 LINE",
"777 0 LINE",
"777 37 LINE",
"736 37 OFFCURVE",
"727 44 OFFCURVE",
"715 79 CURVE SMOOTH",
"559 544 LINE",
"511 544 LINE",
"390 173 LINE SMOOTH"
);
}
);
width = 769;
}
);
leftKerningGroup = SmallCapitals;
rightKerningGroup = "UnderRight-SmallCapitals";
},
